<svg version="1.1" id="Layer_1" xmlns="http://www.w3.org/2000/svg" xmlns:xlink="http://www.w3.org/1999/xlink" x="0px" y="0px"
	 width="100%" viewBox="0 0 512 512" enable-background="new 0 0 512 512" xml:space="preserve">
<path fill="#000000" opacity="1.000000" stroke="none" 
	d="
M286.000000,513.000000 
	C190.689804,513.000000 95.879608,513.000000 1.069408,513.000000 
	C1.046274,512.856506 1.002859,512.713013 1.002857,512.569519 
	C0.999979,342.111115 1.000000,171.652710 1.000000,1.097158 
	C171.560211,1.097158 342.120514,1.097158 512.840393,1.097158 
	C512.840393,171.666550 512.840393,342.333252 512.840393,513.000000 
	C437.462860,513.000000 361.981415,513.000000 286.000000,513.000000 
M80.002151,309.500000 
	C80.002174,339.995789 79.999344,370.491547 80.009987,400.987335 
	C80.010567,402.650208 79.917778,404.350800 80.215118,405.970184 
	C84.572899,429.703278 104.239464,445.996765 128.456680,445.997101 
	C213.612228,445.998322 298.767792,446.012451 383.923309,445.952209 
	C388.049347,445.949280 392.234741,445.614136 396.290741,444.875153 
	C417.601410,440.992584 433.996918,421.200775 433.997131,399.592896 
	C433.998108,304.938599 434.019562,210.284271 433.922882,115.630058 
	C433.918701,111.540749 433.292542,107.315933 432.153809,103.386765 
	C426.258179,83.043777 407.452972,69.042526 384.301270,69.025665 
	C302.978607,68.966431 221.655853,68.981133 140.333191,69.045006 
	C134.038391,69.049957 127.723938,69.438072 121.453117,70.019897 
	C98.636436,72.136948 80.007469,92.657600 80.004768,115.525192 
	C79.997169,179.850128 80.002144,244.175064 80.002151,309.500000 
z"/>
<path fill="#0C1034" opacity="1.000000" stroke="none" 
	d="
M80.002151,309.000000 
	C80.002144,244.175064 79.997169,179.850128 80.004768,115.525192 
	C80.007469,92.657600 98.636436,72.136948 121.453117,70.019897 
	C127.723938,69.438072 134.038391,69.049957 140.333191,69.045006 
	C221.655853,68.981133 302.978607,68.966431 384.301270,69.025665 
	C407.452972,69.042526 426.258179,83.043777 432.153809,103.386765 
	C433.292542,107.315933 433.918701,111.540749 433.922882,115.630058 
	C434.019562,210.284271 433.998108,304.938599 433.997131,399.592896 
	C433.996918,421.200775 417.601410,440.992584 396.290741,444.875153 
	C392.234741,445.614136 388.049347,445.949280 383.923309,445.952209 
	C298.767792,446.012451 213.612228,445.998322 128.456680,445.997101 
	C104.239464,445.996765 84.572899,429.703278 80.215118,405.970184 
	C79.917778,404.350800 80.010567,402.650208 80.009987,400.987335 
	C79.999344,370.491547 80.002174,339.995789 80.002151,309.000000 
M103.997429,376.956451 
	C104.024597,383.788574 103.955315,390.622803 104.104805,397.452240 
	C104.269470,404.975037 107.030556,411.374329 112.929977,416.235748 
	C118.266319,420.633270 124.562943,421.404877 131.227432,421.400024 
	C215.051605,421.338898 298.875854,421.361206 382.700073,421.351837 
	C384.697601,421.351624 386.701843,421.314758 388.691498,421.153595 
	C398.854034,420.330261 407.632843,413.114227 408.934235,402.918915 
	C410.063721,394.070374 409.575470,385.015259 409.876526,375.110352 
	C409.887054,298.690948 409.897247,222.271545 409.908539,145.852142 
	C409.909912,136.528641 410.041595,127.203133 409.891815,117.882103 
	C409.684021,104.950661 400.328857,94.407135 388.460846,94.042900 
	C378.987335,93.752159 369.495148,94.068497 359.084564,93.954697 
	C291.548584,93.939949 224.012589,93.924477 156.476593,93.918877 
	C155.649628,93.918808 154.822662,94.045456 153.074997,93.933937 
	C145.582458,93.928612 138.058716,94.359894 130.603836,93.827339 
	C114.940414,92.708389 103.845963,104.464462 103.953552,120.310165 
	C104.292679,170.258423 104.073967,220.210388 104.093491,270.160919 
	C104.107292,305.458374 104.157372,340.755829 103.997429,376.956451 
z"/>
<path fill="#F4F4F4" opacity="1.000000" stroke="none" 
	d="
M153.995697,94.112961 
	C154.822662,94.045456 155.649628,93.918808 156.476593,93.918877 
	C224.012589,93.924477 291.548584,93.939949 359.792511,94.258713 
	C366.799835,97.532768 370.047211,102.300911 370.039703,109.464325 
	C369.972443,173.666809 370.050476,237.869553 369.859558,302.071533 
	C369.846771,306.373413 367.993469,310.669830 366.701233,315.147278 
	C362.761505,319.053101 358.228882,319.995026 353.178925,319.990479 
	C289.696808,319.933472 226.214432,319.889679 162.732635,320.048950 
	C156.192505,320.065338 150.577682,318.813690 145.962250,313.623169 
	C145.286667,309.337341 144.104340,305.443176 144.096817,301.546722 
	C143.975266,238.478867 144.128036,175.410187 143.848938,112.343315 
	C143.811234,103.824066 146.501999,97.907387 153.995697,94.112961 
M254.174683,274.424072 
	C254.174683,261.984131 254.174683,249.544220 254.174683,236.684616 
	C256.666870,236.684616 258.476624,236.684677 260.286377,236.684586 
	C272.782684,236.683990 285.279510,236.749161 297.775146,236.657364 
	C304.949188,236.604645 307.866638,233.662964 307.924988,226.656281 
	C307.987396,219.159027 308.000549,211.660156 307.919373,204.163239 
	C307.848602,197.625183 304.985565,194.741653 298.421112,194.703217 
	C285.591980,194.628082 272.762146,194.688354 259.932617,194.667633 
	C258.154510,194.664764 256.376648,194.520172 254.506332,194.437073 
	C254.506332,187.042191 254.506332,180.140350 254.506332,172.824951 
	C256.638062,172.824951 258.445984,172.824982 260.253906,172.824966 
	C275.915955,172.824875 291.578033,172.846451 307.240021,172.816086 
	C315.932800,172.799240 319.084442,169.690735 319.118622,161.165802 
	C319.150055,153.334900 319.136841,145.503754 319.122925,137.672745 
	C319.105865,128.085831 316.206909,125.184792 306.551178,125.180458 
	C275.227081,125.166405 243.902969,125.167213 212.578873,125.181252 
	C204.162689,125.185028 202.007797,127.383568 202.006683,135.883224 
	C202.001297,177.204391 202.004044,218.525543 202.004272,259.846710 
	C202.004303,266.511414 201.917709,273.177673 202.035782,279.840302 
	C202.125885,284.923523 204.717361,287.834900 209.604843,287.897888 
	C221.932388,288.056793 234.264450,288.047241 246.592346,287.903656 
	C251.368668,287.847992 253.877289,285.116211 254.139786,280.392303 
	C254.232086,278.730957 254.167618,277.060913 254.174683,274.424072 
z"/>
<path fill="#BDE1EA" opacity="1.000000" stroke="none" 
	d="
M366.996155,314.968750 
	C367.993469,310.669830 369.846771,306.373413 369.859558,302.071533 
	C370.050476,237.869553 369.972443,173.666809 370.039703,109.464325 
	C370.047211,102.300911 366.799835,97.532768 360.255859,94.339043 
	C369.495148,94.068497 378.987335,93.752159 388.460846,94.042900 
	C400.328857,94.407135 409.684021,104.950661 409.891815,117.882103 
	C410.041595,127.203133 409.909912,136.528641 409.908539,145.852142 
	C409.897247,222.271545 409.887054,298.690948 409.640259,375.873291 
	C407.609314,380.199921 405.814667,383.763580 403.979858,386.938660 
	C403.352203,385.183929 402.849152,383.773834 402.164551,382.458191 
	C390.455109,359.954773 378.723175,337.463043 366.996155,314.968750 
z"/>
<path fill="#BDE1EA" opacity="1.000000" stroke="none" 
	d="
M153.535339,94.023453 
	C146.501999,97.907387 143.811234,103.824066 143.848938,112.343315 
	C144.128036,175.410187 143.975266,238.478867 144.096817,301.546722 
	C144.104340,305.443176 145.286667,309.337341 145.927795,313.982605 
	C134.132645,337.789307 122.345070,360.852600 110.482811,383.877441 
	C110.021011,384.773865 108.843407,385.301483 107.828346,385.688904 
	C106.501984,382.269012 105.346619,379.161163 104.191254,376.053284 
	C104.157372,340.755829 104.107292,305.458374 104.093491,270.160919 
	C104.073967,220.210388 104.292679,170.258423 103.953552,120.310165 
	C103.845963,104.464462 114.940414,92.708389 130.603836,93.827339 
	C138.058716,94.359894 145.582458,93.928612 153.535339,94.023453 
z"/>
<path fill="#4DA2BF" opacity="1.000000" stroke="none" 
	d="
M104.094345,376.504883 
	C105.346619,379.161163 106.501984,382.269012 107.959991,385.996735 
	C114.288506,394.286163 122.232834,397.067505 131.886688,397.049530 
	C209.294510,396.905731 286.702728,396.969269 364.110840,396.968964 
	C371.435486,396.968933 378.779907,397.301239 386.079163,396.870056 
	C393.346863,396.440735 400.219330,394.592560 404.020020,387.327271 
	C405.814667,383.763580 407.609314,380.199921 409.603088,376.343872 
	C409.575470,385.015259 410.063721,394.070374 408.934235,402.918915 
	C407.632843,413.114227 398.854034,420.330261 388.691498,421.153595 
	C386.701843,421.314758 384.697601,421.351624 382.700073,421.351837 
	C298.875854,421.361206 215.051605,421.338898 131.227432,421.400024 
	C124.562943,421.404877 118.266319,420.633270 112.929977,416.235748 
	C107.030556,411.374329 104.269470,404.975037 104.104805,397.452240 
	C103.955315,390.622803 104.024597,383.788574 104.094345,376.504883 
z"/>
<path fill="#87C2D6" opacity="1.000000" stroke="none" 
	d="
M403.979858,386.938660 
	C400.219330,394.592560 393.346863,396.440735 386.079163,396.870056 
	C378.779907,397.301239 371.435486,396.968933 364.110840,396.968964 
	C286.702728,396.969269 209.294510,396.905731 131.886688,397.049530 
	C122.232834,397.067505 114.288506,394.286163 108.130981,386.308746 
	C108.843407,385.301483 110.021011,384.773865 110.482811,383.877441 
	C122.345070,360.852600 134.132645,337.789307 145.967651,314.373230 
	C150.577682,318.813690 156.192505,320.065338 162.732635,320.048950 
	C226.214432,319.889679 289.696808,319.933472 353.178925,319.990479 
	C358.228882,319.995026 362.761505,319.053101 366.701233,315.147278 
	C378.723175,337.463043 390.455109,359.954773 402.164551,382.458191 
	C402.849152,383.773834 403.352203,385.183929 403.979858,386.938660 
z"/>
<path fill="#3E6786" opacity="1.000000" stroke="none" 
	d="
M254.174713,274.909454 
	C254.167618,277.060913 254.232086,278.730957 254.139786,280.392303 
	C253.877289,285.116211 251.368668,287.847992 246.592346,287.903656 
	C234.264450,288.047241 221.932388,288.056793 209.604843,287.897888 
	C204.717361,287.834900 202.125885,284.923523 202.035782,279.840302 
	C201.917709,273.177673 202.004303,266.511414 202.004272,259.846710 
	C202.004044,218.525543 202.001297,177.204391 202.006683,135.883224 
	C202.007797,127.383568 204.162689,125.185028 212.578873,125.181252 
	C243.902969,125.167213 275.227081,125.166405 306.551178,125.180458 
	C316.206909,125.184792 319.105865,128.085831 319.122925,137.672745 
	C319.136841,145.503754 319.150055,153.334900 319.118622,161.165802 
	C319.084442,169.690735 315.932800,172.799240 307.240021,172.816086 
	C291.578033,172.846451 275.915955,172.824875 260.253906,172.824966 
	C258.445984,172.824982 256.638062,172.824951 254.506332,172.824951 
	C254.506332,180.140350 254.506332,187.042191 254.506332,194.437073 
	C256.376648,194.520172 258.154510,194.664764 259.932617,194.667633 
	C272.762146,194.688354 285.591980,194.628082 298.421112,194.703217 
	C304.985565,194.741653 307.848602,197.625183 307.919373,204.163239 
	C308.000549,211.660156 307.987396,219.159027 307.924988,226.656281 
	C307.866638,233.662964 304.949188,236.604645 297.775146,236.657364 
	C285.279510,236.749161 272.782684,236.683990 260.286377,236.684586 
	C258.476624,236.684677 256.666870,236.684616 254.174683,236.684616 
	C254.174683,249.544220 254.174683,261.984131 254.174713,274.909454 
z"/>
</svg>