<svg version="1.1" id="Layer_1" xmlns="http://www.w3.org/2000/svg" xmlns:xlink="http://www.w3.org/1999/xlink" x="0px" y="0px"
	 width="100%" viewBox="0 0 512 512" enable-background="new 0 0 512 512" xml:space="preserve">
<path fill="#000001" opacity="1.000000" stroke="none" 
	d="
M1.000000,183.000000 
	C1.000000,122.000000 1.000000,61.500000 1.000000,1.000000 
	C171.666672,1.000000 342.333344,1.000000 513.000000,1.000000 
	C513.000000,171.666672 513.000000,342.333344 513.000000,513.000000 
	C342.333344,513.000000 171.666672,513.000000 1.000000,513.000000 
	C1.000000,403.166656 1.000000,293.333344 1.000000,183.000000 
M75.299835,257.499939 
	C75.300064,267.331818 75.277435,277.163727 75.307205,286.995514 
	C75.334801,296.112640 77.873482,298.726471 86.828339,298.728241 
	C161.150818,298.742950 235.473297,298.743225 309.795776,298.726990 
	C318.468323,298.725098 321.005768,296.087616 321.006287,287.302307 
	C321.009277,237.142975 321.008362,186.983627 321.007233,136.824295 
	C321.006989,126.826569 319.046661,124.836510 309.114410,124.835861 
	C235.291870,124.831032 161.469315,124.831497 87.646774,124.835579 
	C77.385681,124.836151 75.305557,126.882950 75.303436,137.017395 
	C75.295082,176.844910 75.300110,216.672424 75.299835,257.499939 
M448.279022,220.807938 
	C450.368073,219.158386 452.479614,217.536346 454.541321,215.853271 
	C458.335907,212.755661 458.312805,210.597656 454.510254,207.554932 
	C453.470612,206.723038 452.448242,205.869553 451.407684,205.038757 
	C440.102234,196.012207 440.103790,195.360916 451.468933,186.203720 
	C459.507599,179.726746 459.503754,179.470001 451.272400,173.001266 
	C440.307373,164.384338 440.284607,163.418671 450.842804,154.796844 
	C457.636871,149.248825 459.060059,144.256210 456.354156,135.464127 
	C456.045715,135.365173 455.737579,135.180679 455.428802,135.179581 
	C442.775452,135.134247 430.122040,135.082382 417.468658,135.082382 
	C408.577393,135.082382 405.073120,138.591446 405.063995,147.511993 
	C405.042053,168.992020 405.056000,190.472092 405.056122,211.952133 
	C405.056274,233.432175 405.026978,254.912292 405.073425,276.392242 
	C405.090759,284.395966 408.728180,287.984192 416.619232,287.999786 
	C425.943878,288.018219 435.268555,288.004242 444.593231,288.004272 
	C448.689880,288.004303 452.786560,288.004303 456.609894,288.004303 
	C458.704407,278.607147 457.498138,271.209167 448.717194,266.729736 
	C447.427216,266.071686 446.452728,264.790253 445.342438,263.786011 
	C442.202789,260.946259 442.284454,258.034607 445.362701,255.281281 
	C447.963959,252.954620 450.678467,250.747147 453.426788,248.594025 
	C458.717072,244.449463 458.771301,242.822739 453.631470,238.802780 
	C451.664917,237.264694 449.702789,235.717880 447.795166,234.108032 
	C441.429810,228.736298 441.425354,226.791428 448.279022,220.807938 
M148.015533,459.514771 
	C158.724716,426.820892 169.433884,394.127014 180.337555,360.839386 
	C167.570587,360.839386 155.439819,360.954346 143.313889,360.762756 
	C140.070267,360.711517 138.812561,361.833527 137.827621,364.871613 
	C123.532196,408.966980 109.086052,453.013489 94.696022,497.078247 
	C94.319054,498.232605 94.167931,499.460724 93.902405,500.696686 
	C107.796852,500.696686 121.218559,500.696686 134.544022,500.696686 
	C139.053619,487.028351 143.463196,473.663177 148.015533,459.514771 
M274.046112,412.371338 
	C268.861572,396.461151 263.605621,380.573547 258.558655,364.619843 
	C257.655212,361.764008 256.406799,360.624115 253.334137,360.767578 
	C247.848175,361.023651 242.341660,360.839294 236.843735,360.839233 
	C230.119110,360.839142 223.394485,360.839233 216.171692,360.839233 
	C218.301834,367.454163 220.153015,373.284760 222.055801,379.098480 
	C234.885361,418.297485 247.700043,457.501404 260.651794,496.660004 
	C261.202972,498.326416 263.027008,500.778900 264.308075,500.810089 
	C277.069794,501.120544 289.842010,500.998383 303.117096,500.998383 
	C293.381897,471.339050 283.830444,442.239502 274.046112,412.371338 
M144.500549,348.963684 
	C186.587555,348.963684 228.674561,348.963684 270.895203,348.963684 
	C270.895203,335.838196 270.895203,323.273468 270.895203,310.535461 
	C222.224487,310.535461 173.853973,310.535461 125.024239,310.535461 
	C125.024239,317.147034 125.024239,323.439667 125.024239,329.732300 
	C125.024239,336.003601 125.024239,342.274902 125.024239,348.963684 
	C131.579895,348.963684 137.540375,348.963684 144.500549,348.963684 
M220.225296,54.015514 
	C220.078766,56.006870 219.927612,57.997894 219.786392,59.989628 
	C217.807617,87.897919 240.435928,112.570480 268.380188,112.974838 
	C298.429779,113.409653 321.604889,88.457291 319.150940,58.310524 
	C317.085022,32.930664 295.549591,13.027591 270.114807,12.991206 
	C245.607910,12.956149 226.398834,28.502520 220.225296,54.015514 
M386.209076,160.707031 
	C381.606812,162.961838 376.805420,164.901962 372.500031,167.625992 
	C370.772034,168.719269 369.165192,171.526550 369.147003,173.568359 
	C368.921570,198.855331 368.947235,224.145355 369.107025,249.433334 
	C369.118835,251.301437 370.147980,254.052231 371.576385,254.870911 
	C378.354126,258.755493 385.434479,262.112000 393.104767,266.011292 
	C393.104767,229.207108 393.104767,193.812073 393.104767,158.005753 
	C390.834839,158.843063 388.853119,159.574066 386.209076,160.707031 
M152.926910,47.295300 
	C149.321869,46.830994 145.717148,45.971760 142.111725,45.968792 
	C123.684494,45.953613 108.993690,60.867893 108.992371,79.351547 
	C108.991081,97.596626 123.984505,112.805573 142.153534,112.989380 
	C158.468918,113.154434 172.670288,101.402214 175.748886,85.187851 
	C178.752411,69.368927 169.679306,53.943977 152.926910,47.295300 
M224.158630,439.284851 
	C206.520966,439.285156 188.882996,439.242310 171.246109,439.360016 
	C169.674271,439.370453 167.085480,440.040649 166.706039,441.054565 
	C164.072021,448.092804 161.897720,455.303131 159.459839,462.816040 
	C185.718460,462.816040 211.130875,462.816040 236.987885,462.816040 
	C234.832382,456.082764 232.621338,449.686890 230.774597,443.187500 
	C229.877670,440.030884 228.210907,438.770935 224.158630,439.284851 
M357.050323,205.500031 
	C357.050323,198.101639 357.050323,190.703262 357.050323,183.440918 
	C348.587158,183.440918 340.870758,183.440918 333.292328,183.440918 
	C333.292328,202.471024 333.292328,221.146240 333.292328,239.673370 
	C341.385895,239.673370 349.110779,239.673370 357.050323,239.673370 
	C357.050323,228.398376 357.050323,217.449203 357.050323,205.500031 
z"/>
<path fill="#4D7490" opacity="1.000000" stroke="none" 
	d="
M75.300003,256.999939 
	C75.300110,216.672424 75.295082,176.844910 75.303436,137.017395 
	C75.305557,126.882950 77.385681,124.836151 87.646774,124.835579 
	C161.469315,124.831497 235.291870,124.831032 309.114410,124.835861 
	C319.046661,124.836510 321.006989,126.826569 321.007233,136.824295 
	C321.008362,186.983627 321.009277,237.142975 321.006287,287.302307 
	C321.005768,296.087616 318.468323,298.725098 309.795776,298.726990 
	C235.473297,298.743225 161.150818,298.742950 86.828339,298.728241 
	C77.873482,298.726471 75.334801,296.112640 75.307205,286.995514 
	C75.277435,277.163727 75.300064,267.331818 75.300003,256.999939 
M91.147324,162.561554 
	C91.148430,178.212982 91.071182,193.864944 91.178551,209.515640 
	C91.248604,219.727127 96.474998,225.199982 106.387390,225.224869 
	C142.019073,225.314346 177.651245,225.313538 213.282928,225.222672 
	C222.989441,225.197922 228.059692,220.011963 228.096359,210.402100 
	C228.165619,192.253387 228.158188,174.104111 228.101761,155.955307 
	C228.070633,145.946609 223.095673,140.790100 213.154160,140.768250 
	C177.522415,140.689972 141.890274,140.691132 106.258537,140.771240 
	C96.788406,140.792526 91.570358,146.089645 91.170265,155.592300 
	C91.086281,157.586960 91.151154,159.587875 91.147324,162.561554 
M301.328949,182.374588 
	C295.487976,171.370300 286.410156,165.676620 273.880432,165.937927 
	C261.506317,166.195953 252.561371,172.296692 247.560928,183.329269 
	C242.363388,194.796768 244.089600,205.890625 252.468277,215.375519 
	C260.454834,224.416565 270.828064,227.269043 282.355316,224.195206 
	C300.506683,219.355011 308.781067,201.372726 301.328949,182.374588 
M213.389679,282.064331 
	C224.748154,279.126434 231.214386,268.551147 228.509674,257.336121 
	C225.593475,245.244186 215.685989,239.286667 203.070648,242.039246 
	C193.220093,244.188568 186.594147,254.959930 188.629532,265.515137 
	C191.004562,277.831696 200.221527,284.240082 213.389679,282.064331 
M142.683701,273.636108 
	C146.222519,279.316467 151.566620,281.875458 158.019943,282.607330 
	C168.415634,283.786255 177.724045,276.856140 179.803040,266.328918 
	C181.924728,255.585541 175.829483,244.822617 166.127563,242.180908 
	C154.733307,239.078430 144.189636,244.221466 140.690033,254.696594 
	C138.586182,260.993896 139.143311,267.132111 142.683701,273.636108 
M90.988380,265.988068 
	C93.487946,276.288208 98.846260,281.250153 108.874115,282.550781 
	C119.455238,283.923157 129.367004,276.567719 130.948135,266.169922 
	C132.826584,253.816895 126.277725,243.970245 115.177895,241.831039 
	C101.908714,239.273743 88.926559,248.397736 90.988380,265.988068 
M248.087173,261.870117 
	C248.390182,267.400940 249.906174,268.972900 255.289413,268.987732 
	C269.767120,269.027618 284.245331,268.945587 298.722595,269.036499 
	C302.841248,269.062347 305.741364,267.607513 305.889099,263.289368 
	C306.038788,258.914825 303.061523,257.138489 299.058868,257.123383 
	C284.248505,257.067444 269.434174,256.945679 254.631348,257.285065 
	C252.489105,257.334167 250.401474,259.764679 248.087173,261.870117 
M303.703674,288.396942 
	C304.286835,286.004730 305.604736,283.472015 305.183990,281.271790 
	C304.921906,279.901306 302.045807,278.110992 300.318329,278.084106 
	C284.688263,277.840759 269.052643,277.910400 253.419022,277.975800 
	C250.039734,277.989929 248.239517,280.070709 248.050735,283.321594 
	C247.862167,286.568359 249.407669,288.750427 252.745834,289.308350 
	C254.212128,289.553467 255.717453,289.662445 257.205383,289.665466 
	C270.344696,289.692139 283.484314,289.719696 296.623230,289.642242 
	C298.753143,289.629669 300.880035,289.101868 303.703674,288.396942 
M248.486496,240.182861 
	C247.645920,246.160370 249.044113,248.273712 254.557480,248.320419 
	C269.502197,248.446976 284.448700,248.358749 299.394501,248.364929 
	C303.298096,248.366547 305.977234,246.724503 305.902710,242.582565 
	C305.829773,238.530365 303.251587,236.860977 299.294861,236.873581 
	C284.349213,236.921234 269.402100,236.805862 254.459076,237.011627 
	C252.603638,237.037186 250.769669,238.622437 248.486496,240.182861 
M289.817169,150.652283 
	C292.431763,147.363998 292.373260,144.261429 288.844482,141.754852 
	C285.548645,139.413757 279.634674,140.277039 277.549988,143.176468 
	C275.108582,146.572098 276.858856,151.421295 281.019012,151.883575 
	C283.680908,152.179367 286.459259,151.427063 289.817169,150.652283 
M310.189728,146.525040 
	C310.174622,143.111023 308.236328,140.949615 305.081818,140.931931 
	C302.308655,140.916397 298.999542,141.371811 296.883209,142.923340 
	C294.117889,144.950668 294.430817,148.269806 297.104889,150.705978 
	C300.874481,154.140167 308.215607,152.181366 310.189728,146.525040 
M261.211060,151.759781 
	C263.361023,151.870285 265.532227,152.223114 267.656189,152.037018 
	C271.237915,151.723175 273.480347,149.108368 272.616455,145.996475 
	C272.024200,143.863022 269.228546,141.680161 266.934052,140.838867 
	C263.681213,139.646179 260.055725,140.560150 258.411713,144.025238 
	C257.167236,146.648270 257.285980,149.614426 261.211060,151.759781 
M248.000870,140.612411 
	C241.018311,139.626877 237.348526,144.605789 239.479797,149.042450 
	C241.473267,153.192261 245.802185,152.611710 249.203506,151.829987 
	C251.064590,151.402252 253.308258,148.900070 253.771545,146.951141 
	C254.594955,143.487228 252.031509,141.558258 248.000870,140.612411 
z"/>
<path fill="#4E7592" opacity="1.000000" stroke="none" 
	d="
M447.986450,221.017242 
	C441.425354,226.791428 441.429810,228.736298 447.795166,234.108032 
	C449.702789,235.717880 451.664917,237.264694 453.631470,238.802780 
	C458.771301,242.822739 458.717072,244.449463 453.426788,248.594025 
	C450.678467,250.747147 447.963959,252.954620 445.362701,255.281281 
	C442.284454,258.034607 442.202789,260.946259 445.342438,263.786011 
	C446.452728,264.790253 447.427216,266.071686 448.717194,266.729736 
	C457.498138,271.209167 458.704407,278.607147 456.609894,288.004303 
	C452.786560,288.004303 448.689880,288.004303 444.593231,288.004272 
	C435.268555,288.004242 425.943878,288.018219 416.619232,287.999786 
	C408.728180,287.984192 405.090759,284.395966 405.073425,276.392242 
	C405.026978,254.912292 405.056274,233.432175 405.056122,211.952133 
	C405.056000,190.472092 405.042053,168.992020 405.063995,147.511993 
	C405.073120,138.591446 408.577393,135.082382 417.468658,135.082382 
	C430.122040,135.082382 442.775452,135.134247 455.428802,135.179581 
	C455.737579,135.180679 456.045715,135.365173 456.352722,135.468658 
	C459.060059,144.256210 457.636871,149.248825 450.842804,154.796844 
	C440.284607,163.418671 440.307373,164.384338 451.272400,173.001266 
	C459.503754,179.470001 459.507599,179.726746 451.468933,186.203720 
	C440.103790,195.360916 440.102234,196.012207 451.407684,205.038757 
	C452.448242,205.869553 453.470612,206.723038 454.510254,207.554932 
	C458.312805,210.597656 458.335907,212.755661 454.541321,215.853271 
	C452.479614,217.536346 450.368073,219.158386 447.986450,221.017242 
z"/>
<path fill="#D9825D" opacity="1.000000" stroke="none" 
	d="
M147.944153,459.906372 
	C143.463196,473.663177 139.053619,487.028351 134.544022,500.696686 
	C121.218559,500.696686 107.796852,500.696686 93.902405,500.696686 
	C94.167931,499.460724 94.319054,498.232605 94.696022,497.078247 
	C109.086052,453.013489 123.532196,408.966980 137.827621,364.871613 
	C138.812561,361.833527 140.070267,360.711517 143.313889,360.762756 
	C155.439819,360.954346 167.570587,360.839386 180.337555,360.839386 
	C169.433884,394.127014 158.724716,426.820892 147.944153,459.906372 
z"/>
<path fill="#D9825D" opacity="1.000000" stroke="none" 
	d="
M274.162537,412.755646 
	C283.830444,442.239502 293.381897,471.339050 303.117096,500.998383 
	C289.842010,500.998383 277.069794,501.120544 264.308075,500.810089 
	C263.027008,500.778900 261.202972,498.326416 260.651794,496.660004 
	C247.700043,457.501404 234.885361,418.297485 222.055801,379.098480 
	C220.153015,373.284760 218.301834,367.454163 216.171692,360.839233 
	C223.394485,360.839233 230.119110,360.839142 236.843735,360.839233 
	C242.341660,360.839294 247.848175,361.023651 253.334137,360.767578 
	C256.406799,360.624115 257.655212,361.764008 258.558655,364.619843 
	C263.605621,380.573547 268.861572,396.461151 274.162537,412.755646 
z"/>
<path fill="#88B2C7" opacity="1.000000" stroke="none" 
	d="
M144.000702,348.963684 
	C137.540375,348.963684 131.579895,348.963684 125.024239,348.963684 
	C125.024239,342.274902 125.024239,336.003601 125.024239,329.732300 
	C125.024239,323.439667 125.024239,317.147034 125.024239,310.535461 
	C173.853973,310.535461 222.224487,310.535461 270.895203,310.535461 
	C270.895203,323.273468 270.895203,335.838196 270.895203,348.963684 
	C228.674561,348.963684 186.587555,348.963684 144.000702,348.963684 
z"/>
<path fill="#375D80" opacity="1.000000" stroke="none" 
	d="
M220.334991,53.602966 
	C226.398834,28.502520 245.607910,12.956149 270.114807,12.991206 
	C295.549591,13.027591 317.085022,32.930664 319.150940,58.310524 
	C321.604889,88.457291 298.429779,113.409653 268.380188,112.974838 
	C240.435928,112.570480 217.807617,87.897919 219.786392,59.989628 
	C219.927612,57.997894 220.078766,56.006870 220.334991,53.602966 
M250.907593,29.298521 
	C233.374496,39.758526 226.581146,59.041439 233.959106,77.406784 
	C240.819092,94.482773 259.784454,104.751930 277.344147,100.554527 
	C292.944397,96.825500 303.245911,87.142342 306.890320,71.438385 
	C310.601868,55.445187 305.374908,41.987686 292.440216,32.213665 
	C279.789551,22.654266 265.835144,22.015921 250.907593,29.298521 
z"/>
<path fill="#89B4C9" opacity="1.000000" stroke="none" 
	d="
M386.540222,160.506058 
	C388.853119,159.574066 390.834839,158.843063 393.104767,158.005753 
	C393.104767,193.812073 393.104767,229.207108 393.104767,266.011292 
	C385.434479,262.112000 378.354126,258.755493 371.576385,254.870911 
	C370.147980,254.052231 369.118835,251.301437 369.107025,249.433334 
	C368.947235,224.145355 368.921570,198.855331 369.147003,173.568359 
	C369.165192,171.526550 370.772034,168.719269 372.500031,167.625992 
	C376.805420,164.901962 381.606812,162.961838 386.540222,160.506058 
z"/>
<path fill="#375D80" opacity="1.000000" stroke="none" 
	d="
M153.291733,47.462261 
	C169.679306,53.943977 178.752411,69.368927 175.748886,85.187851 
	C172.670288,101.402214 158.468918,113.154434 142.153534,112.989380 
	C123.984505,112.805573 108.991081,97.596626 108.992371,79.351547 
	C108.993690,60.867893 123.684494,45.953613 142.111725,45.968792 
	C145.717148,45.971760 149.321869,46.830994 153.291733,47.462261 
M118.986900,74.944336 
	C119.166000,78.739845 118.719543,82.694183 119.635727,86.302544 
	C123.056084,99.773491 136.145172,106.632812 150.116592,102.671387 
	C162.697556,99.104202 169.591125,84.911415 165.340027,71.328705 
	C162.021576,60.725914 153.621582,54.869484 141.920685,55.000874 
	C130.335159,55.130966 122.490913,61.671860 118.986900,74.944336 
z"/>
<path fill="#CE6D50" opacity="1.000000" stroke="none" 
	d="
M224.611465,439.285065 
	C228.210907,438.770935 229.877670,440.030884 230.774597,443.187500 
	C232.621338,449.686890 234.832382,456.082764 236.987885,462.816040 
	C211.130875,462.816040 185.718460,462.816040 159.459839,462.816040 
	C161.897720,455.303131 164.072021,448.092804 166.706039,441.054565 
	C167.085480,440.040649 169.674271,439.370453 171.246109,439.360016 
	C188.882996,439.242310 206.520966,439.285156 224.611465,439.285065 
z"/>
<path fill="#FEB93E" opacity="1.000000" stroke="none" 
	d="
M357.050323,206.000031 
	C357.050323,217.449203 357.050323,228.398376 357.050323,239.673370 
	C349.110779,239.673370 341.385895,239.673370 333.292328,239.673370 
	C333.292328,221.146240 333.292328,202.471024 333.292328,183.440918 
	C340.870758,183.440918 348.587158,183.440918 357.050323,183.440918 
	C357.050323,190.703262 357.050323,198.101639 357.050323,206.000031 
z"/>
<path fill="#000103" opacity="1.000000" stroke="none" 
	d="
M91.147377,162.073730 
	C91.151154,159.587875 91.086281,157.586960 91.170265,155.592300 
	C91.570358,146.089645 96.788406,140.792526 106.258537,140.771240 
	C141.890274,140.691132 177.522415,140.689972 213.154160,140.768250 
	C223.095673,140.790100 228.070633,145.946609 228.101761,155.955307 
	C228.158188,174.104111 228.165619,192.253387 228.096359,210.402100 
	C228.059692,220.011963 222.989441,225.197922 213.282928,225.222672 
	C177.651245,225.313538 142.019073,225.314346 106.387390,225.224869 
	C96.474998,225.199982 91.248604,219.727127 91.178551,209.515640 
	C91.071182,193.864944 91.148430,178.212982 91.147377,162.073730 
M103.019531,155.918732 
	C103.018929,173.573227 103.075928,191.228073 102.965477,208.881882 
	C102.945206,212.121750 103.666092,213.845856 107.328705,213.838638 
	C142.304459,213.769699 177.280441,213.781311 212.256302,213.826523 
	C215.157578,213.830276 216.575180,212.792328 216.568634,209.771378 
	C216.530060,191.950439 216.529221,174.129303 216.572311,156.308365 
	C216.579453,153.349823 215.333237,152.167786 212.355530,152.171967 
	C177.379700,152.221100 142.403610,152.168610 107.428375,152.320343 
	C105.959381,152.326721 104.497925,154.068863 103.019531,155.918732 
z"/>
<path fill="#020205" opacity="1.000000" stroke="none" 
	d="
M301.528046,182.702713 
	C308.781067,201.372726 300.506683,219.355011 282.355316,224.195206 
	C270.828064,227.269043 260.454834,224.416565 252.468277,215.375519 
	C244.089600,205.890625 242.363388,194.796768 247.560928,183.329269 
	C252.561371,172.296692 261.506317,166.195953 273.880432,165.937927 
	C286.410156,165.676620 295.487976,171.370300 301.528046,182.702713 
M257.012329,192.937820 
	C256.999481,193.767761 256.971588,194.597763 256.976105,195.427612 
	C257.024231,204.269592 261.930084,211.146606 269.484680,212.970428 
	C278.477203,215.141388 286.425751,211.885605 290.255341,204.462570 
	C294.183868,196.847824 292.550629,187.123825 286.429779,181.686142 
	C276.285767,172.674347 261.389862,177.948181 257.012329,192.937820 
z"/>
<path fill="#020205" opacity="1.000000" stroke="none" 
	d="
M212.985321,282.116211 
	C200.221527,284.240082 191.004562,277.831696 188.629532,265.515137 
	C186.594147,254.959930 193.220093,244.188568 203.070648,242.039246 
	C215.685989,239.286667 225.593475,245.244186 228.509674,257.336121 
	C231.214386,268.551147 224.748154,279.126434 212.985321,282.116211 
M213.676300,269.314911 
	C217.384995,265.510223 218.332108,261.063599 216.039276,257.315582 
	C213.769974,253.606018 210.338394,252.344055 206.208542,253.504868 
	C201.298096,254.885071 198.706451,260.171600 200.376144,264.990295 
	C202.144791,270.094574 206.895447,271.884583 213.676300,269.314911 
z"/>
<path fill="#020205" opacity="1.000000" stroke="none" 
	d="
M142.476807,273.324829 
	C139.143311,267.132111 138.586182,260.993896 140.690033,254.696594 
	C144.189636,244.221466 154.733307,239.078430 166.127563,242.180908 
	C175.829483,244.822617 181.924728,255.585541 179.803040,266.328918 
	C177.724045,276.856140 168.415634,283.786255 158.019943,282.607330 
	C151.566620,281.875458 146.222519,279.316467 142.476807,273.324829 
M167.664612,257.985443 
	C165.597900,254.156082 162.048904,251.987625 158.206787,253.470169 
	C155.399551,254.553391 152.207581,257.592957 151.519211,260.344025 
	C150.890350,262.857147 152.739594,266.722290 154.682571,268.963531 
	C157.163727,271.825623 161.040054,271.584564 164.324127,269.621124 
	C168.576767,267.078613 168.911636,263.054901 167.664612,257.985443 
z"/>
<path fill="#010204" opacity="1.000000" stroke="none" 
	d="
M90.958557,265.548767 
	C88.926559,248.397736 101.908714,239.273743 115.177895,241.831039 
	C126.277725,243.970245 132.826584,253.816895 130.948135,266.169922 
	C129.367004,276.567719 119.455238,283.923157 108.874115,282.550781 
	C98.846260,281.250153 93.487946,276.288208 90.958557,265.548767 
M103.122032,266.127991 
	C106.982948,271.152283 111.437744,272.315948 115.856812,269.454529 
	C119.500412,267.095245 120.740936,261.674469 118.579529,257.556915 
	C116.627647,253.838501 112.078888,252.192459 107.958611,253.713623 
	C103.153503,255.487625 101.352600,259.653839 103.122032,266.127991 
z"/>
<path fill="#010204" opacity="1.000000" stroke="none" 
	d="
M248.187866,261.481628 
	C250.401474,259.764679 252.489105,257.334167 254.631348,257.285065 
	C269.434174,256.945679 284.248505,257.067444 299.058868,257.123383 
	C303.061523,257.138489 306.038788,258.914825 305.889099,263.289368 
	C305.741364,267.607513 302.841248,269.062347 298.722595,269.036499 
	C284.245331,268.945587 269.767120,269.027618 255.289413,268.987732 
	C249.906174,268.972900 248.390182,267.400940 248.187866,261.481628 
z"/>
<path fill="#030407" opacity="1.000000" stroke="none" 
	d="
M303.355988,288.604584 
	C300.880035,289.101868 298.753143,289.629669 296.623230,289.642242 
	C283.484314,289.719696 270.344696,289.692139 257.205383,289.665466 
	C255.717453,289.662445 254.212128,289.553467 252.745834,289.308350 
	C249.407669,288.750427 247.862167,286.568359 248.050735,283.321594 
	C248.239517,280.070709 250.039734,277.989929 253.419022,277.975800 
	C269.052643,277.910400 284.688263,277.840759 300.318329,278.084106 
	C302.045807,278.110992 304.921906,279.901306 305.183990,281.271790 
	C305.604736,283.472015 304.286835,286.004730 303.355988,288.604584 
z"/>
<path fill="#000103" opacity="1.000000" stroke="none" 
	d="
M248.706116,239.833908 
	C250.769669,238.622437 252.603638,237.037186 254.459076,237.011627 
	C269.402100,236.805862 284.349213,236.921234 299.294861,236.873581 
	C303.251587,236.860977 305.829773,238.530365 305.902710,242.582565 
	C305.977234,246.724503 303.298096,248.366547 299.394501,248.364929 
	C284.448700,248.358749 269.502197,248.446976 254.557480,248.320419 
	C249.044113,248.273712 247.645920,246.160370 248.706116,239.833908 
z"/>
<path fill="#030407" opacity="1.000000" stroke="none" 
	d="
M289.501282,150.898438 
	C286.459259,151.427063 283.680908,152.179367 281.019012,151.883575 
	C276.858856,151.421295 275.108582,146.572098 277.549988,143.176468 
	C279.634674,140.277039 285.548645,139.413757 288.844482,141.754852 
	C292.373260,144.261429 292.431763,147.363998 289.501282,150.898438 
z"/>
<path fill="#030407" opacity="1.000000" stroke="none" 
	d="
M310.161133,146.934784 
	C308.215607,152.181366 300.874481,154.140167 297.104889,150.705978 
	C294.430817,148.269806 294.117889,144.950668 296.883209,142.923340 
	C298.999542,141.371811 302.308655,140.916397 305.081818,140.931931 
	C308.236328,140.949615 310.174622,143.111023 310.161133,146.934784 
z"/>
<path fill="#020205" opacity="1.000000" stroke="none" 
	d="
M260.840057,151.555420 
	C257.285980,149.614426 257.167236,146.648270 258.411713,144.025238 
	C260.055725,140.560150 263.681213,139.646179 266.934052,140.838867 
	C269.228546,141.680161 272.024200,143.863022 272.616455,145.996475 
	C273.480347,149.108368 271.237915,151.723175 267.656189,152.037018 
	C265.532227,152.223114 263.361023,151.870285 260.840057,151.555420 
z"/>
<path fill="#020205" opacity="1.000000" stroke="none" 
	d="
M248.370300,140.704529 
	C252.031509,141.558258 254.594955,143.487228 253.771545,146.951141 
	C253.308258,148.900070 251.064590,151.402252 249.203506,151.829987 
	C245.802185,152.611710 241.473267,153.192261 239.479797,149.042450 
	C237.348526,144.605789 241.018311,139.626877 248.370300,140.704529 
z"/>
<path fill="#010204" opacity="1.000000" stroke="none" 
	d="
M251.239899,29.132687 
	C265.835144,22.015921 279.789551,22.654266 292.440216,32.213665 
	C305.374908,41.987686 310.601868,55.445187 306.890320,71.438385 
	C303.245911,87.142342 292.944397,96.825500 277.344147,100.554527 
	C259.784454,104.751930 240.819092,94.482773 233.959106,77.406784 
	C226.581146,59.041439 233.374496,39.758526 251.239899,29.132687 
M253.635239,41.022011 
	C252.415268,42.153347 251.113617,43.209248 249.988113,44.427837 
	C240.070358,55.165928 241.092941,74.027008 252.079346,83.560585 
	C262.727814,92.800919 281.040039,91.359604 289.863312,80.586685 
	C297.973572,70.684341 297.874542,54.551235 289.645050,45.028606 
	C281.038483,35.069637 266.714142,33.294037 253.635239,41.022011 
z"/>
<path fill="#010204" opacity="1.000000" stroke="none" 
	d="
M119.020279,74.506386 
	C122.490913,61.671860 130.335159,55.130966 141.920685,55.000874 
	C153.621582,54.869484 162.021576,60.725914 165.340027,71.328705 
	C169.591125,84.911415 162.697556,99.104202 150.116592,102.671387 
	C136.145172,106.632812 123.056084,99.773491 119.635727,86.302544 
	C118.719543,82.694183 119.166000,78.739845 119.020279,74.506386 
M143.341751,66.970146 
	C135.403748,67.163109 130.498306,71.530281 130.101746,78.757332 
	C129.728378,85.561821 134.832901,91.375320 141.661621,91.922737 
	C148.246475,92.450623 154.047882,87.715759 154.939728,81.085754 
	C155.888824,74.030098 151.615967,68.432587 143.341751,66.970146 
z"/>
<path fill="#87B2C6" opacity="1.000000" stroke="none" 
	d="
M103.026245,155.460556 
	C104.497925,154.068863 105.959381,152.326721 107.428375,152.320343 
	C142.403610,152.168610 177.379700,152.221100 212.355530,152.171967 
	C215.333237,152.167786 216.579453,153.349823 216.572311,156.308365 
	C216.529221,174.129303 216.530060,191.950439 216.568634,209.771378 
	C216.575180,212.792328 215.157578,213.830276 212.256302,213.826523 
	C177.280441,213.781311 142.304459,213.769699 107.328705,213.838638 
	C103.666092,213.845856 102.945206,212.121750 102.965477,208.881882 
	C103.075928,191.228073 103.018929,173.573227 103.026245,155.460556 
z"/>
<path fill="#88B2C7" opacity="1.000000" stroke="none" 
	d="
M257.038757,192.510178 
	C261.389862,177.948181 276.285767,172.674347 286.429779,181.686142 
	C292.550629,187.123825 294.183868,196.847824 290.255341,204.462570 
	C286.425751,211.885605 278.477203,215.141388 269.484680,212.970428 
	C261.930084,211.146606 257.024231,204.269592 256.976105,195.427612 
	C256.971588,194.597763 256.999481,193.767761 257.038757,192.510178 
z"/>
<path fill="#87B1C6" opacity="1.000000" stroke="none" 
	d="
M213.353806,269.536804 
	C206.895447,271.884583 202.144791,270.094574 200.376144,264.990295 
	C198.706451,260.171600 201.298096,254.885071 206.208542,253.504868 
	C210.338394,252.344055 213.769974,253.606018 216.039276,257.315582 
	C218.332108,261.063599 217.384995,265.510223 213.353806,269.536804 
z"/>
<path fill="#86B0C5" opacity="1.000000" stroke="none" 
	d="
M167.802795,258.336548 
	C168.911636,263.054901 168.576767,267.078613 164.324127,269.621124 
	C161.040054,271.584564 157.163727,271.825623 154.682571,268.963531 
	C152.739594,266.722290 150.890350,262.857147 151.519211,260.344025 
	C152.207581,257.592957 155.399551,254.553391 158.206787,253.470169 
	C162.048904,251.987625 165.597900,254.156082 167.802795,258.336548 
z"/>
<path fill="#85AFC3" opacity="1.000000" stroke="none" 
	d="
M103.019699,265.752014 
	C101.352600,259.653839 103.153503,255.487625 107.958611,253.713623 
	C112.078888,252.192459 116.627647,253.838501 118.579529,257.556915 
	C120.740936,261.674469 119.500412,267.095245 115.856812,269.454529 
	C111.437744,272.315948 106.982948,271.152283 103.019699,265.752014 
z"/>
<path fill="#95A8BA" opacity="1.000000" stroke="none" 
	d="
M253.950653,40.832565 
	C266.714142,33.294037 281.038483,35.069637 289.645050,45.028606 
	C297.874542,54.551235 297.973572,70.684341 289.863312,80.586685 
	C281.040039,91.359604 262.727814,92.800919 252.079346,83.560585 
	C241.092941,74.027008 240.070358,55.165928 249.988113,44.427837 
	C251.113617,43.209248 252.415268,42.153347 253.950653,40.832565 
z"/>
<path fill="#94A7B9" opacity="1.000000" stroke="none" 
	d="
M143.761566,66.981171 
	C151.615967,68.432587 155.888824,74.030098 154.939728,81.085754 
	C154.047882,87.715759 148.246475,92.450623 141.661621,91.922737 
	C134.832901,91.375320 129.728378,85.561821 130.101746,78.757332 
	C130.498306,71.530281 135.403748,67.163109 143.761566,66.981171 
z"/>
</svg>