<svg version="1.1" id="Layer_1" xmlns="http://www.w3.org/2000/svg" xmlns:xlink="http://www.w3.org/1999/xlink" x="0px" y="0px"
	 width="100%" viewBox="0 0 512 512" enable-background="new 0 0 512 512" xml:space="preserve">
<path fill="#000001" opacity="1.000000" stroke="none" 
	d="
M513.000000,186.000000 
	C513.000000,295.306763 513.000000,404.113525 513.000000,512.960144 
	C342.401550,512.960144 171.803116,512.960144 1.102331,512.960144 
	C1.102331,342.443268 1.102331,171.886444 1.102331,1.164816 
	C171.666534,1.164816 342.333252,1.164816 513.000000,1.164816 
	C513.000000,62.530186 513.000000,124.015091 513.000000,186.000000 
M42.234005,33.134331 
	C26.557318,34.886383 17.065916,45.401566 17.007397,61.113468 
	C16.982018,67.927071 17.002552,74.740837 17.002411,81.554527 
	C17.002277,87.975922 17.002380,94.397316 17.002380,100.909683 
	C22.429276,100.909683 27.220211,100.909683 32.933277,101.082245 
	C186.699265,101.094337 340.465240,101.106697 494.231232,101.111397 
	C495.018341,101.111427 495.805481,101.003304 497.002502,100.915688 
	C497.002502,91.169937 497.021301,81.714561 496.995178,72.259308 
	C496.980469,66.930000 497.354126,61.547604 496.747253,56.281967 
	C495.115692,42.125160 483.626801,33.042957 467.825012,33.041771 
	C328.052673,33.031273 188.280334,33.034367 48.507992,33.045780 
	C46.682034,33.045929 44.856091,33.206619 42.234005,33.134331 
M43.951630,480.902924 
	C45.284386,480.923584 46.617138,480.962311 47.949894,480.962341 
	C187.768768,480.965027 327.587646,480.968658 467.406525,480.960205 
	C486.322357,480.959076 497.000397,470.185150 497.000946,451.155884 
	C497.004181,341.667206 497.002594,232.178513 497.002625,122.689835 
	C497.002625,120.924187 497.002625,119.158539 497.002625,117.123695 
	C494.919830,117.123695 493.446716,117.123703 491.973602,117.123703 
	C340.155975,117.123734 188.338318,117.123146 36.520676,117.132492 
	C35.027100,117.132584 33.533535,117.264099 31.118258,117.143646 
	C26.511568,117.143646 21.904881,117.143646 16.995161,117.143646 
	C16.995161,119.329025 16.995159,120.971786 16.995161,122.614555 
	C16.995220,232.280823 16.995102,341.947113 16.997084,451.613373 
	C16.997110,453.113220 16.960621,454.616699 17.047407,456.112305 
	C17.839273,469.758972 29.252758,480.552063 43.951630,480.902924 
z"/>
<path fill="#EAF4FB" opacity="1.000000" stroke="none" 
	d="
M32.039963,117.334259 
	C33.533535,117.264099 35.027100,117.132584 36.520676,117.132492 
	C188.338318,117.123146 340.155975,117.123734 491.973602,117.123703 
	C493.446716,117.123703 494.919830,117.123695 497.002625,117.123695 
	C497.002625,119.158539 497.002625,120.924187 497.002625,122.689835 
	C497.002594,232.178513 497.004181,341.667206 497.000946,451.155884 
	C497.000397,470.185150 486.322357,480.959076 467.406525,480.960205 
	C327.587646,480.968658 187.768768,480.965027 47.949894,480.962341 
	C46.617138,480.962311 45.284386,480.923584 43.454849,480.476624 
	C36.549023,472.739105 32.048782,464.508301 32.044727,454.560760 
	C31.998903,342.151917 32.029701,229.743088 32.039963,117.334259 
M233.829315,377.786194 
	C239.884979,378.833191 245.908661,380.523010 252.001343,380.826263 
	C304.341919,383.431549 344.478729,340.142639 338.148804,288.160889 
	C332.540863,242.107880 287.702362,209.456100 242.233429,218.314484 
	C204.592346,225.647842 177.067139,256.815033 175.119965,294.308014 
	C173.138062,332.469543 196.466888,365.946136 233.829315,377.786194 
M431.421539,384.948120 
	C456.785431,331.305328 458.037659,277.006592 435.573181,222.184662 
	C432.563019,214.838699 428.625397,207.852448 424.832336,200.854080 
	C421.849792,195.351166 417.248352,193.831039 412.932770,196.418427 
	C408.755493,198.922897 408.021149,203.315918 410.899506,208.591721 
	C411.297241,209.320740 411.699005,210.047607 412.104401,210.772400 
	C432.464050,247.172333 439.581390,285.968933 433.188171,327.213776 
	C429.790802,349.131226 422.357422,369.601959 411.241516,388.772430 
	C407.891022,394.550659 408.641052,399.254547 413.117828,401.752075 
	C417.585236,404.244385 421.809753,402.485687 425.183411,396.578644 
	C427.240662,392.976593 429.127441,389.277191 431.421539,384.948120 
M85.664764,207.118362 
	C53.760345,270.425018 54.673405,333.293854 88.260628,395.684967 
	C91.880646,402.409454 96.240227,404.347748 100.834114,401.793274 
	C105.637474,399.122253 106.018707,394.521606 102.016273,387.532471 
	C101.851044,387.243958 101.686584,386.954926 101.526443,386.663574 
	C78.192261,344.205872 72.533943,299.515350 84.686272,252.611801 
	C88.665604,237.253052 94.861885,222.798126 102.844200,209.089630 
	C106.075294,203.540680 105.376442,199.062302 101.091545,196.448532 
	C96.686691,193.761581 92.327423,195.472702 88.931122,201.247238 
	C87.921021,202.964645 86.966682,204.714874 85.664764,207.118362 
M397.930115,293.706696 
	C398.496033,309.473602 396.908295,325.071045 391.754303,339.949219 
	C388.081207,350.552490 382.901703,360.643524 378.220764,370.883759 
	C376.049286,375.634155 376.769775,379.918304 380.626312,382.293213 
	C384.607025,384.744568 389.223389,383.396149 392.110657,378.921997 
	C392.560394,378.225006 392.950806,377.488739 393.351166,376.761017 
	C415.404388,336.676941 420.025482,294.674286 406.163330,251.071915 
	C402.623352,239.937119 396.957794,229.442810 391.839447,218.861938 
	C389.705963,214.451508 384.564240,213.418793 380.736664,215.717209 
	C376.959351,217.985443 375.888275,222.212082 378.004486,226.603699 
	C378.436401,227.500061 378.952789,228.356644 379.446869,229.222046 
	C390.693970,248.921341 396.671143,270.150604 397.930115,293.706696 
M124.397873,251.010132 
	C127.989883,243.351944 131.445618,235.625824 135.218719,228.057938 
	C138.039932,222.399292 137.410645,217.923203 132.948013,215.509399 
	C128.777679,213.253693 124.164719,214.846802 121.375168,219.972153 
	C92.718536,272.624054 92.683334,325.331055 121.330322,377.997986 
	C124.212753,383.297302 129.134766,384.887817 133.309372,382.334351 
	C137.484085,379.780792 138.202805,375.427704 135.215668,370.109344 
	C113.976822,332.295288 110.295792,292.842804 124.397873,251.010132 
M153.550171,300.487610 
	C153.341034,281.243378 158.127213,263.337311 167.730011,246.655502 
	C170.500305,241.843018 169.366608,237.309738 165.291702,234.914764 
	C161.167358,232.490677 156.605759,233.813797 153.960373,238.647202 
	C131.916183,278.924561 131.947006,319.260040 154.084473,359.465759 
	C155.203613,361.498352 158.006348,363.710388 160.117035,363.805756 
	C162.657990,363.920532 166.573349,362.514862 167.572784,360.572937 
	C168.837402,358.115784 168.861481,353.851868 167.520203,351.411865 
	C158.940353,335.803955 153.962585,319.316406 153.550171,300.487610 
M351.942688,340.321503 
	C350.232483,343.732025 348.581360,347.173798 346.798798,350.546082 
	C343.752899,356.308472 344.364166,360.605591 348.696136,363.142059 
	C353.205444,365.782288 357.594452,364.025055 360.840973,358.198578 
	C375.525452,331.844604 380.158752,303.684906 373.592651,274.371246 
	C370.876923,262.247284 365.131439,250.746887 360.220825,239.193741 
	C357.899750,233.733047 353.084534,232.422440 348.793457,234.898697 
	C344.546173,237.349686 343.694397,241.793564 346.466614,247.047073 
	C346.698486,247.486481 346.942535,247.919434 347.178741,248.356583 
	C363.187592,277.983276 364.790253,308.401123 351.942688,340.321503 
z"/>
<path fill="#0592FB" opacity="1.000000" stroke="none" 
	d="
M43.030140,33.292381 
	C44.856091,33.206619 46.682034,33.045929 48.507992,33.045780 
	C188.280334,33.034367 328.052673,33.031273 467.825012,33.041771 
	C483.626801,33.042957 495.115692,42.125160 496.747253,56.281967 
	C497.354126,61.547604 496.980469,66.930000 496.995178,72.259308 
	C497.021301,81.714561 497.002502,91.169937 497.002502,100.915688 
	C495.805481,101.003304 495.018341,101.111427 494.231232,101.111397 
	C340.465240,101.106697 186.699265,101.094337 32.469753,100.533417 
	C32.005074,90.204918 31.942221,80.424690 32.028591,70.645782 
	C32.072296,65.697456 32.388599,60.751629 32.576542,55.804478 
	C32.917118,46.839764 38.654278,40.382458 43.030140,33.292381 
M434.499817,75.080078 
	C440.831085,75.067848 447.167511,75.207649 453.491852,74.992111 
	C458.015503,74.837944 460.991089,71.601166 461.097687,67.333710 
	C461.204010,63.077168 458.362366,59.770550 453.932587,59.171864 
	C452.457489,58.972504 450.938629,59.076702 449.439758,59.076633 
	C377.461334,59.073296 305.482941,59.073059 233.504517,59.074711 
	C225.366257,59.074898 221.631714,61.624836 221.655838,67.144844 
	C221.679886,72.646667 225.319443,75.078751 233.559906,75.078964 
	C300.206573,75.080711 366.853271,75.080032 434.499817,75.080078 
M194.515259,63.279900 
	C191.507858,52.010212 182.345474,45.060242 172.041718,46.232983 
	C161.350342,47.449841 153.288116,56.092617 153.039764,66.603203 
	C152.758026,78.527313 162.484253,88.248573 174.477982,88.030502 
	C186.887680,87.804871 195.594574,77.504860 194.515259,63.279900 
M66.340225,47.579239 
	C56.350353,52.115601 51.488876,60.590309 53.060768,70.728462 
	C54.402100,79.379601 62.065014,86.775444 70.865738,87.912895 
	C80.069519,89.102432 89.118362,84.147812 92.775703,75.625908 
	C96.157745,67.745506 95.168037,60.195442 89.610031,53.688248 
	C83.632912,46.690350 75.910553,44.717850 66.340225,47.579239 
M127.688004,46.619442 
	C112.202667,44.330730 99.705849,57.590389 103.575935,72.203369 
	C106.243561,82.275986 115.164932,88.691612 125.532196,87.992767 
	C135.490875,87.321457 143.656235,79.209564 144.764069,68.886765 
	C145.831879,58.937111 139.172012,49.908218 127.688004,46.619442 
z"/>
<path fill="#D2DBE1" opacity="1.000000" stroke="none" 
	d="
M31.579109,117.238953 
	C32.029701,229.743088 31.998903,342.151917 32.044727,454.560760 
	C32.048782,464.508301 36.549023,472.739105 42.996971,480.382019 
	C29.252758,480.552063 17.839273,469.758972 17.047407,456.112305 
	C16.960621,454.616699 16.997110,453.113220 16.997084,451.613373 
	C16.995102,341.947113 16.995220,232.280823 16.995161,122.614555 
	C16.995159,120.971786 16.995161,119.329025 16.995161,117.143646 
	C21.904881,117.143646 26.511568,117.143646 31.579109,117.238953 
z"/>
<path fill="#0585E4" opacity="1.000000" stroke="none" 
	d="
M42.632072,33.213356 
	C38.654278,40.382458 32.917118,46.839764 32.576542,55.804478 
	C32.388599,60.751629 32.072296,65.697456 32.028591,70.645782 
	C31.942221,80.424690 32.005074,90.204918 32.008690,100.447144 
	C27.220211,100.909683 22.429276,100.909683 17.002380,100.909683 
	C17.002380,94.397316 17.002277,87.975922 17.002411,81.554527 
	C17.002552,74.740837 16.982018,67.927071 17.007397,61.113468 
	C17.065916,45.401566 26.557318,34.886383 42.632072,33.213356 
z"/>
<path fill="#030203" opacity="1.000000" stroke="none" 
	d="
M233.455750,377.634674 
	C196.466888,365.946136 173.138062,332.469543 175.119965,294.308014 
	C177.067139,256.815033 204.592346,225.647842 242.233429,218.314484 
	C287.702362,209.456100 332.540863,242.107880 338.148804,288.160889 
	C344.478729,340.142639 304.341919,383.431549 252.001343,380.826263 
	C245.908661,380.523010 239.884979,378.833191 233.455750,377.634674 
M272.493256,363.136932 
	C308.463745,354.237732 329.696899,319.081665 320.971527,282.870789 
	C312.637848,248.285522 277.108856,226.613800 242.132339,234.781082 
	C206.757538,243.041367 184.541107,278.113159 192.527145,313.089935 
	C200.813812,349.383453 235.408417,371.340759 272.493256,363.136932 
z"/>
<path fill="#040404" opacity="1.000000" stroke="none" 
	d="
M431.256165,385.284821 
	C429.127441,389.277191 427.240662,392.976593 425.183411,396.578644 
	C421.809753,402.485687 417.585236,404.244385 413.117828,401.752075 
	C408.641052,399.254547 407.891022,394.550659 411.241516,388.772430 
	C422.357422,369.601959 429.790802,349.131226 433.188171,327.213776 
	C439.581390,285.968933 432.464050,247.172333 412.104401,210.772400 
	C411.699005,210.047607 411.297241,209.320740 410.899506,208.591721 
	C408.021149,203.315918 408.755493,198.922897 412.932770,196.418427 
	C417.248352,193.831039 421.849792,195.351166 424.832336,200.854080 
	C428.625397,207.852448 432.563019,214.838699 435.573181,222.184662 
	C458.037659,277.006592 456.785431,331.305328 431.256165,385.284821 
z"/>
<path fill="#040404" opacity="1.000000" stroke="none" 
	d="
M85.825775,206.784210 
	C86.966682,204.714874 87.921021,202.964645 88.931122,201.247238 
	C92.327423,195.472702 96.686691,193.761581 101.091545,196.448532 
	C105.376442,199.062302 106.075294,203.540680 102.844200,209.089630 
	C94.861885,222.798126 88.665604,237.253052 84.686272,252.611801 
	C72.533943,299.515350 78.192261,344.205872 101.526443,386.663574 
	C101.686584,386.954926 101.851044,387.243958 102.016273,387.532471 
	C106.018707,394.521606 105.637474,399.122253 100.834114,401.793274 
	C96.240227,404.347748 91.880646,402.409454 88.260628,395.684967 
	C54.673405,333.293854 53.760345,270.425018 85.825775,206.784210 
z"/>
<path fill="#040404" opacity="1.000000" stroke="none" 
	d="
M397.914612,293.233032 
	C396.671143,270.150604 390.693970,248.921341 379.446869,229.222046 
	C378.952789,228.356644 378.436401,227.500061 378.004486,226.603699 
	C375.888275,222.212082 376.959351,217.985443 380.736664,215.717209 
	C384.564240,213.418793 389.705963,214.451508 391.839447,218.861938 
	C396.957794,229.442810 402.623352,239.937119 406.163330,251.071915 
	C420.025482,294.674286 415.404388,336.676941 393.351166,376.761017 
	C392.950806,377.488739 392.560394,378.225006 392.110657,378.921997 
	C389.223389,383.396149 384.607025,384.744568 380.626312,382.293213 
	C376.769775,379.918304 376.049286,375.634155 378.220764,370.883759 
	C382.901703,360.643524 388.081207,350.552490 391.754303,339.949219 
	C396.908295,325.071045 398.496033,309.473602 397.914612,293.233032 
z"/>
<path fill="#040404" opacity="1.000000" stroke="none" 
	d="
M124.258881,251.377869 
	C110.295792,292.842804 113.976822,332.295288 135.215668,370.109344 
	C138.202805,375.427704 137.484085,379.780792 133.309372,382.334351 
	C129.134766,384.887817 124.212753,383.297302 121.330322,377.997986 
	C92.683334,325.331055 92.718536,272.624054 121.375168,219.972153 
	C124.164719,214.846802 128.777679,213.253693 132.948013,215.509399 
	C137.410645,217.923203 138.039932,222.399292 135.218719,228.057938 
	C131.445618,235.625824 127.989883,243.351944 124.258881,251.377869 
z"/>
<path fill="#040404" opacity="1.000000" stroke="none" 
	d="
M153.576111,300.982330 
	C153.962585,319.316406 158.940353,335.803955 167.520203,351.411865 
	C168.861481,353.851868 168.837402,358.115784 167.572784,360.572937 
	C166.573349,362.514862 162.657990,363.920532 160.117035,363.805756 
	C158.006348,363.710388 155.203613,361.498352 154.084473,359.465759 
	C131.947006,319.260040 131.916183,278.924561 153.960373,238.647202 
	C156.605759,233.813797 161.167358,232.490677 165.291702,234.914764 
	C169.366608,237.309738 170.500305,241.843018 167.730011,246.655502 
	C158.127213,263.337311 153.341034,281.243378 153.576111,300.982330 
z"/>
<path fill="#040404" opacity="1.000000" stroke="none" 
	d="
M352.065857,339.960205 
	C364.790253,308.401123 363.187592,277.983276 347.178741,248.356583 
	C346.942535,247.919434 346.698486,247.486481 346.466614,247.047073 
	C343.694397,241.793564 344.546173,237.349686 348.793457,234.898697 
	C353.084534,232.422440 357.899750,233.733047 360.220825,239.193741 
	C365.131439,250.746887 370.876923,262.247284 373.592651,274.371246 
	C380.158752,303.684906 375.525452,331.844604 360.840973,358.198578 
	C357.594452,364.025055 353.205444,365.782288 348.696136,363.142059 
	C344.364166,360.605591 343.752899,356.308472 346.798798,350.546082 
	C348.581360,347.173798 350.232483,343.732025 352.065857,339.960205 
z"/>
<path fill="#000102" opacity="1.000000" stroke="none" 
	d="
M433.999878,75.080078 
	C366.853271,75.080032 300.206573,75.080711 233.559906,75.078964 
	C225.319443,75.078751 221.679886,72.646667 221.655838,67.144844 
	C221.631714,61.624836 225.366257,59.074898 233.504517,59.074711 
	C305.482941,59.073059 377.461334,59.073296 449.439758,59.076633 
	C450.938629,59.076702 452.457489,58.972504 453.932587,59.171864 
	C458.362366,59.770550 461.204010,63.077168 461.097687,67.333710 
	C460.991089,71.601166 458.015503,74.837944 453.491852,74.992111 
	C447.167511,75.207649 440.831085,75.067848 433.999878,75.080078 
z"/>
<path fill="#000204" opacity="1.000000" stroke="none" 
	d="
M194.614304,63.686268 
	C195.594574,77.504860 186.887680,87.804871 174.477982,88.030502 
	C162.484253,88.248573 152.758026,78.527313 153.039764,66.603203 
	C153.288116,56.092617 161.350342,47.449841 172.041718,46.232983 
	C182.345474,45.060242 191.507858,52.010212 194.614304,63.686268 
M178.902557,67.430885 
	C177.509567,62.815342 175.003906,60.912739 172.142563,62.765961 
	C170.710037,63.693779 169.079437,65.997849 169.311523,67.382240 
	C169.593109,69.062027 171.845032,71.727043 173.067810,71.634399 
	C175.050110,71.484215 176.888580,69.436035 178.902557,67.430885 
z"/>
<path fill="#000204" opacity="1.000000" stroke="none" 
	d="
M66.698174,47.412098 
	C75.910553,44.717850 83.632912,46.690350 89.610031,53.688248 
	C95.168037,60.195442 96.157745,67.745506 92.775703,75.625908 
	C89.118362,84.147812 80.069519,89.102432 70.865738,87.912895 
	C62.065014,86.775444 54.402100,79.379601 53.060768,70.728462 
	C51.488876,60.590309 56.350353,52.115601 66.698174,47.412098 
M77.507225,70.132629 
	C77.749496,68.573158 78.572937,66.811447 78.115044,65.495628 
	C77.110878,62.610031 74.757759,61.389072 71.745872,62.716019 
	C68.710388,64.053360 68.046463,66.726021 69.446960,69.358513 
	C71.180145,72.616348 73.998032,72.915199 77.507225,70.132629 
z"/>
<path fill="#000204" opacity="1.000000" stroke="none" 
	d="
M128.085220,46.716465 
	C139.172012,49.908218 145.831879,58.937111 144.764069,68.886765 
	C143.656235,79.209564 135.490875,87.321457 125.532196,87.992767 
	C115.164932,88.691612 106.243561,82.275986 103.575935,72.203369 
	C99.705849,57.590389 112.202667,44.330730 128.085220,46.716465 
M125.738243,62.629139 
	C123.743523,63.261463 121.209396,63.376366 119.937607,64.702171 
	C119.041794,65.636040 119.266151,68.574944 120.097260,69.949158 
	C120.799492,71.110268 123.161293,71.966583 124.668648,71.809181 
	C128.975342,71.359444 129.756729,66.937424 125.738243,62.629139 
z"/>
<path fill="#FC4054" opacity="1.000000" stroke="none" 
	d="
M272.085876,363.232239 
	C235.408417,371.340759 200.813812,349.383453 192.527145,313.089935 
	C184.541107,278.113159 206.757538,243.041367 242.132339,234.781082 
	C277.108856,226.613800 312.637848,248.285522 320.971527,282.870789 
	C329.696899,319.081665 308.463745,354.237732 272.085876,363.232239 
M302.093262,313.649353 
	C312.065002,303.898499 311.360382,289.915649 299.999542,283.074890 
	C283.054626,272.871796 265.939545,262.926636 248.603516,253.405853 
	C235.897186,246.427658 221.134628,255.454620 220.995224,269.985626 
	C220.809998,289.292450 220.821976,308.603424 220.987930,327.910614 
	C221.115356,342.734589 235.941345,351.759430 248.881653,344.581970 
	C266.612366,334.747437 283.996613,324.288269 302.093262,313.649353 
z"/>
<path fill="#0565AD" opacity="1.000000" stroke="none" 
	d="
M178.845169,67.810028 
	C176.888580,69.436035 175.050110,71.484215 173.067810,71.634399 
	C171.845032,71.727043 169.593109,69.062027 169.311523,67.382240 
	C169.079437,65.997849 170.710037,63.693779 172.142563,62.765961 
	C175.003906,60.912739 177.509567,62.815342 178.845169,67.810028 
z"/>
<path fill="#0566AF" opacity="1.000000" stroke="none" 
	d="
M77.248428,70.414215 
	C73.998032,72.915199 71.180145,72.616348 69.446960,69.358513 
	C68.046463,66.726021 68.710388,64.053360 71.745872,62.716019 
	C74.757759,61.389072 77.110878,62.610031 78.115044,65.495628 
	C78.572937,66.811447 77.749496,68.573158 77.248428,70.414215 
z"/>
<path fill="#0566B0" opacity="1.000000" stroke="none" 
	d="
M126.069382,62.808525 
	C129.756729,66.937424 128.975342,71.359444 124.668648,71.809181 
	C123.161293,71.966583 120.799492,71.110268 120.097260,69.949158 
	C119.266151,68.574944 119.041794,65.636040 119.937607,64.702171 
	C121.209396,63.376366 123.743523,63.261463 126.069382,62.808525 
z"/>
<path fill="#030202" opacity="1.000000" stroke="none" 
	d="
M301.811279,313.873077 
	C283.996613,324.288269 266.612366,334.747437 248.881653,344.581970 
	C235.941345,351.759430 221.115356,342.734589 220.987930,327.910614 
	C220.821976,308.603424 220.809998,289.292450 220.995224,269.985626 
	C221.134628,255.454620 235.897186,246.427658 248.603516,253.405853 
	C265.939545,262.926636 283.054626,272.871796 299.999542,283.074890 
	C311.360382,289.915649 312.065002,303.898499 301.811279,313.873077 
M241.617905,330.392303 
	C257.606140,321.180847 273.605011,311.987762 289.575775,302.746124 
	C294.059296,300.151733 294.394867,298.234161 290.582733,296.003326 
	C274.513702,286.599915 258.368103,277.327148 242.235260,268.033081 
	C239.112549,266.234100 236.971161,266.868774 236.958542,270.798248 
	C236.898102,289.629028 236.934097,308.460175 236.929199,327.291168 
	C236.928497,330.009735 238.077042,331.371643 241.617905,330.392303 
z"/>
<path fill="#FDFDFD" opacity="1.000000" stroke="none" 
	d="
M241.278320,330.592041 
	C238.077042,331.371643 236.928497,330.009735 236.929199,327.291168 
	C236.934097,308.460175 236.898102,289.629028 236.958542,270.798248 
	C236.971161,266.868774 239.112549,266.234100 242.235260,268.033081 
	C258.368103,277.327148 274.513702,286.599915 290.582733,296.003326 
	C294.394867,298.234161 294.059296,300.151733 289.575775,302.746124 
	C273.605011,311.987762 257.606140,321.180847 241.278320,330.592041 
z"/>
</svg>