<svg version="1.1" id="Layer_1" xmlns="http://www.w3.org/2000/svg" xmlns:xlink="http://www.w3.org/1999/xlink" x="0px" y="0px"
	 width="100%" viewBox="0 0 512 512" enable-background="new 0 0 512 512" xml:space="preserve">
<path fill="#030302" opacity="1.000000" stroke="none" 
	d="
M513.000000,175.000000 
	C513.000000,287.972534 513.000000,400.445068 513.000000,512.958801 
	C342.402466,512.958801 171.804901,512.958801 1.103673,512.958801 
	C1.103673,342.444153 1.103673,171.888245 1.103673,1.166158 
	C171.666534,1.166158 342.333252,1.166158 513.000000,1.166158 
	C513.000000,58.861729 513.000000,116.680862 513.000000,175.000000 
M113.500038,314.878662 
	C85.176643,314.878693 56.853245,314.870697 28.529856,314.883667 
	C20.065472,314.887543 17.548710,317.381897 17.545630,325.914825 
	C17.526447,379.062958 17.526358,432.211090 17.545033,485.359222 
	C17.548016,493.846344 20.111469,496.418304 28.530972,496.420258 
	C92.675270,496.435181 156.819565,496.434296 220.963867,496.423004 
	C229.782181,496.421448 232.138763,494.015381 232.139893,485.103821 
	C232.146606,432.122284 232.146774,379.140778 232.139740,326.159241 
	C232.138550,317.275574 229.768021,314.884491 220.962921,314.882324 
	C185.475296,314.873535 149.987671,314.878662 113.500038,314.878662 
M364.279236,221.127518 
	C369.975555,228.715225 375.618225,236.344009 381.384766,243.877960 
	C386.183899,250.147949 392.137878,250.103958 396.948822,243.784348 
	C403.199402,235.573624 409.449280,227.358597 415.488464,218.993073 
	C417.251862,216.550385 419.144928,215.730164 422.103394,215.747559 
	C443.092926,215.871124 464.083527,215.826248 485.073792,215.807114 
	C493.788483,215.799149 496.449280,213.177521 496.452728,204.500412 
	C496.471619,156.855850 496.473907,109.211266 496.451752,61.566708 
	C496.447845,53.172386 493.832031,50.584679 485.365204,50.582310 
	C421.228271,50.564369 357.091370,50.564701 292.954437,50.581573 
	C284.198242,50.583878 281.862030,53.026539 281.860901,61.988796 
	C281.854889,109.466774 281.854279,156.944748 281.862061,204.422729 
	C281.863495,213.163971 284.448364,215.797440 293.090729,215.806427 
	C313.581238,215.827728 334.073578,215.959198 354.560730,215.695953 
	C358.900146,215.640182 361.912994,216.680069 364.279236,221.127518 
M161.508255,298.174286 
	C181.832687,298.174622 202.157700,298.079803 222.481354,298.205933 
	C238.304932,298.304108 248.673645,308.805908 248.821945,324.602264 
	C248.881378,330.932281 248.832153,337.263336 248.832184,343.593903 
	C248.832260,355.879974 248.832214,368.166016 248.832214,380.644409 
	C260.475281,380.644409 271.689209,380.644409 282.864929,380.644409 
	C290.778412,322.356903 347.190887,273.500946 413.644653,282.853546 
	C413.644653,271.970520 413.644653,261.111847 413.644653,249.362198 
	C411.903473,251.570267 410.700287,253.083023 409.510803,254.606491 
	C398.331177,268.925018 379.746918,268.878571 368.667664,254.458191 
	C364.104156,248.518494 359.438812,242.637573 355.238831,236.445694 
	C352.903229,233.002396 350.283234,231.964890 346.189880,232.023315 
	C328.534454,232.275223 310.848663,231.549026 293.221649,232.299820 
	C276.632141,233.006424 264.807098,220.980576 265.017609,204.094406 
	C265.495209,165.783691 265.167877,127.462952 265.167786,89.146286 
	C265.167786,87.382568 265.167755,85.618851 265.167755,83.890709 
	C226.406937,83.890709 188.313904,83.890709 149.975891,83.890709 
	C149.975891,155.308105 149.975891,226.510117 149.975891,298.174286 
	C153.598480,298.174286 157.054230,298.174286 161.508255,298.174286 
M491.300903,428.723450 
	C513.785156,360.704559 459.876007,292.686005 388.329987,298.802429 
	C329.895172,303.798004 288.205444,359.911682 300.259644,417.343628 
	C309.198975,459.935120 346.602112,492.943115 388.061798,496.134949 
	C438.616272,500.026947 478.108429,468.228485 491.300903,428.723450 
M105.500153,83.677032 
	C87.261429,83.677032 69.022697,83.677032 50.949821,83.677032 
	C50.949821,155.588867 50.949821,226.757126 50.949821,297.813904 
	C78.505775,297.813904 105.703880,297.813904 132.758545,297.813904 
	C132.758545,226.255096 132.758545,155.055496 132.758545,83.677017 
	C123.800240,83.677017 115.150200,83.677017 105.500153,83.677032 
M123.500137,17.592484 
	C121.834045,17.592505 120.167946,17.592442 118.501854,17.592562 
	C99.175606,17.593966 79.849289,17.566141 60.523159,17.614126 
	C54.498009,17.629086 50.974007,19.886040 50.873093,24.714535 
	C50.581779,38.653709 50.770134,52.602909 50.770134,66.783676 
	C122.297531,66.783676 193.515717,66.783676 265.163116,66.783676 
	C265.163116,65.420776 265.249298,64.290451 265.150208,63.176609 
	C263.666595,46.496666 275.155365,33.414242 294.696564,33.783703 
	C332.502533,34.498489 370.331573,33.992516 408.151031,33.992516 
	C409.938904,33.992516 411.726776,33.992516 413.439270,33.992516 
	C415.167908,21.753408 412.913971,17.421984 399.898804,17.457914 
	C308.099823,17.711353 216.299820,17.592388 123.500137,17.592484 
z"/>
<path fill="#FDE8A6" opacity="1.000000" stroke="none" 
	d="
M114.000046,314.878662 
	C149.987671,314.878662 185.475296,314.873535 220.962921,314.882324 
	C229.768021,314.884491 232.138550,317.275574 232.139740,326.159241 
	C232.146774,379.140778 232.146606,432.122284 232.139893,485.103821 
	C232.138763,494.015381 229.782181,496.421448 220.963867,496.423004 
	C156.819565,496.434296 92.675270,496.435181 28.530972,496.420258 
	C20.111469,496.418304 17.548016,493.846344 17.545033,485.359222 
	C17.526358,432.211090 17.526447,379.062958 17.545630,325.914825 
	C17.548710,317.381897 20.065472,314.887543 28.529856,314.883667 
	C56.853245,314.870697 85.176643,314.878693 114.000046,314.878662 
M116.681992,454.499817 
	C116.681992,462.911804 116.681992,471.323792 116.681992,479.641235 
	C122.547089,479.641235 127.773193,479.641235 132.948792,479.641235 
	C133.008759,478.950287 133.062561,478.618591 133.062714,478.286896 
	C133.069748,463.298157 133.147659,448.308746 133.010696,433.321289 
	C132.983536,430.349274 133.617050,428.660400 136.525436,427.163116 
	C145.096222,422.750702 149.559479,415.247437 149.585846,405.728333 
	C149.612808,395.994629 145.025955,388.398285 136.250626,383.965240 
	C133.412842,382.531616 133.018127,380.830963 133.034683,378.148987 
	C133.120956,364.160004 133.083130,350.170258 133.063568,336.180786 
	C133.061356,334.601013 132.902603,333.021454 132.823471,331.570557 
	C127.189629,331.570557 122.103615,331.570557 116.682007,331.570557 
	C116.682007,333.539337 116.682007,335.187836 116.681999,336.836304 
	C116.681976,350.659271 116.643326,364.482422 116.717484,378.304993 
	C116.730858,380.798340 116.411484,382.475067 113.760063,383.814087 
	C105.011871,388.232025 100.233421,395.613159 100.151459,405.416138 
	C100.067635,415.441406 105.090019,422.670685 113.672585,427.739075 
	C115.113373,428.589905 116.470978,430.851624 116.547272,432.521729 
	C116.866142,439.501923 116.681847,446.505066 116.681992,454.499817 
M40.092575,422.634399 
	C29.689631,436.267242 32.959335,452.239136 47.732666,460.826813 
	C49.077076,461.608337 50.341339,463.661987 50.456276,465.212830 
	C50.809162,469.974152 50.584732,474.778229 50.584732,479.763611 
	C56.208042,479.763611 61.444149,479.763611 67.036247,479.763611 
	C67.036247,475.411285 67.251305,471.271057 66.970642,467.164703 
	C66.730545,463.651947 67.630547,461.677551 71.060310,459.845001 
	C79.338623,455.421692 83.558090,447.917419 83.511711,438.574554 
	C83.464287,429.019562 78.974884,421.573486 70.474625,417.131744 
	C67.572365,415.615204 66.963951,413.966461 66.976509,411.021576 
	C67.081619,386.384857 67.036247,361.747528 67.036247,337.110382 
	C67.036247,335.320068 67.036247,333.529755 67.036247,331.585724 
	C61.379009,331.585724 56.169067,331.585724 50.585449,331.585724 
	C50.585449,333.727600 50.585449,335.540192 50.585449,337.352814 
	C50.585449,360.491760 50.419384,383.632721 50.705719,406.768127 
	C50.774704,412.342194 50.232166,416.702759 44.334263,418.891388 
	C42.881130,419.430664 41.808968,420.996552 40.092575,422.634399 
M167.791611,380.536804 
	C163.759918,393.402954 168.103455,404.806915 179.769119,410.919067 
	C182.358673,412.275879 182.815704,413.826965 182.799820,416.353943 
	C182.715027,429.838135 182.759888,443.323120 182.759903,456.807831 
	C182.759903,464.410950 182.759918,472.014099 182.759918,479.701111 
	C188.458023,479.701111 193.681915,479.701111 199.122147,479.701111 
	C199.122147,458.612244 199.175430,437.821228 199.064529,417.031067 
	C199.047943,413.922455 199.706421,412.208344 202.802963,410.567322 
	C216.043945,403.550079 219.890244,386.361969 210.763214,374.676270 
	C207.794037,370.874725 203.424927,368.166595 198.910950,364.282806 
	C198.910950,354.194733 198.910950,342.931213 198.910950,331.478394 
	C193.483322,331.478394 188.401978,331.478394 182.973999,331.478394 
	C182.973999,342.962616 182.973999,354.229034 182.973999,365.586761 
	C176.124283,368.590363 170.910507,373.004456 167.791611,380.536804 
z"/>
<path fill="#FEE9A6" opacity="1.000000" stroke="none" 
	d="
M364.076172,220.819885 
	C361.912994,216.680069 358.900146,215.640182 354.560730,215.695953 
	C334.073578,215.959198 313.581238,215.827728 293.090729,215.806427 
	C284.448364,215.797440 281.863495,213.163971 281.862061,204.422729 
	C281.854279,156.944748 281.854889,109.466774 281.860901,61.988796 
	C281.862030,53.026539 284.198242,50.583878 292.954437,50.581573 
	C357.091370,50.564701 421.228271,50.564369 485.365204,50.582310 
	C493.832031,50.584679 496.447845,53.172386 496.451752,61.566708 
	C496.473907,109.211266 496.471619,156.855850 496.452728,204.500412 
	C496.449280,213.177521 493.788483,215.799149 485.073792,215.807114 
	C464.083527,215.826248 443.092926,215.871124 422.103394,215.747559 
	C419.144928,215.730164 417.251862,216.550385 415.488464,218.993073 
	C409.449280,227.358597 403.199402,235.573624 396.948822,243.784348 
	C392.137878,250.103958 386.183899,250.147949 381.384766,243.877960 
	C375.618225,236.344009 369.975555,228.715225 364.076172,220.819885 
M400.521240,150.962524 
	C405.314484,153.519028 410.107697,156.075531 414.745056,158.548889 
	C411.480408,178.049561 421.838074,194.174698 439.906067,198.375702 
	C456.495758,202.232971 473.679993,192.123978 478.580933,175.537201 
	C481.378998,166.067383 480.073700,157.048996 474.907440,148.687683 
	C469.748749,140.338531 462.017212,135.500687 451.918823,133.399521 
	C475.161255,123.789139 484.233246,108.733536 478.428070,90.297958 
	C473.258179,73.879875 456.884705,64.329918 439.983063,67.874596 
	C422.192535,71.605682 412.239197,87.126907 414.562836,107.860413 
	C405.719299,112.546379 396.723969,117.186462 387.871338,122.084404 
	C385.379181,123.463249 383.486664,123.324631 381.063232,122.009453 
	C369.230774,115.588089 357.309448,109.330193 345.409241,103.033920 
	C333.951416,96.971710 322.517700,90.862190 310.998566,84.918518 
	C306.210571,82.447990 301.512726,83.803955 299.310608,87.893326 
	C297.053406,92.084976 298.518127,96.523254 303.113007,99.324387 
	C304.104492,99.928795 305.149994,100.445526 306.177246,100.990112 
	C324.973541,110.954506 343.772797,120.913216 362.563416,130.888290 
	C363.810059,131.550095 364.992340,132.333176 366.588654,133.290100 
	C350.566589,141.763977 335.141632,149.918213 319.720734,158.080063 
	C313.992432,161.111862 308.191620,164.019455 302.580597,167.255417 
	C299.094238,169.266068 297.544037,172.458725 298.675629,176.594559 
	C299.746765,180.509338 302.585236,182.534775 306.354248,182.537643 
	C308.526001,182.539307 310.833344,181.412796 312.850189,180.356064 
	C331.693848,170.482666 350.950012,161.278885 369.124908,150.290329 
	C380.254883,143.561127 389.689606,142.084595 400.521240,150.962524 
z"/>
<path fill="#E5E8EC" opacity="1.000000" stroke="none" 
	d="
M161.009125,298.174286 
	C157.054230,298.174286 153.598480,298.174286 149.975891,298.174286 
	C149.975891,226.510117 149.975891,155.308105 149.975891,83.890709 
	C188.313904,83.890709 226.406937,83.890709 265.167755,83.890709 
	C265.167755,85.618851 265.167786,87.382568 265.167786,89.146286 
	C265.167877,127.462952 265.495209,165.783691 265.017609,204.094406 
	C264.807098,220.980576 276.632141,233.006424 293.221649,232.299820 
	C310.848663,231.549026 328.534454,232.275223 346.189880,232.023315 
	C350.283234,231.964890 352.903229,233.002396 355.238831,236.445694 
	C359.438812,242.637573 364.104156,248.518494 368.667664,254.458191 
	C379.746918,268.878571 398.331177,268.925018 409.510803,254.606491 
	C410.700287,253.083023 411.903473,251.570267 413.644653,249.362198 
	C413.644653,261.111847 413.644653,271.970520 413.644653,282.853546 
	C347.190887,273.500946 290.778412,322.356903 282.864929,380.644409 
	C271.689209,380.644409 260.475281,380.644409 248.832214,380.644409 
	C248.832214,368.166016 248.832260,355.879974 248.832184,343.593903 
	C248.832153,337.263336 248.881378,330.932281 248.821945,324.602264 
	C248.673645,308.805908 238.304932,298.304108 222.481354,298.205933 
	C202.157700,298.079803 181.832687,298.174622 161.009125,298.174286 
M248.843689,128.500076 
	C248.843689,119.080040 248.843689,109.660011 248.843689,100.336075 
	C220.887192,100.336075 193.650391,100.336075 166.347717,100.336075 
	C166.347717,127.858307 166.347717,155.084045 166.347717,182.360077 
	C193.959106,182.360077 221.301346,182.360077 248.843689,182.360077 
	C248.843689,164.461426 248.843689,146.980759 248.843689,128.500076 
M232.497025,199.105499 
	C210.426422,199.105499 188.355835,199.105499 166.407211,199.105499 
	C166.407211,227.083145 166.407211,254.315460 166.407211,281.577209 
	C193.963226,281.577209 221.190811,281.577209 248.591248,281.577209 
	C248.591248,254.055328 248.591248,226.827789 248.591248,199.105499 
	C243.398575,199.105499 238.446686,199.105499 232.497025,199.105499 
z"/>
<path fill="#FDE8A6" opacity="1.000000" stroke="none" 
	d="
M491.184235,429.101807 
	C478.108429,468.228485 438.616272,500.026947 388.061798,496.134949 
	C346.602112,492.943115 309.198975,459.935120 300.259644,417.343628 
	C288.205444,359.911682 329.895172,303.798004 388.329987,298.802429 
	C459.876007,292.686005 513.785156,360.704559 491.184235,429.101807 
M437.931061,419.384521 
	C447.144470,414.792786 456.336731,410.157867 465.582001,405.631256 
	C469.138123,403.890137 471.732697,401.433929 471.691071,397.303131 
	C471.649445,393.171875 468.978912,390.768097 465.427338,389.063263 
	C459.736206,386.331421 454.111603,383.460602 448.464600,380.637146 
	C416.812592,364.811432 385.176849,348.953033 353.501434,333.174316 
	C345.246704,329.062286 339.782166,332.483887 339.648987,341.669586 
	C339.595886,345.332458 339.638855,348.996704 339.638855,352.660339 
	C339.638794,385.966034 339.666351,419.271790 339.606323,452.577362 
	C339.598297,457.031982 340.184265,461.501495 344.952850,462.647766 
	C347.816162,463.336060 351.567505,462.405182 354.348663,461.039276 
	C382.066833,447.426666 409.665985,433.571686 437.931061,419.384521 
z"/>
<path fill="#E6E9ED" opacity="1.000000" stroke="none" 
	d="
M106.000160,83.677025 
	C115.150200,83.677017 123.800240,83.677017 132.758545,83.677017 
	C132.758545,155.055496 132.758545,226.255096 132.758545,297.813904 
	C105.703880,297.813904 78.505775,297.813904 50.949821,297.813904 
	C50.949821,226.757126 50.949821,155.588867 50.949821,83.677032 
	C69.022697,83.677032 87.261429,83.677032 106.000160,83.677025 
M76.549011,281.879364 
	C89.782028,281.879364 103.015038,281.879364 116.439117,281.879364 
	C116.439117,276.084229 116.439117,270.858917 116.439117,265.510986 
	C99.839317,265.510986 83.519745,265.510986 67.341652,265.510986 
	C67.341652,271.117950 67.341652,276.354370 67.341652,281.879364 
	C70.298851,281.879364 72.932205,281.879364 76.549011,281.879364 
M67.026688,167.783630 
	C67.026688,172.691544 67.026688,177.599442 67.026688,182.468735 
	C83.903748,182.468735 100.095924,182.468735 116.420753,182.468735 
	C116.420753,176.918274 116.420753,171.691315 116.420753,166.173569 
	C100.044403,166.173569 83.962372,166.170639 67.880409,166.201279 
	C67.637314,166.201736 67.395012,166.618317 67.026688,167.783630 
M86.500534,248.853210 
	C96.412186,248.853210 106.323845,248.853210 116.447685,248.853210 
	C116.447685,243.064743 116.447685,237.839874 116.447685,232.473755 
	C99.859009,232.473755 83.541733,232.473755 67.331230,232.473755 
	C67.331230,238.067886 67.331230,243.302658 67.331230,248.853210 
	C73.595467,248.853210 79.548164,248.853210 86.500534,248.853210 
M103.485954,199.097488 
	C91.425262,199.097488 79.364571,199.097488 67.290154,199.097488 
	C67.290154,204.950623 67.290154,210.183823 67.290154,215.581238 
	C83.759552,215.581238 99.952896,215.581238 116.318207,215.581238 
	C116.318207,209.990417 116.318207,204.647079 116.318207,199.097488 
	C112.106888,199.097488 108.293129,199.097488 103.485954,199.097488 
M116.700462,134.927765 
	C115.267242,134.302307 113.841560,133.155548 112.399590,133.134644 
	C101.767082,132.980667 91.131332,133.051361 80.496597,133.051346 
	C76.080215,133.051346 71.663826,133.051361 67.321365,133.051361 
	C67.321365,138.933105 67.321365,144.163834 67.321365,149.468384 
	C83.825394,149.468384 100.020988,149.468384 116.715462,149.468384 
	C116.715462,144.749359 116.715462,140.303223 116.700462,134.927765 
M77.526871,100.032242 
	C74.102745,100.032242 70.678612,100.032242 67.310715,100.032242 
	C67.310715,105.880875 67.310715,111.106438 67.310715,116.448860 
	C83.797371,116.448860 99.986549,116.448860 116.445961,116.448860 
	C116.445961,110.962616 116.445961,105.743904 116.445961,100.032242 
	C103.663643,100.032242 91.092224,100.032242 77.526871,100.032242 
z"/>
<path fill="#B4DD7F" opacity="1.000000" stroke="none" 
	d="
M124.000145,17.592396 
	C216.299820,17.592388 308.099823,17.711353 399.898804,17.457914 
	C412.913971,17.421984 415.167908,21.753408 413.439270,33.992516 
	C411.726776,33.992516 409.938904,33.992516 408.151031,33.992516 
	C370.331573,33.992516 332.502533,34.498489 294.696564,33.783703 
	C275.155365,33.414242 263.666595,46.496666 265.150208,63.176609 
	C265.249298,64.290451 265.163116,65.420776 265.163116,66.783676 
	C193.515717,66.783676 122.297531,66.783676 50.770134,66.783676 
	C50.770134,52.602909 50.581779,38.653709 50.873093,24.714535 
	C50.974007,19.886040 54.498009,17.629086 60.523159,17.614126 
	C79.849289,17.566141 99.175606,17.593966 118.501854,17.592562 
	C120.167946,17.592442 121.834045,17.592505 124.000145,17.592396 
M149.769928,42.470360 
	C149.769928,39.715958 149.769928,36.961555 149.769928,34.325947 
	C143.784027,34.325947 138.548737,34.325947 133.422089,34.325947 
	C133.422089,39.881058 133.422089,45.087345 133.422089,50.250969 
	C139.031082,50.250969 144.253891,50.250969 149.769836,50.250969 
	C149.769836,47.708771 149.769836,45.562683 149.769928,42.470360 
M100.027695,48.129856 
	C100.604675,48.950352 101.154434,50.458549 101.762924,50.482628 
	C106.666580,50.676674 111.581299,50.591343 116.487625,50.591343 
	C116.487625,44.694752 116.487625,39.594685 116.487625,34.370155 
	C110.885849,34.370155 105.541252,34.370155 100.023827,34.370155 
	C100.023827,38.903587 100.023827,43.050564 100.027695,48.129856 
M83.696930,41.530052 
	C83.696930,39.098312 83.696930,36.666569 83.696930,34.304173 
	C77.766129,34.304173 72.531349,34.304173 67.346588,34.304173 
	C67.346588,39.842560 67.346588,45.054787 67.346588,50.263084 
	C72.907433,50.263084 78.121460,50.263084 83.696808,50.263084 
	C83.696808,47.410793 83.696808,44.942238 83.696930,41.530052 
z"/>
<path fill="#020201" opacity="1.000000" stroke="none" 
	d="
M116.681976,453.999817 
	C116.681847,446.505066 116.866142,439.501923 116.547272,432.521729 
	C116.470978,430.851624 115.113373,428.589905 113.672585,427.739075 
	C105.090019,422.670685 100.067635,415.441406 100.151459,405.416138 
	C100.233421,395.613159 105.011871,388.232025 113.760063,383.814087 
	C116.411484,382.475067 116.730858,380.798340 116.717484,378.304993 
	C116.643326,364.482422 116.681976,350.659271 116.681999,336.836304 
	C116.682007,335.187836 116.682007,333.539337 116.682007,331.570557 
	C122.103615,331.570557 127.189629,331.570557 132.823471,331.570557 
	C132.902603,333.021454 133.061356,334.601013 133.063568,336.180786 
	C133.083130,350.170258 133.120956,364.160004 133.034683,378.148987 
	C133.018127,380.830963 133.412842,382.531616 136.250626,383.965240 
	C145.025955,388.398285 149.612808,395.994629 149.585846,405.728333 
	C149.559479,415.247437 145.096222,422.750702 136.525436,427.163116 
	C133.617050,428.660400 132.983536,430.349274 133.010696,433.321289 
	C133.147659,448.308746 133.069748,463.298157 133.062714,478.286896 
	C133.062561,478.618591 133.008759,478.950287 132.948792,479.641235 
	C127.773193,479.641235 122.547089,479.641235 116.681992,479.641235 
	C116.681992,471.323792 116.681992,462.911804 116.681976,453.999817 
M116.899399,403.903046 
	C116.807144,411.015259 121.388176,415.396088 127.103142,413.531433 
	C130.991852,412.262634 133.182266,409.511505 133.013428,405.319397 
	C132.855240,401.392151 130.753189,398.729858 126.936195,397.791016 
	C122.154770,396.614960 118.932137,398.708893 116.899399,403.903046 
z"/>
<path fill="#020201" opacity="1.000000" stroke="none" 
	d="
M40.327122,422.362427 
	C41.808968,420.996552 42.881130,419.430664 44.334263,418.891388 
	C50.232166,416.702759 50.774704,412.342194 50.705719,406.768127 
	C50.419384,383.632721 50.585449,360.491760 50.585449,337.352814 
	C50.585449,335.540192 50.585449,333.727600 50.585449,331.585724 
	C56.169067,331.585724 61.379009,331.585724 67.036247,331.585724 
	C67.036247,333.529755 67.036247,335.320068 67.036247,337.110382 
	C67.036247,361.747528 67.081619,386.384857 66.976509,411.021576 
	C66.963951,413.966461 67.572365,415.615204 70.474625,417.131744 
	C78.974884,421.573486 83.464287,429.019562 83.511711,438.574554 
	C83.558090,447.917419 79.338623,455.421692 71.060310,459.845001 
	C67.630547,461.677551 66.730545,463.651947 66.970642,467.164703 
	C67.251305,471.271057 67.036247,475.411285 67.036247,479.763611 
	C61.444149,479.763611 56.208042,479.763611 50.584732,479.763611 
	C50.584732,474.778229 50.809162,469.974152 50.456276,465.212830 
	C50.341339,463.661987 49.077076,461.608337 47.732666,460.826813 
	C32.959335,452.239136 29.689631,436.267242 40.327122,422.362427 
M60.753578,430.761047 
	C55.947166,429.870331 52.478458,431.678864 51.045341,436.314301 
	C49.848351,440.186005 51.087780,443.585236 54.689156,445.768097 
	C58.614700,448.147491 63.582375,446.762939 65.912025,442.756012 
	C68.494240,438.314697 66.917473,434.109314 60.753578,430.761047 
z"/>
<path fill="#020201" opacity="1.000000" stroke="none" 
	d="
M167.904312,380.163269 
	C170.910507,373.004456 176.124283,368.590363 182.973999,365.586761 
	C182.973999,354.229034 182.973999,342.962616 182.973999,331.478394 
	C188.401978,331.478394 193.483322,331.478394 198.910950,331.478394 
	C198.910950,342.931213 198.910950,354.194733 198.910950,364.282806 
	C203.424927,368.166595 207.794037,370.874725 210.763214,374.676270 
	C219.890244,386.361969 216.043945,403.550079 202.802963,410.567322 
	C199.706421,412.208344 199.047943,413.922455 199.064529,417.031067 
	C199.175430,437.821228 199.122147,458.612244 199.122147,479.701111 
	C193.681915,479.701111 188.458023,479.701111 182.759918,479.701111 
	C182.759918,472.014099 182.759903,464.410950 182.759903,456.807831 
	C182.759888,443.323120 182.715027,429.838135 182.799820,416.353943 
	C182.815704,413.826965 182.358673,412.275879 179.769119,410.919067 
	C168.103455,404.806915 163.759918,393.402954 167.904312,380.163269 
M183.973083,384.809479 
	C181.997147,388.641510 182.257935,392.227997 185.518280,395.190186 
	C188.427567,397.833405 192.284409,398.449310 195.026550,395.929657 
	C197.129333,393.997498 198.730728,390.392517 198.652893,387.584198 
	C198.594528,385.478455 195.894180,382.724548 193.684906,381.567566 
	C190.306473,379.798279 186.920410,381.157898 183.973083,384.809479 
z"/>
<path fill="#040302" opacity="1.000000" stroke="none" 
	d="
M400.192413,150.795227 
	C389.689606,142.084595 380.254883,143.561127 369.124908,150.290329 
	C350.950012,161.278885 331.693848,170.482666 312.850189,180.356064 
	C310.833344,181.412796 308.526001,182.539307 306.354248,182.537643 
	C302.585236,182.534775 299.746765,180.509338 298.675629,176.594559 
	C297.544037,172.458725 299.094238,169.266068 302.580597,167.255417 
	C308.191620,164.019455 313.992432,161.111862 319.720734,158.080063 
	C335.141632,149.918213 350.566589,141.763977 366.588654,133.290100 
	C364.992340,132.333176 363.810059,131.550095 362.563416,130.888290 
	C343.772797,120.913216 324.973541,110.954506 306.177246,100.990112 
	C305.149994,100.445526 304.104492,99.928795 303.113007,99.324387 
	C298.518127,96.523254 297.053406,92.084976 299.310608,87.893326 
	C301.512726,83.803955 306.210571,82.447990 310.998566,84.918518 
	C322.517700,90.862190 333.951416,96.971710 345.409241,103.033920 
	C357.309448,109.330193 369.230774,115.588089 381.063232,122.009453 
	C383.486664,123.324631 385.379181,123.463249 387.871338,122.084404 
	C396.723969,117.186462 405.719299,112.546379 414.562836,107.860413 
	C412.239197,87.126907 422.192535,71.605682 439.983063,67.874596 
	C456.884705,64.329918 473.258179,73.879875 478.428070,90.297958 
	C484.233246,108.733536 475.161255,123.789139 451.918823,133.399521 
	C462.017212,135.500687 469.748749,140.338531 474.907440,148.687683 
	C480.073700,157.048996 481.378998,166.067383 478.580933,175.537201 
	C473.679993,192.123978 456.495758,202.232971 439.906067,198.375702 
	C421.838074,194.174698 411.480408,178.049561 414.745056,158.548889 
	C410.107697,156.075531 405.314484,153.519028 400.192413,150.795227 
M435.001343,111.478470 
	C442.586304,118.011841 451.306946,118.336296 457.991119,112.333839 
	C463.942261,106.989647 465.111847,97.610054 460.658722,90.941032 
	C455.642120,83.428101 445.238708,81.376503 437.720276,86.417442 
	C429.580444,91.875023 428.245789,102.018852 435.001343,111.478470 
M432.890503,157.568710 
	C429.012421,165.404831 429.990448,172.807953 435.607117,178.132187 
	C440.861694,183.113190 448.803680,184.175858 455.011230,180.505066 
	C461.202240,176.844086 463.942230,171.302399 463.204254,164.124802 
	C462.547180,157.734512 457.986633,152.009506 451.742340,150.400681 
	C444.254272,148.471390 437.929688,150.527924 432.890503,157.568710 
M434.407532,135.749023 
	C436.825897,134.946396 439.244263,134.143784 440.935760,133.582397 
	C434.955688,130.349014 428.509674,126.863708 421.327576,122.980400 
	C415.826172,125.914993 409.335175,129.377472 402.234863,133.164948 
	C409.528412,137.011993 416.034454,140.443634 421.898621,143.536743 
	C426.212555,140.779785 429.952667,138.389542 434.407532,135.749023 
z"/>
<path fill="#070505" opacity="1.000000" stroke="none" 
	d="
M248.843689,129.000092 
	C248.843689,146.980759 248.843689,164.461426 248.843689,182.360077 
	C221.301346,182.360077 193.959106,182.360077 166.347717,182.360077 
	C166.347717,155.084045 166.347717,127.858307 166.347717,100.336075 
	C193.650391,100.336075 220.887192,100.336075 248.843689,100.336075 
	C248.843689,109.660011 248.843689,119.080040 248.843689,129.000092 
M208.499985,166.073914 
	C216.258316,166.073914 224.016647,166.073914 231.744415,166.073914 
	C231.744415,149.294937 231.744415,133.106339 231.744415,117.039948 
	C215.304337,117.039948 199.245270,117.039948 183.188385,117.039948 
	C183.188385,133.531418 183.188385,149.699875 183.188385,166.073914 
	C191.557297,166.073914 199.528656,166.073914 208.499985,166.073914 
z"/>
<path fill="#070605" opacity="1.000000" stroke="none" 
	d="
M232.995911,199.105499 
	C238.446686,199.105499 243.398575,199.105499 248.591248,199.105499 
	C248.591248,226.827789 248.591248,254.055328 248.591248,281.577209 
	C221.190811,281.577209 193.963226,281.577209 166.407211,281.577209 
	C166.407211,254.315460 166.407211,227.083145 166.407211,199.105499 
	C188.355835,199.105499 210.426422,199.105499 232.995911,199.105499 
M182.785446,254.487183 
	C182.785446,257.925537 182.785446,261.363922 182.785446,264.782135 
	C199.555725,264.782135 215.748413,264.782135 231.845581,264.782135 
	C231.845581,248.333496 231.845581,232.255783 231.845581,216.190811 
	C215.367813,216.190811 199.171860,216.190811 182.785431,216.190811 
	C182.785431,228.870407 182.785431,241.179688 182.785446,254.487183 
z"/>
<path fill="#030202" opacity="1.000000" stroke="none" 
	d="
M437.614899,419.584839 
	C409.665985,433.571686 382.066833,447.426666 354.348663,461.039276 
	C351.567505,462.405182 347.816162,463.336060 344.952850,462.647766 
	C340.184265,461.501495 339.598297,457.031982 339.606323,452.577362 
	C339.666351,419.271790 339.638794,385.966034 339.638855,352.660339 
	C339.638855,348.996704 339.595886,345.332458 339.648987,341.669586 
	C339.782166,332.483887 345.246704,329.062286 353.501434,333.174316 
	C385.176849,348.953033 416.812592,364.811432 448.464600,380.637146 
	C454.111603,383.460602 459.736206,386.331421 465.427338,389.063263 
	C468.978912,390.768097 471.649445,393.171875 471.691071,397.303131 
	C471.732697,401.433929 469.138123,403.890137 465.582001,405.631256 
	C456.336731,410.157867 447.144470,414.792786 437.614899,419.584839 
M442.376648,396.070587 
	C413.770172,381.764008 385.163696,367.457397 356.402985,353.073669 
	C356.402985,382.873840 356.402985,411.913361 356.402985,441.432037 
	C358.200256,440.640625 359.559265,440.109009 360.859528,439.459778 
	C384.060120,427.875458 407.253876,416.277435 430.448364,404.680847 
	C434.464142,402.673096 438.503265,400.708160 442.453766,398.579102 
	C442.908234,398.334198 442.859985,397.156525 442.376648,396.070587 
z"/>
<path fill="#080808" opacity="1.000000" stroke="none" 
	d="
M76.057281,281.879364 
	C72.932205,281.879364 70.298851,281.879364 67.341652,281.879364 
	C67.341652,276.354370 67.341652,271.117950 67.341652,265.510986 
	C83.519745,265.510986 99.839317,265.510986 116.439117,265.510986 
	C116.439117,270.858917 116.439117,276.084229 116.439117,281.879364 
	C103.015038,281.879364 89.782028,281.879364 76.057281,281.879364 
z"/>
<path fill="#080809" opacity="1.000000" stroke="none" 
	d="
M67.089508,167.312164 
	C67.395012,166.618317 67.637314,166.201736 67.880409,166.201279 
	C83.962372,166.170639 100.044403,166.173569 116.420753,166.173569 
	C116.420753,171.691315 116.420753,176.918274 116.420753,182.468735 
	C100.095924,182.468735 83.903748,182.468735 67.026688,182.468735 
	C67.026688,177.599442 67.026688,172.691544 67.089508,167.312164 
z"/>
<path fill="#080808" opacity="1.000000" stroke="none" 
	d="
M86.000702,248.853210 
	C79.548164,248.853210 73.595467,248.853210 67.331230,248.853210 
	C67.331230,243.302658 67.331230,238.067886 67.331230,232.473755 
	C83.541733,232.473755 99.859009,232.473755 116.447685,232.473755 
	C116.447685,237.839874 116.447685,243.064743 116.447685,248.853210 
	C106.323845,248.853210 96.412186,248.853210 86.000702,248.853210 
z"/>
<path fill="#080808" opacity="1.000000" stroke="none" 
	d="
M103.982666,199.097488 
	C108.293129,199.097488 112.106888,199.097488 116.318207,199.097488 
	C116.318207,204.647079 116.318207,209.990417 116.318207,215.581238 
	C99.952896,215.581238 83.759552,215.581238 67.290154,215.581238 
	C67.290154,210.183823 67.290154,204.950623 67.290154,199.097488 
	C79.364571,199.097488 91.425262,199.097488 103.982666,199.097488 
z"/>
<path fill="#080809" opacity="1.000000" stroke="none" 
	d="
M116.707962,135.392426 
	C116.715462,140.303223 116.715462,144.749359 116.715462,149.468384 
	C100.020988,149.468384 83.825394,149.468384 67.321365,149.468384 
	C67.321365,144.163834 67.321365,138.933105 67.321365,133.051361 
	C71.663826,133.051361 76.080215,133.051346 80.496597,133.051346 
	C91.131332,133.051361 101.767082,132.980667 112.399590,133.134644 
	C113.841560,133.155548 115.267242,134.302307 116.707962,135.392426 
z"/>
<path fill="#080809" opacity="1.000000" stroke="none" 
	d="
M78.023842,100.032242 
	C91.092224,100.032242 103.663643,100.032242 116.445961,100.032242 
	C116.445961,105.743904 116.445961,110.962616 116.445961,116.448860 
	C99.986549,116.448860 83.797371,116.448860 67.310715,116.448860 
	C67.310715,111.106438 67.310715,105.880875 67.310715,100.032242 
	C70.678612,100.032242 74.102745,100.032242 78.023842,100.032242 
z"/>
<path fill="#090B07" opacity="1.000000" stroke="none" 
	d="
M149.769882,42.943481 
	C149.769836,45.562683 149.769836,47.708771 149.769836,50.250969 
	C144.253891,50.250969 139.031082,50.250969 133.422089,50.250969 
	C133.422089,45.087345 133.422089,39.881058 133.422089,34.325947 
	C138.548737,34.325947 143.784027,34.325947 149.769928,34.325947 
	C149.769928,36.961555 149.769928,39.715958 149.769882,42.943481 
z"/>
<path fill="#0A0C07" opacity="1.000000" stroke="none" 
	d="
M100.025757,47.663696 
	C100.023827,43.050564 100.023827,38.903587 100.023827,34.370155 
	C105.541252,34.370155 110.885849,34.370155 116.487625,34.370155 
	C116.487625,39.594685 116.487625,44.694752 116.487625,50.591343 
	C111.581299,50.591343 106.666580,50.676674 101.762924,50.482628 
	C101.154434,50.458549 100.604675,48.950352 100.025757,47.663696 
z"/>
<path fill="#0A0C07" opacity="1.000000" stroke="none" 
	d="
M83.696869,42.001865 
	C83.696808,44.942238 83.696808,47.410793 83.696808,50.263084 
	C78.121460,50.263084 72.907433,50.263084 67.346588,50.263084 
	C67.346588,45.054787 67.346588,39.842560 67.346588,34.304173 
	C72.531349,34.304173 77.766129,34.304173 83.696930,34.304173 
	C83.696930,36.666569 83.696930,39.098312 83.696869,42.001865 
z"/>
<path fill="#F77E6B" opacity="1.000000" stroke="none" 
	d="
M116.971237,403.503967 
	C118.932137,398.708893 122.154770,396.614960 126.936195,397.791016 
	C130.753189,398.729858 132.855240,401.392151 133.013428,405.319397 
	C133.182266,409.511505 130.991852,412.262634 127.103142,413.531433 
	C121.388176,415.396088 116.807144,411.015259 116.971237,403.503967 
z"/>
<path fill="#F87E6B" opacity="1.000000" stroke="none" 
	d="
M61.117527,430.850159 
	C66.917473,434.109314 68.494240,438.314697 65.912025,442.756012 
	C63.582375,446.762939 58.614700,448.147491 54.689156,445.768097 
	C51.087780,443.585236 49.848351,440.186005 51.045341,436.314301 
	C52.478458,431.678864 55.947166,429.870331 61.117527,430.850159 
z"/>
<path fill="#FA7F6C" opacity="1.000000" stroke="none" 
	d="
M184.183533,384.469482 
	C186.920410,381.157898 190.306473,379.798279 193.684906,381.567566 
	C195.894180,382.724548 198.594528,385.478455 198.652893,387.584198 
	C198.730728,390.392517 197.129333,393.997498 195.026550,395.929657 
	C192.284409,398.449310 188.427567,397.833405 185.518280,395.190186 
	C182.257935,392.227997 181.997147,388.641510 184.183533,384.469482 
z"/>
<path fill="#FBE6A4" opacity="1.000000" stroke="none" 
	d="
M434.747559,111.209457 
	C428.245789,102.018852 429.580444,91.875023 437.720276,86.417442 
	C445.238708,81.376503 455.642120,83.428101 460.658722,90.941032 
	C465.111847,97.610054 463.942261,106.989647 457.991119,112.333839 
	C451.306946,118.336296 442.586304,118.011841 434.747559,111.209457 
z"/>
<path fill="#FBE6A4" opacity="1.000000" stroke="none" 
	d="
M433.070801,157.241714 
	C437.929688,150.527924 444.254272,148.471390 451.742340,150.400681 
	C457.986633,152.009506 462.547180,157.734512 463.204254,164.124802 
	C463.942230,171.302399 461.202240,176.844086 455.011230,180.505066 
	C448.803680,184.175858 440.861694,183.113190 435.607117,178.132187 
	C429.990448,172.807953 429.012421,165.404831 433.070801,157.241714 
z"/>
<path fill="#F7E3A2" opacity="1.000000" stroke="none" 
	d="
M434.050140,135.874176 
	C429.952667,138.389542 426.212555,140.779785 421.898621,143.536743 
	C416.034454,140.443634 409.528412,137.011993 402.234863,133.164948 
	C409.335175,129.377472 415.826172,125.914993 421.327576,122.980400 
	C428.509674,126.863708 434.955688,130.349014 440.935760,133.582397 
	C439.244263,134.143784 436.825897,134.946396 434.050140,135.874176 
z"/>
<path fill="#FF826E" opacity="1.000000" stroke="none" 
	d="
M208.000000,166.073914 
	C199.528656,166.073914 191.557297,166.073914 183.188385,166.073914 
	C183.188385,149.699875 183.188385,133.531418 183.188385,117.039948 
	C199.245270,117.039948 215.304337,117.039948 231.744415,117.039948 
	C231.744415,133.106339 231.744415,149.294937 231.744415,166.073914 
	C224.016647,166.073914 216.258316,166.073914 208.000000,166.073914 
z"/>
<path fill="#FCD770" opacity="1.000000" stroke="none" 
	d="
M182.785431,253.988068 
	C182.785431,241.179688 182.785431,228.870407 182.785431,216.190811 
	C199.171860,216.190811 215.367813,216.190811 231.845581,216.190811 
	C231.845581,232.255783 231.845581,248.333496 231.845581,264.782135 
	C215.748413,264.782135 199.555725,264.782135 182.785446,264.782135 
	C182.785446,261.363922 182.785446,257.925537 182.785431,253.988068 
z"/>
<path fill="#FD816D" opacity="1.000000" stroke="none" 
	d="
M442.710754,396.240967 
	C442.859985,397.156525 442.908234,398.334198 442.453766,398.579102 
	C438.503265,400.708160 434.464142,402.673096 430.448364,404.680847 
	C407.253876,416.277435 384.060120,427.875458 360.859528,439.459778 
	C359.559265,440.109009 358.200256,440.640625 356.402985,441.432037 
	C356.402985,411.913361 356.402985,382.873840 356.402985,353.073669 
	C385.163696,367.457397 413.770172,381.764008 442.710754,396.240967 
z"/>
</svg>