<svg version="1.1" id="Layer_1" xmlns="http://www.w3.org/2000/svg" xmlns:xlink="http://www.w3.org/1999/xlink" x="0px" y="0px"
	 width="100%" viewBox="0 0 512 512" enable-background="new 0 0 512 512" xml:space="preserve">
<path fill="#010000" opacity="1.000000" stroke="none" 
	d="
M1.000000,183.000000 
	C1.000000,122.000000 1.000000,61.500000 1.000000,1.000000 
	C171.666672,1.000000 342.333344,1.000000 513.000000,1.000000 
	C513.000000,171.666672 513.000000,342.333344 513.000000,513.000000 
	C342.333344,513.000000 171.666672,513.000000 1.000000,513.000000 
	C1.000000,403.166656 1.000000,293.333344 1.000000,183.000000 
M440.079315,75.844986 
	C429.820892,75.844986 419.562469,75.844986 408.967773,75.844986 
	C408.967773,78.148643 408.967804,79.947235 408.967804,81.745827 
	C408.967804,83.487221 408.967773,85.228622 408.967773,86.921677 
	C417.146576,87.372292 418.808380,88.613495 420.040924,95.612358 
	C419.041351,100.276871 416.034454,102.435692 411.409760,102.031441 
	C406.850891,101.632942 406.107819,103.791847 405.779785,107.904892 
	C404.534119,123.523384 408.712982,138.239166 412.564850,153.022079 
	C413.961426,158.381821 414.363312,165.910873 417.963287,168.279892 
	C422.028839,170.955261 429.183441,168.936462 435.861420,169.148087 
	C444.370544,169.199417 443.253967,169.885086 445.186432,161.746567 
	C445.301483,161.262070 445.522461,160.801758 445.626190,160.315674 
	C449.286560,143.160110 455.554749,126.492538 454.196564,108.415718 
	C453.814148,103.325974 452.388550,101.410172 447.486206,102.047012 
	C446.669281,102.153137 445.824921,102.048477 444.451904,101.616501 
	C442.895172,99.102859 441.338440,96.589226 439.978973,93.402878 
	C440.344360,92.315773 440.709747,91.228668 441.712708,89.795975 
	C444.600128,88.555031 447.487549,87.314087 450.656067,85.952332 
	C450.656067,83.086494 450.656067,79.549149 450.656067,76.038963 
	C447.227692,76.038963 444.113373,76.038963 440.079315,75.844986 
M325.058746,16.026278 
	C317.651733,16.026278 310.244690,16.026278 302.900146,16.026278 
	C302.900146,27.041109 302.900146,37.298294 302.900146,47.865334 
	C310.776123,47.865334 318.388733,47.865334 326.925507,48.009254 
	C331.852631,48.009254 336.779724,48.009254 342.062744,48.009254 
	C342.062744,38.150555 342.196777,28.869558 341.902222,19.602188 
	C341.863037,18.369427 339.736359,16.305761 338.424469,16.177183 
	C334.316986,15.774610 330.136810,16.113976 325.058746,16.026278 
M441.835541,60.803310 
	C444.750519,60.803310 447.665466,60.803310 450.982056,60.803310 
	C450.982056,56.125973 451.082611,52.028202 450.960419,47.937080 
	C450.731628,40.277298 445.871033,36.189434 437.044525,36.663197 
	C431.216339,36.655048 425.382874,36.489048 419.561493,36.683960 
	C413.947754,36.871922 409.669098,40.398136 409.192505,45.621704 
	C408.745972,50.515709 409.096954,55.482479 409.096954,60.617188 
	C420.029388,60.617188 430.480042,60.617188 441.835541,60.803310 
M325.059052,63.048412 
	C238.198227,63.043804 151.337387,63.038624 64.476555,63.040707 
	C63.315037,63.040733 62.153519,63.132721 60.457249,63.068188 
	C60.354664,63.374119 60.252075,63.680050 59.998425,64.914284 
	C59.994114,207.225800 60.019497,349.537323 59.870144,491.848694 
	C59.864532,497.194550 61.752224,498.099304 66.534653,498.092163 
	C151.354813,497.965729 236.175201,498.001465 320.995544,497.993622 
	C322.657745,497.993469 324.319977,497.890350 326.906738,497.984222 
	C329.906494,497.988678 332.933136,497.740051 335.899841,498.055420 
	C340.638306,498.559143 342.181305,496.909698 342.176971,491.979492 
	C342.052582,350.490051 342.077393,209.000427 342.065247,67.510857 
	C342.065125,66.083069 341.893982,64.655296 341.801178,63.204235 
	C336.268799,63.204235 331.125732,63.204235 325.059052,63.048412 
M282.311310,16.000072 
	C263.651428,16.000072 244.989594,15.849494 226.332779,16.088858 
	C220.489838,16.163820 215.731293,15.347641 214.207565,9.113073 
	C207.577011,9.113073 201.427948,9.113073 194.942551,9.113073 
	C193.714218,15.116281 189.388062,16.070023 184.024368,16.055761 
	C145.038635,15.952104 106.052513,15.999947 67.066513,16.000565 
	C65.733681,16.000586 64.272125,15.666608 63.104137,16.107323 
	C61.931206,16.549900 60.193295,17.749071 60.173836,18.648493 
	C59.962990,28.393888 60.042126,38.145561 60.042126,47.655571 
	C136.240997,47.655571 211.775696,47.655571 287.361816,47.655571 
	C287.361816,37.004032 287.361816,26.734344 287.361816,16.228872 
	C285.843262,16.144152 284.552216,16.072126 282.311310,16.000072 
M441.180023,317.500031 
	C441.180023,273.240509 441.180023,228.981003 441.180023,184.545486 
	C433.453857,184.545486 426.249512,184.545486 418.694244,184.545486 
	C418.694244,186.895309 418.694275,188.878067 418.694275,190.860809 
	C418.694244,229.835556 418.633636,268.810486 418.756927,307.784821 
	C418.776276,313.899475 418.074707,319.114227 411.158691,320.489899 
	C411.158691,327.082733 411.158691,333.226562 411.158691,339.307922 
	C417.612579,341.774414 418.686890,343.355164 418.688904,350.554138 
	C418.699951,390.694794 418.691223,430.835449 418.697571,470.976105 
	C418.698578,477.470886 418.816437,477.571808 425.478424,477.599701 
	C428.476440,477.612244 431.474609,477.613068 434.472595,477.599915 
	C441.032837,477.571075 441.177368,477.435120 441.177856,470.901276 
	C441.181732,420.100861 441.180023,369.300476 441.180023,317.500031 
z"/>
<path fill="#EEF4F5" opacity="1.000000" stroke="none" 
	d="
M60.992001,63.181789 
	C62.153519,63.132721 63.315037,63.040733 64.476555,63.040707 
	C151.337387,63.038624 238.198227,63.043804 325.525116,63.581947 
	C325.988190,208.688736 325.985199,353.261993 325.982178,497.835236 
	C324.319977,497.890350 322.657745,497.993469 320.995544,497.993622 
	C236.175201,498.001465 151.354813,497.965729 66.534653,498.092163 
	C61.752224,498.099304 59.864532,497.194550 59.870144,491.848694 
	C60.019497,349.537323 59.994114,207.225800 60.249355,64.355858 
	C60.724941,63.640743 60.888847,63.435528 60.992001,63.181789 
M109.661087,309.244659 
	C109.370903,309.841949 109.063805,310.431671 108.792976,311.037628 
	C101.242363,327.931152 105.038292,346.621460 118.527542,358.986511 
	C131.696320,371.057739 151.090286,373.230072 166.730438,364.385773 
	C182.454727,355.493835 190.516144,337.675873 186.923370,319.753937 
	C183.598343,303.167725 169.890045,290.319489 152.350113,287.349792 
	C135.875351,284.560455 119.565102,292.728088 109.661087,309.244659 
M157.015839,170.742294 
	C178.861084,163.720749 190.679596,144.998062 187.050949,123.161186 
	C183.708237,103.044975 164.344269,87.792107 144.017731,89.264183 
	C122.557961,90.818329 105.578873,108.024086 105.003044,128.799728 
	C104.226814,156.805618 127.892677,176.276962 157.015839,170.742294 
M291.982727,110.606430 
	C290.888306,108.938889 289.882416,107.204765 288.685760,105.614143 
	C276.980560,90.055466 255.575241,84.825729 238.093338,93.218483 
	C220.080612,101.866043 210.548019,121.700729 215.620209,140.612061 
	C220.019516,157.014633 230.653763,167.504715 247.244186,171.043655 
	C263.903168,174.597198 278.065277,169.310318 288.409241,155.871902 
	C299.017303,142.090408 299.972626,126.928520 291.982727,110.606430 
M227.634781,199.119827 
	C212.415451,214.313171 209.945511,235.862823 221.482971,252.792877 
	C232.712158,269.270630 254.403885,275.695740 272.291534,267.412720 
	C287.849426,260.208527 296.540100,247.832458 296.982391,230.581512 
	C297.430634,213.098984 289.328278,199.923843 273.748901,192.360382 
	C257.536255,184.489471 242.064728,187.106064 227.634781,199.119827 
M269.581818,466.168060 
	C287.700531,459.422211 298.147858,443.260864 297.009247,423.739594 
	C295.684204,401.022186 274.613251,383.772766 250.956848,386.039490 
	C229.073380,388.136383 212.117493,409.538177 214.466782,431.293854 
	C217.219223,456.782837 242.782211,475.068787 269.581818,466.168060 
M218.002075,345.411560 
	C218.962738,347.156616 219.831863,348.959869 220.898224,350.637756 
	C231.575485,367.438049 252.725494,374.220245 271.244476,366.816711 
	C289.197723,359.639343 300.299133,339.770416 296.501770,321.180115 
	C293.110046,304.575500 283.323273,293.263611 266.993347,288.628113 
	C250.645767,283.987549 236.124374,288.284332 224.878159,300.960541 
	C213.495529,313.790466 211.380844,328.687469 218.002075,345.411560 
M107.908882,442.480957 
	C117.138016,463.664551 138.995972,473.631195 160.026871,466.245422 
	C180.338257,459.112335 191.889175,437.654510 186.498962,417.068878 
	C180.467300,394.033600 156.819962,380.614227 134.472824,387.545166 
	C111.352646,394.715851 99.625031,418.401184 107.908882,442.480957 
M165.565613,192.863571 
	C147.590515,184.072922 128.084427,187.739426 115.144348,202.341125 
	C103.038147,216.001877 101.558922,236.495605 111.563156,251.956329 
	C121.696365,267.616364 140.897537,274.798431 158.719925,268.954010 
	C175.691284,263.388641 185.657669,251.229538 187.455124,233.578690 
	C189.259979,215.854889 181.490326,202.342728 165.565613,192.863571 
z"/>
<path fill="#64B9FB" opacity="1.000000" stroke="none" 
	d="
M282.786255,16.000086 
	C284.552216,16.072126 285.843262,16.144152 287.361816,16.228872 
	C287.361816,26.734344 287.361816,37.004032 287.361816,47.655571 
	C211.775696,47.655571 136.240997,47.655571 60.042126,47.655571 
	C60.042126,38.145561 59.962990,28.393888 60.173836,18.648493 
	C60.193295,17.749071 61.931206,16.549900 63.104137,16.107323 
	C64.272125,15.666608 65.733681,16.000586 67.066513,16.000565 
	C106.052513,15.999947 145.038635,15.952104 184.024368,16.055761 
	C189.388062,16.070023 193.714218,15.116281 194.942551,9.113073 
	C201.427948,9.113073 207.577011,9.113073 214.207565,9.113073 
	C215.731293,15.347641 220.489838,16.163820 226.332779,16.088858 
	C244.989594,15.849494 263.651428,16.000072 282.786255,16.000086 
z"/>
<path fill="#CCE5E7" opacity="1.000000" stroke="none" 
	d="
M326.444458,497.909729 
	C325.985199,353.261993 325.988190,208.688736 325.986908,63.659859 
	C331.125732,63.204235 336.268799,63.204235 341.801178,63.204235 
	C341.893982,64.655296 342.065125,66.083069 342.065247,67.510857 
	C342.077393,209.000427 342.052582,350.490051 342.176971,491.979492 
	C342.181305,496.909698 340.638306,498.559143 335.899841,498.055420 
	C332.933136,497.740051 329.906494,497.988678 326.444458,497.909729 
z"/>
<path fill="#D4887A" opacity="1.000000" stroke="none" 
	d="
M441.180054,318.000061 
	C441.180023,369.300476 441.181732,420.100861 441.177856,470.901276 
	C441.177368,477.435120 441.032837,477.571075 434.472595,477.599915 
	C431.474609,477.613068 428.476440,477.612244 425.478424,477.599701 
	C418.816437,477.571808 418.698578,477.470886 418.697571,470.976105 
	C418.691223,430.835449 418.699951,390.694794 418.688904,350.554138 
	C418.686890,343.355164 417.612579,341.774414 411.158691,339.307922 
	C411.158691,333.226562 411.158691,327.082733 411.158691,320.489899 
	C418.074707,319.114227 418.776276,313.899475 418.756927,307.784821 
	C418.633636,268.810486 418.694244,229.835556 418.694275,190.860809 
	C418.694275,188.878067 418.694244,186.895309 418.694244,184.545486 
	C426.249512,184.545486 433.453857,184.545486 441.180023,184.545486 
	C441.180023,228.981003 441.180023,273.240509 441.180054,318.000061 
z"/>
<path fill="#FBB34D" opacity="1.000000" stroke="none" 
	d="
M434.994629,168.959122 
	C429.183441,168.936462 422.028839,170.955261 417.963287,168.279892 
	C414.363312,165.910873 413.961426,158.381821 412.564850,153.022079 
	C408.712982,138.239166 404.534119,123.523384 405.779785,107.904892 
	C406.107819,103.791847 406.850891,101.632942 411.409760,102.031441 
	C416.034454,102.435692 419.041351,100.276871 420.597656,95.256218 
	C427.363495,94.625244 433.572601,94.350410 439.781708,94.075584 
	C441.338440,96.589226 442.895172,99.102859 444.725433,102.294807 
	C444.596283,114.046402 446.015656,125.163872 442.903961,136.155930 
	C439.842621,146.970047 437.597748,158.015289 434.994629,168.959122 
z"/>
<path fill="#D4887A" opacity="1.000000" stroke="none" 
	d="
M440.930725,60.617188 
	C430.480042,60.617188 420.029388,60.617188 409.096954,60.617188 
	C409.096954,55.482479 408.745972,50.515709 409.192505,45.621704 
	C409.669098,40.398136 413.947754,36.871922 419.561493,36.683960 
	C425.382874,36.489048 431.216339,36.655048 437.653198,37.106453 
	C442.679901,44.830647 440.567383,52.867142 440.930725,60.617188 
z"/>
<path fill="#EC6264" opacity="1.000000" stroke="none" 
	d="
M326.001343,47.865334 
	C318.388733,47.865334 310.776123,47.865334 302.900146,47.865334 
	C302.900146,37.298294 302.900146,27.041109 302.900146,16.026278 
	C310.244690,16.026278 317.651733,16.026278 325.527710,16.553719 
	C325.998230,27.342550 325.999786,37.603943 326.001343,47.865334 
z"/>
<path fill="#F9A42F" opacity="1.000000" stroke="none" 
	d="
M435.428040,169.053604 
	C437.597748,158.015289 439.842621,146.970047 442.903961,136.155930 
	C446.015656,125.163872 444.596283,114.046402 444.996094,102.507164 
	C445.824921,102.048477 446.669281,102.153137 447.486206,102.047012 
	C452.388550,101.410172 453.814148,103.325974 454.196564,108.415718 
	C455.554749,126.492538 449.286560,143.160110 445.626190,160.315674 
	C445.522461,160.801758 445.301483,161.262070 445.186432,161.746567 
	C443.253967,169.885086 444.370544,169.199417 435.428040,169.053604 
z"/>
<path fill="#FCD0A6" opacity="1.000000" stroke="none" 
	d="
M439.880341,93.739227 
	C433.572601,94.350410 427.363495,94.625244 420.702820,94.890015 
	C418.808380,88.613495 417.146576,87.372292 408.967773,86.921677 
	C408.967773,85.228622 408.967804,83.487221 408.967804,81.745827 
	C408.967804,79.947235 408.967773,78.148643 408.967773,75.844986 
	C419.562469,75.844986 429.820892,75.844986 440.541016,76.405121 
	C441.026855,81.357353 441.050995,85.749451 441.075134,90.141556 
	C440.709747,91.228668 440.344360,92.315773 439.880341,93.739227 
z"/>
<path fill="#E64649" opacity="1.000000" stroke="none" 
	d="
M326.463440,47.937294 
	C325.999786,37.603943 325.998230,27.342550 325.990723,16.623512 
	C330.136810,16.113976 334.316986,15.774610 338.424469,16.177183 
	C339.736359,16.305761 341.863037,18.369427 341.902222,19.602188 
	C342.196777,28.869558 342.062744,38.150555 342.062744,48.009254 
	C336.779724,48.009254 331.852631,48.009254 326.463440,47.937294 
z"/>
<path fill="#BE6B5A" opacity="1.000000" stroke="none" 
	d="
M441.383118,60.710251 
	C440.567383,52.867142 442.679901,44.830647 438.111145,37.203945 
	C445.871033,36.189434 450.731628,40.277298 450.960419,47.937080 
	C451.082611,52.028202 450.982056,56.125973 450.982056,60.803310 
	C447.665466,60.803310 444.750519,60.803310 441.383118,60.710251 
z"/>
<path fill="#FCBA89" opacity="1.000000" stroke="none" 
	d="
M441.393921,89.968765 
	C441.050995,85.749451 441.026855,81.357353 441.000916,76.502106 
	C444.113373,76.038963 447.227692,76.038963 450.656067,76.038963 
	C450.656067,79.549149 450.656067,83.086494 450.656067,85.952332 
	C447.487549,87.314087 444.600128,88.555031 441.393921,89.968765 
z"/>
<path fill="#CCE5E7" opacity="1.000000" stroke="none" 
	d="
M60.724625,63.124989 
	C60.888847,63.435528 60.724941,63.640743 60.324886,63.891708 
	C60.252075,63.680050 60.354664,63.374119 60.724625,63.124989 
z"/>
<path fill="#030304" opacity="1.000000" stroke="none" 
	d="
M109.818939,308.906799 
	C119.565102,292.728088 135.875351,284.560455 152.350113,287.349792 
	C169.890045,290.319489 183.598343,303.167725 186.923370,319.753937 
	C190.516144,337.675873 182.454727,355.493835 166.730438,364.385773 
	C151.090286,373.230072 131.696320,371.057739 118.527542,358.986511 
	C105.038292,346.621460 101.242363,327.931152 108.792976,311.037628 
	C109.063805,310.431671 109.370903,309.841949 109.818939,308.906799 
M151.755783,354.093384 
	C164.620773,351.081665 173.390182,340.013031 172.838196,327.483398 
	C172.279922,314.811218 163.170975,304.463165 150.284256,302.288910 
	C144.818329,303.218781 138.845810,303.051422 133.986465,305.295044 
	C121.944229,310.855042 116.930313,325.513733 121.807076,337.985504 
	C126.471115,349.913239 139.414474,357.018768 151.755783,354.093384 
z"/>
<path fill="#040303" opacity="1.000000" stroke="none" 
	d="
M156.611084,170.835037 
	C127.892677,176.276962 104.226814,156.805618 105.003044,128.799728 
	C105.578873,108.024086 122.557961,90.818329 144.017731,89.264183 
	C164.344269,87.792107 183.708237,103.044975 187.050949,123.161186 
	C190.679596,144.998062 178.861084,163.720749 156.611084,170.835037 
M152.775833,156.144333 
	C165.094589,152.839905 173.370605,141.948303 172.832184,129.749252 
	C172.294052,117.556053 163.657974,107.374329 151.201218,104.894493 
	C147.424561,104.946877 143.509933,104.370064 139.895615,105.162689 
	C125.728836,108.269493 117.066750,123.309372 120.902481,137.503510 
	C124.656532,151.395401 138.908112,159.899582 152.775833,156.144333 
z"/>
<path fill="#040403" opacity="1.000000" stroke="none" 
	d="
M292.139282,110.944016 
	C299.972626,126.928520 299.017303,142.090408 288.409241,155.871902 
	C278.065277,169.310318 263.903168,174.597198 247.244186,171.043655 
	C230.653763,167.504715 220.019516,157.014633 215.620209,140.612061 
	C210.548019,121.700729 220.080612,101.866043 238.093338,93.218483 
	C255.575241,84.825729 276.980560,90.055466 288.685760,105.614143 
	C289.882416,107.204765 290.888306,108.938889 292.139282,110.944016 
M260.097107,156.413712 
	C260.097107,156.413712 260.312592,156.469177 261.084717,156.491165 
	C262.672333,156.013062 264.308014,155.654404 265.839844,155.037704 
	C276.894928,150.586792 283.521301,138.939560 281.923340,126.868622 
	C280.422363,115.530273 270.995148,106.113640 259.287872,104.581398 
	C248.280853,103.216812 239.597092,107.320923 233.625031,116.427269 
	C227.721786,125.428696 227.591141,135.090439 233.205475,144.249710 
	C239.016129,153.729248 247.778625,158.022247 259.495178,156.849304 
	C259.859985,156.873138 260.134796,156.727341 260.097107,156.413712 
z"/>
<path fill="#040303" opacity="1.000000" stroke="none" 
	d="
M227.905731,198.886826 
	C242.064728,187.106064 257.536255,184.489471 273.748901,192.360382 
	C289.328278,199.923843 297.430634,213.098984 296.982391,230.581512 
	C296.540100,247.832458 287.849426,260.208527 272.291534,267.412720 
	C254.403885,275.695740 232.712158,269.270630 221.482971,252.792877 
	C209.945511,235.862823 212.415451,214.313171 227.905731,198.886826 
M261.762390,255.108215 
	C263.187469,254.694763 264.669464,254.416840 266.028687,253.846451 
	C277.033386,249.228455 283.546417,237.618027 281.908325,225.647263 
	C280.410797,214.703522 271.468811,205.451981 260.277649,203.628983 
	C256.511780,203.751846 252.602097,203.261841 249.005402,204.105759 
	C234.911118,207.412827 226.427841,222.378723 230.249680,236.554779 
	C233.860840,249.949295 248.317062,258.632141 261.762390,255.108215 
z"/>
<path fill="#040303" opacity="1.000000" stroke="none" 
	d="
M269.217163,466.326965 
	C242.782211,475.068787 217.219223,456.782837 214.466782,431.293854 
	C212.117493,409.538177 229.073380,388.136383 250.956848,386.039490 
	C274.613251,383.772766 295.684204,401.022186 297.009247,423.739594 
	C298.147858,443.260864 287.700531,459.422211 269.217163,466.326965 
M258.137085,400.982239 
	C256.476044,400.977783 254.807861,400.870483 253.155060,400.985077 
	C238.881470,401.974579 227.491592,416.048248 229.508804,430.158783 
	C231.730042,445.696533 245.636368,456.095673 260.756195,453.041199 
	C274.487518,449.897797 282.719025,439.178345 282.036255,425.329254 
	C281.429871,413.029480 271.778442,402.898438 258.137085,400.982239 
z"/>
<path fill="#030404" opacity="1.000000" stroke="none" 
	d="
M217.862717,345.053101 
	C211.380844,328.687469 213.495529,313.790466 224.878159,300.960541 
	C236.124374,288.284332 250.645767,283.987549 266.993347,288.628113 
	C283.323273,293.263611 293.110046,304.575500 296.501770,321.180115 
	C300.299133,339.770416 289.197723,359.639343 271.244476,366.816711 
	C252.725494,374.220245 231.575485,367.438049 220.898224,350.637756 
	C219.831863,348.959869 218.962738,347.156616 217.862717,345.053101 
M260.768219,354.160492 
	C273.895508,351.407440 282.372437,340.789124 282.076721,327.469238 
	C281.798187,314.925323 272.714996,304.660492 259.253448,302.189941 
	C253.939026,303.152710 248.147934,303.085510 243.403992,305.280975 
	C231.530258,310.776001 226.396027,325.240784 230.999451,337.569641 
	C235.479095,349.566986 248.392731,356.923218 260.768219,354.160492 
z"/>
<path fill="#030404" opacity="1.000000" stroke="none" 
	d="
M107.771912,442.114258 
	C99.625031,418.401184 111.352646,394.715851 134.472824,387.545166 
	C156.819962,380.614227 180.467300,394.033600 186.498962,417.068878 
	C191.889175,437.654510 180.338257,459.112335 160.026871,466.245422 
	C138.995972,473.631195 117.138016,463.664551 107.771912,442.114258 
M150.965439,401.211884 
	C150.643326,401.081848 150.320587,401.080292 149.117523,401.008148 
	C147.295212,400.996582 145.463745,400.860199 143.652039,400.993195 
	C129.275024,402.048615 118.218216,416.028503 120.126495,430.679932 
	C122.021873,445.232269 136.259155,455.885284 150.799744,453.130371 
	C163.849136,450.646545 172.970154,439.833588 172.853790,426.985291 
	C172.739670,414.386139 163.738144,403.746948 151.290543,401.549347 
	C151.290543,401.549347 151.288849,401.583679 150.965439,401.211884 
z"/>
<path fill="#040403" opacity="1.000000" stroke="none" 
	d="
M165.909271,193.005005 
	C181.490326,202.342728 189.259979,215.854889 187.455124,233.578690 
	C185.657669,251.229538 175.691284,263.388641 158.719925,268.954010 
	C140.897537,274.798431 121.696365,267.616364 111.563156,251.956329 
	C101.558922,236.495605 103.038147,216.001877 115.144348,202.341125 
	C128.084427,187.739426 147.590515,184.072922 165.909271,193.005005 
M151.824554,255.240097 
	C164.636902,252.258621 173.398117,241.141724 172.833023,228.582977 
	C172.263916,215.935730 162.871811,205.318604 150.285049,203.440445 
	C146.665054,203.637497 142.910400,203.283142 139.448761,204.128616 
	C125.651070,207.498596 117.241470,222.053650 120.785614,235.857742 
	C124.338341,249.695297 138.024124,258.427338 151.824554,255.240097 
z"/>
<path fill="#8796DB" opacity="1.000000" stroke="none" 
	d="
M150.981842,354.001587 
	C139.414474,357.018768 126.471115,349.913239 121.807076,337.985504 
	C116.930313,325.513733 121.944229,310.855042 133.986465,305.295044 
	C138.845810,303.051422 144.818329,303.218781 150.750626,302.821747 
	C151.736206,303.993866 152.255768,304.632843 152.774597,305.272461 
	C159.482590,313.541534 163.056305,322.510376 161.253448,333.578552 
	C159.933472,341.682159 155.762741,347.882690 150.981842,354.001587 
z"/>
<path fill="#6B7ED0" opacity="1.000000" stroke="none" 
	d="
M151.368805,354.047485 
	C155.762741,347.882690 159.933472,341.682159 161.253448,333.578552 
	C163.056305,322.510376 159.482590,313.541534 152.774597,305.272461 
	C152.255768,304.632843 151.736206,303.993866 151.106369,303.012146 
	C163.170975,304.463165 172.279922,314.811218 172.838196,327.483398 
	C173.390182,340.013031 164.620773,351.081665 151.368805,354.047485 
z"/>
<path fill="#E79C8E" opacity="1.000000" stroke="none" 
	d="
M152.007751,156.064606 
	C138.908112,159.899582 124.656532,151.395401 120.902481,137.503510 
	C117.066750,123.309372 125.728836,108.269493 139.895615,105.162689 
	C143.509933,104.370064 147.424561,104.946877 151.635040,105.364655 
	C153.322556,107.772522 154.559158,109.721542 155.832718,111.646080 
	C163.890366,123.822372 163.859253,137.603622 155.783783,149.808929 
	C154.440948,151.838470 153.262283,153.976639 152.007751,156.064606 
z"/>
<path fill="#D18678" opacity="1.000000" stroke="none" 
	d="
M152.391785,156.104462 
	C153.262283,153.976639 154.440948,151.838470 155.783783,149.808929 
	C163.859253,137.603622 163.890366,123.822372 155.832718,111.646080 
	C154.559158,109.721542 153.322556,107.772522 152.020050,105.494736 
	C163.657974,107.374329 172.294052,117.556053 172.832184,129.749252 
	C173.370605,141.948303 165.094589,152.839905 152.391785,156.104462 
z"/>
<path fill="#FAC06C" opacity="1.000000" stroke="none" 
	d="
M259.016785,156.750687 
	C247.778625,158.022247 239.016129,153.729248 233.205475,144.249710 
	C227.591141,135.090439 227.721786,125.428696 233.625031,116.427269 
	C239.597092,107.320923 248.280853,103.216812 259.783264,105.068817 
	C273.053375,119.731598 274.757507,136.183960 264.885986,150.220474 
	C263.401398,152.331436 261.839020,154.387650 260.312592,156.469177 
	C260.312592,156.469177 260.097107,156.413712 259.969727,156.335190 
	C259.481171,156.277786 259.205994,156.442459 259.016785,156.750687 
z"/>
<path fill="#F7B14C" opacity="1.000000" stroke="none" 
	d="
M260.698669,156.480164 
	C261.839020,154.387650 263.401398,152.331436 264.885986,150.220474 
	C274.757507,136.183960 273.053375,119.731598 260.127930,105.251694 
	C270.995148,106.113640 280.422363,115.530273 281.923340,126.868622 
	C283.521301,138.939560 276.894928,150.586792 265.839844,155.037704 
	C264.308014,155.654404 262.672333,156.013062 260.698669,156.480164 
z"/>
<path fill="#F7B14C" opacity="1.000000" stroke="none" 
	d="
M259.255981,156.799988 
	C259.205994,156.442459 259.481171,156.277786 260.080963,156.334290 
	C260.134796,156.727341 259.859985,156.873138 259.255981,156.799988 
z"/>
<path fill="#F3A770" opacity="1.000000" stroke="none" 
	d="
M260.993927,255.020721 
	C248.317062,258.632141 233.860840,249.949295 230.249680,236.554779 
	C226.427841,222.378723 234.911118,207.412827 249.005402,204.105759 
	C252.602097,203.261841 256.511780,203.751846 260.674438,204.163910 
	C261.604248,205.518738 262.045593,206.419113 262.684021,207.146545 
	C273.224121,219.156311 274.001129,237.045395 264.537659,249.808502 
	C263.287415,251.494736 262.171875,253.280869 260.993927,255.020721 
z"/>
<path fill="#E4975D" opacity="1.000000" stroke="none" 
	d="
M261.378174,255.064468 
	C262.171875,253.280869 263.287415,251.494736 264.537659,249.808502 
	C274.001129,237.045395 273.224121,219.156311 262.684021,207.146545 
	C262.045593,206.419113 261.604248,205.518738 261.030914,204.352142 
	C271.468811,205.451981 280.410797,214.703522 281.908325,225.647263 
	C283.546417,237.618027 277.033386,249.228455 266.028687,253.846451 
	C264.669464,254.416840 263.187469,254.694763 261.378174,255.064468 
z"/>
<path fill="#EF7C7D" opacity="1.000000" stroke="none" 
	d="
M259.985199,452.949005 
	C245.636368,456.095673 231.730042,445.696533 229.508804,430.158783 
	C227.491592,416.048248 238.881470,401.974579 253.155060,400.985077 
	C254.807861,400.870483 256.476044,400.977783 258.743347,401.353027 
	C267.845306,409.079132 271.603546,418.444550 270.985352,429.576538 
	C270.472076,438.819427 265.892883,446.212158 259.985199,452.949005 
z"/>
<path fill="#E86163" opacity="1.000000" stroke="none" 
	d="
M260.370697,452.995117 
	C265.892883,446.212158 270.472076,438.819427 270.985352,429.576538 
	C271.603546,418.444550 267.845306,409.079132 259.184509,401.446198 
	C271.778442,402.898438 281.429871,413.029480 282.036255,425.329254 
	C282.719025,439.178345 274.487518,449.897797 260.370697,452.995117 
z"/>
<path fill="#31A6F9" opacity="1.000000" stroke="none" 
	d="
M259.981232,354.079102 
	C248.392731,356.923218 235.479095,349.566986 230.999451,337.569641 
	C226.396027,325.240784 231.530258,310.776001 243.403992,305.280975 
	C248.147934,303.085510 253.939026,303.152710 259.716309,302.704895 
	C267.585327,310.765137 271.538574,319.603577 271.058594,330.396759 
	C270.635284,339.916321 265.774597,347.170441 259.981232,354.079102 
z"/>
<path fill="#1C93F4" opacity="1.000000" stroke="none" 
	d="
M260.374725,354.119812 
	C265.774597,347.170441 270.635284,339.916321 271.058594,330.396759 
	C271.538574,319.603577 267.585327,310.765137 260.080109,302.859558 
	C272.714996,304.660492 281.798187,314.925323 282.076721,327.469238 
	C282.372437,340.789124 273.895508,351.407440 260.374725,354.119812 
z"/>
<path fill="#63DEC3" opacity="1.000000" stroke="none" 
	d="
M150.008423,453.039032 
	C136.259155,455.885284 122.021873,445.232269 120.126495,430.679932 
	C118.218216,416.028503 129.275024,402.048615 143.652039,400.993195 
	C145.463745,400.860199 147.295212,400.996582 149.723557,401.299255 
	C150.649338,401.588165 150.969101,401.585907 151.288849,401.583679 
	C151.288849,401.583679 151.290543,401.549347 151.300491,401.907593 
	C151.907730,403.047150 152.492447,403.838409 153.104233,404.608185 
	C159.756271,412.978607 163.174606,422.079559 161.176132,433.092346 
	C159.704239,441.203369 155.403473,447.330414 150.008423,453.039032 
z"/>
<path fill="#27CDAF" opacity="1.000000" stroke="none" 
	d="
M150.404083,453.084717 
	C155.403473,447.330414 159.704239,441.203369 161.176132,433.092346 
	C163.174606,422.079559 159.756271,412.978607 153.104233,404.608185 
	C152.492447,403.838409 151.907730,403.047150 151.316483,401.901306 
	C163.738144,403.746948 172.739670,414.386139 172.853790,426.985291 
	C172.970154,439.833588 163.849136,450.646545 150.404083,453.084717 
z"/>
<path fill="#27CDAF" opacity="1.000000" stroke="none" 
	d="
M151.127136,401.397766 
	C150.969101,401.585907 150.649338,401.588165 150.163391,401.398804 
	C150.320587,401.080292 150.643326,401.081848 151.127136,401.397766 
z"/>
<path fill="#FBCFA6" opacity="1.000000" stroke="none" 
	d="
M151.042938,255.163010 
	C138.024124,258.427338 124.338341,249.695297 120.785614,235.857742 
	C117.241470,222.053650 125.651070,207.498596 139.448761,204.128616 
	C142.910400,203.283142 146.665054,203.637497 150.768005,203.967255 
	C159.652008,213.846893 164.402130,224.640930 160.719193,237.085815 
	C158.819794,243.503952 154.350830,249.161682 151.042938,255.163010 
z"/>
<path fill="#FAB988" opacity="1.000000" stroke="none" 
	d="
M151.433746,255.201553 
	C154.350830,249.161682 158.819794,243.503952 160.719193,237.085815 
	C164.402130,224.640930 159.652008,213.846893 151.108276,204.178711 
	C162.871811,205.318604 172.263916,215.935730 172.833023,228.582977 
	C173.398117,241.141724 164.636902,252.258621 151.433746,255.201553 
z"/>
</svg>