<svg version="1.1" id="Layer_1" xmlns="http://www.w3.org/2000/svg" xmlns:xlink="http://www.w3.org/1999/xlink" x="0px" y="0px"
	 width="100%" viewBox="0 0 512 512" enable-background="new 0 0 512 512" xml:space="preserve">
<path fill="#000000" opacity="1.000000" stroke="none" 
	d="
M287.000000,513.000000 
	C191.356552,513.000000 96.213104,513.000000 1.034826,513.000000 
	C1.034826,342.398193 1.034826,171.796371 1.034826,1.097280 
	C171.560135,1.097280 342.120331,1.097280 512.840271,1.097280 
	C512.840271,171.666550 512.840271,342.333252 512.840271,513.000000 
	C437.796356,513.000000 362.648163,513.000000 287.000000,513.000000 
M153.500000,120.999825 
	C115.349953,120.999847 77.199898,120.986626 39.049866,121.009262 
	C29.580040,121.014877 25.021091,125.612320 25.008383,135.132416 
	C24.980808,155.790009 24.994463,176.447678 25.013056,197.105301 
	C25.014189,198.365433 25.205515,199.625397 25.294847,200.720016 
	C180.029709,200.720016 334.384125,200.720016 489.000153,200.720016 
	C489.000153,179.309601 489.001709,158.178284 488.999512,137.046967 
	C488.998230,124.821373 485.155792,121.000420 472.860840,121.000320 
	C366.740570,120.999458 260.620270,120.999825 153.500000,120.999825 
M24.998871,302.500000 
	C24.998878,343.487549 24.995960,384.475067 25.000772,425.462616 
	C25.002125,436.981384 29.061331,440.999542 40.689663,440.999725 
	C184.979431,441.001740 329.269226,441.001953 473.558990,440.999146 
	C484.822266,440.998932 488.997284,436.868591 488.998199,425.707428 
	C489.003754,358.061188 489.001007,290.414917 489.001007,222.768677 
	C489.001007,220.990936 489.001007,219.213196 489.001007,217.311768 
	C334.083191,217.311768 179.736084,217.311768 24.998869,217.311768 
	C24.998869,245.581879 24.998869,273.540924 24.998871,302.500000 
M379.801697,97.007362 
	C374.376526,98.400955 377.903564,101.991661 377.437683,104.663612 
	C398.785614,104.663612 419.660187,104.663612 440.721375,104.663612 
	C440.721375,102.080261 440.721375,99.837982 440.721375,96.998390 
	C420.548126,96.998390 400.647797,96.998390 379.801697,97.007362 
M401.006744,74.641113 
	C401.006744,76.716133 401.006744,78.791161 401.006744,80.663422 
	C406.773651,80.663422 411.850433,80.663422 416.644623,80.663422 
	C416.644623,77.916115 416.644623,75.512016 416.644623,72.668900 
	C411.203796,73.026550 406.141266,73.359329 401.006744,74.641113 
z"/>
<path fill="#E0E0E2" opacity="1.000000" stroke="none" 
	d="
M154.000000,120.999825 
	C260.620270,120.999825 366.740570,120.999458 472.860840,121.000320 
	C485.155792,121.000420 488.998230,124.821373 488.999512,137.046967 
	C489.001709,158.178284 489.000153,179.309601 489.000153,200.720016 
	C334.384125,200.720016 180.029709,200.720016 25.294847,200.720016 
	C25.205515,199.625397 25.014189,198.365433 25.013056,197.105301 
	C24.994463,176.447678 24.980808,155.790009 25.008383,135.132416 
	C25.021091,125.612320 29.580040,121.014877 39.049866,121.009262 
	C77.199898,120.986626 115.349953,120.999847 154.000000,120.999825 
M42.614597,131.945892 
	C35.870827,136.281860 32.867176,142.520126 32.975449,150.465927 
	C33.077442,157.950729 32.904156,165.439484 33.021194,172.923828 
	C33.198048,184.233627 41.652706,192.851471 52.930321,192.961060 
	C68.899338,193.116241 84.871796,193.099731 100.841225,192.967819 
	C112.396210,192.872375 120.822304,184.279602 120.980743,172.644547 
	C121.082672,165.159744 121.041672,157.672180 120.993729,150.186325 
	C120.911613,137.363708 112.555206,129.042435 99.687721,129.007034 
	C84.549110,128.965393 69.407295,128.834396 54.273750,129.114197 
	C50.587337,129.182343 46.927814,130.704651 42.614597,131.945892 
z"/>
<path fill="#A0815C" opacity="1.000000" stroke="none" 
	d="
M24.998871,302.000000 
	C24.998869,273.540924 24.998869,245.581879 24.998869,217.311768 
	C179.736084,217.311768 334.083191,217.311768 489.001007,217.311768 
	C489.001007,219.213196 489.001007,220.990936 489.001007,222.768677 
	C489.001007,290.414917 489.003754,358.061188 488.998199,425.707428 
	C488.997284,436.868591 484.822266,440.998932 473.558990,440.999146 
	C329.269226,441.001953 184.979431,441.001740 40.689663,440.999725 
	C29.061331,440.999542 25.002125,436.981384 25.000772,425.462616 
	C24.995960,384.475067 24.998878,343.487549 24.998871,302.000000 
M337.000610,401.500000 
	C337.000610,346.527130 337.002228,291.554230 336.998993,236.581360 
	C336.998474,227.322037 334.713776,225.001312 325.592346,225.001038 
	C231.971710,224.998260 138.351074,224.998627 44.730442,225.000351 
	C35.192768,225.000519 33.000732,227.195953 33.000389,236.750046 
	C32.998161,298.219818 32.998219,359.689606 33.000317,421.159393 
	C33.000648,430.770935 35.191036,432.998993 44.648594,432.999298 
	C119.611740,433.001648 194.574875,433.000671 269.538025,433.000549 
	C288.861847,433.000519 308.185791,433.033508 327.509460,432.980713 
	C334.031097,432.962891 336.918579,430.027374 336.983612,423.489532 
	C337.053223,416.493652 337.000153,409.496552 337.000610,401.500000 
M428.228302,368.925140 
	C430.037659,368.658630 431.867126,368.487518 433.653259,368.110870 
	C452.790283,364.075104 465.658478,352.769714 471.008484,334.008240 
	C476.500671,314.748047 471.216278,297.872498 456.216766,284.818176 
	C441.672363,272.159943 424.709839,269.535858 406.754852,276.710480 
	C385.122009,285.354797 373.336609,308.160065 378.077087,331.203369 
	C382.714050,353.743591 402.722565,369.087738 428.228302,368.925140 
M380.371582,227.923386 
	C368.699524,222.604111 357.193176,225.107407 349.925018,234.547287 
	C343.179108,243.308868 343.294830,255.776108 350.469238,264.114563 
	C357.005280,271.711121 365.280579,274.737701 375.120392,272.065613 
	C385.127197,269.348114 391.141724,262.509155 392.654358,252.419693 
	C394.212524,242.026489 389.842743,233.949921 380.371582,227.923386 
M361.155487,387.335754 
	C349.596680,392.284027 343.320038,402.739044 345.275360,413.787323 
	C347.243195,424.906281 356.635895,433.517151 367.617157,433.912292 
	C377.685364,434.274567 385.435547,429.957062 390.147949,421.059509 
	C394.771271,412.330170 394.113464,403.536438 388.123871,395.699829 
	C381.491699,387.022400 372.538391,384.236481 361.155487,387.335754 
z"/>
<path fill="#56555B" opacity="1.000000" stroke="none" 
	d="
M380.274597,97.002876 
	C400.647797,96.998390 420.548126,96.998390 440.721375,96.998390 
	C440.721375,99.837982 440.721375,102.080261 440.721375,104.663612 
	C419.660187,104.663612 398.785614,104.663612 377.437683,104.663612 
	C377.903564,101.991661 374.376526,98.400955 380.274597,97.002876 
z"/>
<path fill="#E0E0E2" opacity="1.000000" stroke="none" 
	d="
M401.042725,74.166611 
	C406.141266,73.359329 411.203796,73.026550 416.644623,72.668900 
	C416.644623,75.512016 416.644623,77.916115 416.644623,80.663422 
	C411.850433,80.663422 406.773651,80.663422 401.006744,80.663422 
	C401.006744,78.791161 401.006744,76.716133 401.042725,74.166611 
z"/>
<path fill="#020101" opacity="1.000000" stroke="none" 
	d="
M42.935261,131.752106 
	C46.927814,130.704651 50.587337,129.182343 54.273750,129.114197 
	C69.407295,128.834396 84.549110,128.965393 99.687721,129.007034 
	C112.555206,129.042435 120.911613,137.363708 120.993729,150.186325 
	C121.041672,157.672180 121.082672,165.159744 120.980743,172.644547 
	C120.822304,184.279602 112.396210,192.872375 100.841225,192.967819 
	C84.871796,193.099731 68.899338,193.116241 52.930321,192.961060 
	C41.652706,192.851471 33.198048,184.233627 33.021194,172.923828 
	C32.904156,165.439484 33.077442,157.950729 32.975449,150.465927 
	C32.867176,142.520126 35.870827,136.281860 42.935261,131.752106 
M71.500366,176.997299 
	C80.648705,176.997208 89.798485,176.902008 98.944740,177.039856 
	C103.098846,177.102463 105.127594,175.582840 105.035057,171.227600 
	C104.890236,164.410995 104.889893,157.586792 105.035263,150.770218 
	C105.127907,146.425552 103.134979,144.922256 98.961182,144.956467 
	C84.324821,145.076370 69.686333,145.071945 55.049862,144.959061 
	C50.897854,144.927032 48.868065,146.403534 48.963703,150.765717 
	C49.113144,157.582108 49.120872,164.406967 48.960922,171.222885 
	C48.858353,175.593719 50.880268,177.158752 55.032814,177.034088 
	C60.184505,176.879410 65.344376,176.997192 71.500366,176.997299 
z"/>
<path fill="#000101" opacity="1.000000" stroke="none" 
	d="
M337.000610,402.000000 
	C337.000153,409.496552 337.053223,416.493652 336.983612,423.489532 
	C336.918579,430.027374 334.031097,432.962891 327.509460,432.980713 
	C308.185791,433.033508 288.861847,433.000519 269.538025,433.000549 
	C194.574875,433.000671 119.611740,433.001648 44.648594,432.999298 
	C35.191036,432.998993 33.000648,430.770935 33.000317,421.159393 
	C32.998219,359.689606 32.998161,298.219818 33.000389,236.750046 
	C33.000732,227.195953 35.192768,225.000519 44.730442,225.000351 
	C138.351074,224.998627 231.971710,224.998260 325.592346,225.001038 
	C334.713776,225.001312 336.998474,227.322037 336.998993,236.581360 
	C337.002228,291.554230 337.000610,346.527130 337.000610,402.000000 
M170.560120,353.049957 
	C187.424454,329.687805 204.315979,306.345184 221.124084,282.942627 
	C223.666092,279.403290 226.712540,276.677399 231.100098,278.302490 
	C233.513779,279.196442 235.700363,281.518646 237.288177,283.705902 
	C263.901459,320.366302 290.403168,357.107727 316.933624,393.828308 
	C318.026031,395.340240 319.156311,396.824829 320.624054,398.800140 
	C320.624054,345.643738 320.624054,293.420502 320.624054,241.238693 
	C229.990158,241.238693 139.732040,241.238693 49.237442,241.238693 
	C49.237442,299.893219 49.237442,358.309723 49.237442,418.580017 
	C51.945538,416.380768 54.031200,415.290466 55.274124,413.585754 
	C70.384865,392.860962 85.359550,372.037079 100.396362,351.258301 
	C106.598671,342.687561 111.480835,342.745300 117.745956,351.410522 
	C126.610558,363.671051 135.459930,375.942566 144.727203,388.779236 
	C153.405121,376.763336 161.762955,365.190643 170.560120,353.049957 
M226.020767,303.572479 
	C204.682571,333.142029 183.356079,362.720032 161.999786,392.276489 
	C154.583817,402.540009 154.706406,402.406708 161.731384,412.484894 
	C164.094208,415.874664 166.585770,417.109955 170.720154,417.095978 
	C216.191910,416.941925 261.664398,416.999207 307.136658,416.999176 
	C309.009491,416.999176 310.882324,416.999176 313.907104,416.999176 
	C285.168091,377.213440 257.264008,338.583588 229.131271,299.637177 
	C227.877625,301.212036 227.161514,302.111633 226.020767,303.572479 
M77.938965,417.002045 
	C100.125847,417.002045 122.312729,417.002045 145.366180,417.002045 
	C132.920898,399.778473 121.159241,383.501007 109.001961,366.675995 
	C96.810265,383.560394 85.004906,399.909729 72.663132,417.001953 
	C74.830605,417.001953 75.949211,417.001953 77.938965,417.002045 
z"/>
<path fill="#020101" opacity="1.000000" stroke="none" 
	d="
M427.768433,368.941589 
	C402.722565,369.087738 382.714050,353.743591 378.077087,331.203369 
	C373.336609,308.160065 385.122009,285.354797 406.754852,276.710480 
	C424.709839,269.535858 441.672363,272.159943 456.216766,284.818176 
	C471.216278,297.872498 476.500671,314.748047 471.008484,334.008240 
	C465.658478,352.769714 452.790283,364.075104 433.653259,368.110870 
	C431.867126,368.487518 430.037659,368.658630 427.768433,368.941589 
M443.449036,347.051392 
	C443.968903,346.635376 444.488739,346.219330 445.008698,345.803436 
	C456.472717,336.632568 460.188812,320.685211 453.926605,307.533203 
	C447.246643,293.503845 432.915955,286.603149 417.454834,289.970856 
	C403.746002,292.956879 393.072876,305.996765 393.061401,320.319031 
	C393.051788,332.332489 397.976440,341.986359 408.442139,348.228882 
	C419.971771,355.105988 431.538361,354.518799 443.449036,347.051392 
z"/>
<path fill="#020101" opacity="1.000000" stroke="none" 
	d="
M380.700989,228.100433 
	C389.842743,233.949921 394.212524,242.026489 392.654358,252.419693 
	C391.141724,262.509155 385.127197,269.348114 375.120392,272.065613 
	C365.280579,274.737701 357.005280,271.711121 350.469238,264.114563 
	C343.294830,255.776108 343.179108,243.308868 349.925018,234.547287 
	C357.193176,225.107407 368.699524,222.604111 380.700989,228.100433 
M374.908142,254.363190 
	C377.633545,250.911026 378.165802,246.926315 374.934631,244.044006 
	C372.940033,242.264755 369.079193,241.104568 366.614105,241.761169 
	C364.376617,242.357147 361.720673,245.634232 361.409241,248.012192 
	C361.098358,250.386261 362.871613,253.765991 364.804047,255.528763 
	C367.675262,258.147949 371.302673,257.370026 374.908142,254.363190 
z"/>
<path fill="#020101" opacity="1.000000" stroke="none" 
	d="
M361.539337,387.210693 
	C372.538391,384.236481 381.491699,387.022400 388.123871,395.699829 
	C394.113464,403.536438 394.771271,412.330170 390.147949,421.059509 
	C385.435547,429.957062 377.685364,434.274567 367.617157,433.912292 
	C356.635895,433.517151 347.243195,424.906281 345.275360,413.787323 
	C343.320038,402.739044 349.596680,392.284027 361.539337,387.210693 
M368.618073,417.970367 
	C373.031250,417.891174 376.404327,415.685760 376.610748,411.419922 
	C376.739380,408.762299 375.140900,405.039795 373.060577,403.547852 
	C371.187286,402.204376 366.976105,402.249939 364.946594,403.520569 
	C362.912018,404.794342 361.397247,408.300201 361.278503,410.901855 
	C361.102783,414.751160 364.005920,417.081543 368.618073,417.970367 
z"/>
<path fill="#78B9EB" opacity="1.000000" stroke="none" 
	d="
M71.000542,176.997299 
	C65.344376,176.997192 60.184505,176.879410 55.032814,177.034088 
	C50.880268,177.158752 48.858353,175.593719 48.960922,171.222885 
	C49.120872,164.406967 49.113144,157.582108 48.963703,150.765717 
	C48.868065,146.403534 50.897854,144.927032 55.049862,144.959061 
	C69.686333,145.071945 84.324821,145.076370 98.961182,144.956467 
	C103.134979,144.922256 105.127907,146.425552 105.035263,150.770218 
	C104.889893,157.586792 104.890236,164.410995 105.035057,171.227600 
	C105.127594,175.582840 103.098846,177.102463 98.944740,177.039856 
	C89.798485,176.902008 80.648705,176.997208 71.000542,176.997299 
z"/>
<path fill="#006DEF" opacity="1.000000" stroke="none" 
	d="
M170.340454,353.333954 
	C161.762955,365.190643 153.405121,376.763336 144.727203,388.779236 
	C135.459930,375.942566 126.610558,363.671051 117.745956,351.410522 
	C111.480835,342.745300 106.598671,342.687561 100.396362,351.258301 
	C85.359550,372.037079 70.384865,392.860962 55.274124,413.585754 
	C54.031200,415.290466 51.945538,416.380768 49.237442,418.580017 
	C49.237442,358.309723 49.237442,299.893219 49.237442,241.238693 
	C139.732040,241.238693 229.990158,241.238693 320.624054,241.238693 
	C320.624054,293.420502 320.624054,345.643738 320.624054,398.800140 
	C319.156311,396.824829 318.026031,395.340240 316.933624,393.828308 
	C290.403168,357.107727 263.901459,320.366302 237.288177,283.705902 
	C235.700363,281.518646 233.513779,279.196442 231.100098,278.302490 
	C226.712540,276.677399 223.666092,279.403290 221.124084,282.942627 
	C204.315979,306.345184 187.424454,329.687805 170.340454,353.333954 
M100.001762,319.732605 
	C124.694481,326.867157 147.314941,303.584412 139.397598,279.142548 
	C134.745987,264.782379 120.722893,255.608246 105.787048,257.107849 
	C90.948929,258.597656 78.912621,270.480042 77.147873,285.380829 
	C75.381714,300.293518 84.256798,313.965027 100.001762,319.732605 
z"/>
<path fill="#4E901E" opacity="1.000000" stroke="none" 
	d="
M226.233093,303.291870 
	C227.161514,302.111633 227.877625,301.212036 229.131271,299.637177 
	C257.264008,338.583588 285.168091,377.213440 313.907104,416.999176 
	C310.882324,416.999176 309.009491,416.999176 307.136658,416.999176 
	C261.664398,416.999207 216.191910,416.941925 170.720154,417.095978 
	C166.585770,417.109955 164.094208,415.874664 161.731384,412.484894 
	C154.706406,402.406708 154.583817,402.540009 161.999786,392.276489 
	C183.356079,362.720032 204.682571,333.142029 226.233093,303.291870 
z"/>
<path fill="#90CA04" opacity="1.000000" stroke="none" 
	d="
M77.503387,417.002014 
	C75.949211,417.001953 74.830605,417.001953 72.663132,417.001953 
	C85.004906,399.909729 96.810265,383.560394 109.001961,366.675995 
	C121.159241,383.501007 132.920898,399.778473 145.366180,417.002045 
	C122.312729,417.002045 100.125847,417.002045 77.503387,417.002014 
z"/>
<path fill="#56555B" opacity="1.000000" stroke="none" 
	d="
M443.157593,347.266357 
	C431.538361,354.518799 419.971771,355.105988 408.442139,348.228882 
	C397.976440,341.986359 393.051788,332.332489 393.061401,320.319031 
	C393.072876,305.996765 403.746002,292.956879 417.454834,289.970856 
	C432.915955,286.603149 447.246643,293.503845 453.926605,307.533203 
	C460.188812,320.685211 456.472717,336.632568 445.008698,345.803436 
	C444.488739,346.219330 443.968903,346.635376 443.157593,347.266357 
z"/>
<path fill="#56555B" opacity="1.000000" stroke="none" 
	d="
M374.633759,254.637115 
	C371.302673,257.370026 367.675262,258.147949 364.804047,255.528763 
	C362.871613,253.765991 361.098358,250.386261 361.409241,248.012192 
	C361.720673,245.634232 364.376617,242.357147 366.614105,241.761169 
	C369.079193,241.104568 372.940033,242.264755 374.934631,244.044006 
	C378.165802,246.926315 377.633545,250.911026 374.633759,254.637115 
z"/>
<path fill="#56555B" opacity="1.000000" stroke="none" 
	d="
M368.222656,417.940857 
	C364.005920,417.081543 361.102783,414.751160 361.278503,410.901855 
	C361.397247,408.300201 362.912018,404.794342 364.946594,403.520569 
	C366.976105,402.249939 371.187286,402.204376 373.060577,403.547852 
	C375.140900,405.039795 376.739380,408.762299 376.610748,411.419922 
	C376.404327,415.685760 373.031250,417.891174 368.222656,417.940857 
z"/>
<path fill="#010203" opacity="1.000000" stroke="none" 
	d="
M99.626602,319.581299 
	C84.256798,313.965027 75.381714,300.293518 77.147873,285.380829 
	C78.912621,270.480042 90.948929,258.597656 105.787048,257.107849 
	C120.722893,255.608246 134.745987,264.782379 139.397598,279.142548 
	C147.314941,303.584412 124.694481,326.867157 99.626602,319.581299 
M101.647163,274.890717 
	C94.486443,279.517273 91.619904,285.901886 93.539116,292.949738 
	C95.433052,299.904785 101.319183,304.687286 108.326988,304.964874 
	C114.813385,305.221802 120.877945,301.545624 123.501350,295.608063 
	C126.256729,289.371826 125.300682,283.558044 120.919273,278.429810 
	C116.371155,273.106476 109.905945,271.842590 101.647163,274.890717 
z"/>
<path fill="#FAD643" opacity="1.000000" stroke="none" 
	d="
M101.982079,274.697449 
	C109.905945,271.842590 116.371155,273.106476 120.919273,278.429810 
	C125.300682,283.558044 126.256729,289.371826 123.501350,295.608063 
	C120.877945,301.545624 114.813385,305.221802 108.326988,304.964874 
	C101.319183,304.687286 95.433052,299.904785 93.539116,292.949738 
	C91.619904,285.901886 94.486443,279.517273 101.982079,274.697449 
z"/>
</svg>