<svg version="1.1" id="Layer_1" xmlns="http://www.w3.org/2000/svg" xmlns:xlink="http://www.w3.org/1999/xlink" x="0px" y="0px"
	 width="100%" viewBox="0 0 512 512" enable-background="new 0 0 512 512" xml:space="preserve">
<path fill="#010101" opacity="1.000000" stroke="none" 
	d="
M513.000000,173.000000 
	C513.000000,286.639038 513.000000,399.778076 513.000000,512.958557 
	C342.402618,512.958557 171.805222,512.958557 1.103918,512.958557 
	C1.103918,342.444336 1.103918,171.888565 1.103918,1.166402 
	C171.666534,1.166402 342.333252,1.166402 513.000000,1.166402 
	C513.000000,58.194736 513.000000,115.347366 513.000000,173.000000 
M396.576752,131.409653 
	C389.492798,128.104202 382.383789,124.850899 375.338593,121.464844 
	C372.896362,120.291077 371.398071,120.633339 370.245117,123.233955 
	C367.750793,128.860077 365.118866,134.427399 362.432037,139.964828 
	C361.283173,142.332687 361.989807,143.589813 364.278381,144.600174 
	C371.871979,147.952682 379.412964,151.424362 387.558807,155.274948 
	C388.295654,155.659470 389.024231,156.060974 389.770691,156.425858 
	C397.129395,160.022995 397.113312,160.013885 400.343658,152.648575 
	C401.279205,150.515549 402.335022,148.434921 403.347748,146.336090 
	C408.368164,135.931702 408.369568,135.932388 396.576752,131.409653 
M114.027756,257.384949 
	C102.107948,257.384949 90.188133,257.384949 78.290207,257.384949 
	C78.290207,273.669983 78.290207,289.390045 78.290207,305.074646 
	C90.730301,305.074646 102.852150,305.074646 115.733154,305.338104 
	C119.993866,305.338104 124.254570,305.338104 128.490540,305.338104 
	C128.490540,289.043121 128.490540,273.450867 128.490540,257.630157 
	C123.787170,257.630157 119.355186,257.630157 114.027756,257.384949 
M113.937401,131.398148 
	C102.039139,131.398148 90.140877,131.398148 78.301239,131.398148 
	C78.301239,147.687744 78.301239,163.387863 78.301239,179.051239 
	C90.733185,179.051239 102.835968,179.051239 115.687370,179.358749 
	C119.950653,179.358749 124.213936,179.358749 128.782883,179.358749 
	C128.782883,166.997360 128.782883,155.344788 128.782883,143.692215 
	C128.782883,129.985062 128.782883,129.985062 113.937401,131.398148 
M114.013191,194.387985 
	C102.111000,194.387985 90.208817,194.387985 78.318069,194.387985 
	C78.318069,210.657425 78.318069,226.348587 78.318069,242.070602 
	C90.768616,242.070602 102.873947,242.070602 115.722000,242.370911 
	C119.977905,242.370911 124.233810,242.370911 128.492584,242.370911 
	C128.492584,226.030853 128.492584,210.439209 128.492584,194.628357 
	C123.774101,194.628357 119.340080,194.628357 114.013191,194.387985 
M324.901581,449.951416 
	C333.445557,449.951416 341.989563,449.951416 351.631897,449.951416 
	C341.887360,438.411621 332.964294,427.729858 323.837402,417.225189 
	C322.985321,416.244476 320.844666,416.053925 319.301361,416.051361 
	C281.876556,415.989441 244.451508,415.971832 207.026993,416.094666 
	C205.141922,416.100830 202.710358,416.926453 201.479477,418.250305 
	C197.420258,422.616150 193.796066,427.386505 189.420227,432.324554 
	C184.681122,437.971649 179.942017,443.618744 174.616974,449.964020 
	C184.864578,449.964020 193.988068,449.973206 203.111511,449.962463 
	C243.397720,449.914948 283.683929,449.861725 324.901581,449.951416 
M420.839722,144.564224 
	C417.169128,152.367859 413.437927,160.144028 409.878784,167.998169 
	C409.160370,169.583603 408.679565,171.490906 408.789307,173.204971 
	C410.223877,195.613449 402.016693,214.130341 386.082520,229.455719 
	C382.420532,232.977798 378.197968,235.917023 374.957611,238.538559 
	C390.363708,254.383087 405.758240,270.215759 421.380859,286.647675 
	C426.484131,292.023163 431.587372,297.398621 437.603088,303.735229 
	C437.603088,245.167709 437.603088,188.402527 437.603088,131.672577 
	C427.256561,130.690857 427.248657,130.687134 423.154388,139.397629 
	C422.453644,140.888443 421.852966,142.426285 420.839722,144.564224 
M328.982269,232.873489 
	C360.107300,238.800201 389.035736,214.732391 393.433838,186.456436 
	C395.128296,175.562790 394.723755,174.557419 383.665924,170.180771 
	C374.645660,165.964859 365.630707,161.737610 356.603424,157.536758 
	C349.768738,154.356201 348.166443,154.484268 342.746735,159.902817 
	C340.314056,162.334961 337.784332,165.125259 336.592773,168.247009 
	C334.245361,174.397095 332.089294,180.786163 331.126617,187.265457 
	C328.883820,202.361069 324.075439,215.949173 312.048248,226.134644 
	C311.903473,226.257233 312.006836,226.672760 311.948914,227.966888 
	C317.249481,229.395142 322.771820,230.883179 328.982269,232.873489 
M454.047241,8.023951 
	C443.913055,8.023951 433.778870,8.023951 424.121490,8.023951 
	C408.750275,40.936626 393.595642,73.385475 378.215363,106.317543 
	C387.133514,110.345161 395.563721,114.152412 404.483398,118.461731 
	C407.617889,119.928337 410.752350,121.394943 414.275909,123.043594 
	C432.206665,84.703125 449.998474,46.659760 468.007935,8.151058 
	C463.203247,8.151058 459.088379,8.151058 454.047241,8.023951 
M153.932953,305.269867 
	C162.451859,306.845428 168.382523,303.299072 174.291626,297.115448 
	C191.665344,278.934540 209.734772,261.418549 227.522797,243.633270 
	C228.674896,242.481369 229.750778,241.253250 230.356522,240.603180 
	C223.768356,233.614426 217.398911,226.857697 210.731430,219.492218 
	C207.435959,216.193680 204.158585,212.876846 200.840927,209.600784 
	C195.475967,204.303040 192.379501,204.329056 186.926208,209.764679 
	C173.479599,223.167618 159.984146,236.523346 146.711258,250.096481 
	C145.085800,251.758713 143.907150,254.618103 143.866684,256.946075 
	C143.612015,271.597504 143.729370,286.255585 143.751556,300.911407 
	C143.753708,302.329315 143.945541,303.746948 144.042587,305.072754 
	C147.385452,305.072754 150.205658,305.072754 153.932953,305.269867 
M378.905914,497.976135 
	C386.725891,497.983124 394.549255,497.855957 402.364319,498.055511 
	C406.097321,498.150818 407.455688,496.688354 407.289581,493.066772 
	C407.091522,488.749268 407.379822,484.406799 407.121857,480.095215 
	C406.633514,471.931976 400.073090,465.349426 391.916779,465.052643 
	C385.611664,464.823242 379.287262,465.124207 372.050476,465.024475 
	C329.392151,465.005524 286.733795,464.980499 244.075470,464.969513 
	C208.582047,464.960358 173.088608,464.958160 137.595184,464.972961 
	C125.230545,464.978119 118.968498,471.322449 118.932625,483.797943 
	C118.925919,486.130829 118.930122,488.463745 118.931496,490.796661 
	C118.935715,497.992004 118.936127,497.996277 126.032967,497.996368 
	C208.351059,497.997406 290.669159,497.997955 372.987244,497.990173 
	C374.649811,497.990021 376.312378,497.888031 378.905914,497.976135 
M346.033234,248.239914 
	C326.350769,250.473328 308.919067,244.446335 293.020325,233.380463 
	C291.153320,232.080994 289.212738,228.710983 289.635315,226.821808 
	C290.230194,224.162582 292.553589,221.313522 294.928772,219.738113 
	C301.800323,215.180374 308.209930,210.405762 311.719330,202.016571 
	C300.223541,198.928467 290.875824,201.447754 282.708191,209.647644 
	C252.161392,240.315155 221.487396,270.855927 190.870667,301.453857 
	C189.883545,302.440369 189.000198,303.530762 187.598297,305.098541 
	C189.667984,305.197632 190.943802,305.311920 192.219650,305.312134 
	C248.157730,305.321014 304.095825,305.321655 360.033905,305.308563 
	C361.356750,305.308258 362.679535,305.140442 364.924072,305.243011 
	C382.459747,305.243011 399.995453,305.243011 418.590546,305.243011 
	C416.503815,303.049591 415.303070,301.730988 414.043091,300.471680 
	C398.959045,285.395782 383.482574,270.686401 368.949280,255.097488 
	C362.402069,248.074738 356.215576,244.094635 346.033234,248.239914 
M468.904449,400.980316 
	C474.233704,400.986389 479.565277,401.093018 484.891510,400.969025 
	C489.803314,400.854706 493.475037,397.988953 493.715973,393.213409 
	C494.115051,385.303772 493.824463,377.359375 493.824463,369.260437 
	C485.542297,369.260437 477.750610,369.260437 469.038879,369.102722 
	C319.475189,369.102722 169.911484,369.102722 20.053329,369.102722 
	C20.053329,376.041168 20.046576,382.351105 20.054897,388.661041 
	C20.067661,398.338684 22.765640,400.996185 32.573761,400.996246 
	C176.044479,400.997040 319.515198,400.997345 462.985901,400.990143 
	C464.648590,400.990051 466.311249,400.889954 468.904449,400.980316 
M465.212616,49.657978 
	C454.897461,71.677315 444.582306,93.696655 433.978088,116.333031 
	C436.964874,116.333031 438.951538,116.332390 440.938171,116.333138 
	C451.077728,116.336945 452.958588,118.184189 452.958710,128.154449 
	C452.959564,188.647598 452.961121,249.140762 452.956818,309.633911 
	C452.956207,318.122009 450.798859,320.326355 442.412628,320.326843 
	C319.426544,320.333710 196.440460,320.333801 73.454384,320.327515 
	C65.072227,320.327057 62.971516,318.165741 62.971031,309.634552 
	C62.967587,249.141403 62.968750,188.648239 62.969593,128.155090 
	C62.969734,118.031197 64.686890,116.333443 74.924110,116.333374 
	C167.080353,116.332779 259.236603,116.312431 351.392761,116.404266 
	C355.297180,116.408157 357.483093,115.584358 359.264954,111.626457 
	C367.856201,92.543587 376.909119,73.668663 385.783295,54.712959 
	C386.606720,52.954082 387.325378,51.146152 388.325897,48.818398 
	C385.976379,48.818398 384.190094,48.818409 382.403809,48.818398 
	C347.407776,48.818192 312.411743,48.824409 277.415710,48.812328 
	C270.445679,48.809921 268.738129,47.593887 266.407501,41.112061 
	C260.128357,41.112061 253.813782,41.112061 247.538574,41.112061 
	C245.276291,47.582470 243.543869,48.812096 236.520538,48.812950 
	C168.361588,48.821251 100.202629,48.817207 32.043674,48.819569 
	C22.638172,48.819893 20.051620,51.450378 20.051271,61.047508 
	C20.047773,157.036652 20.049133,253.025787 20.049114,349.014923 
	C20.049114,350.618317 20.049116,352.221710 20.049116,354.076538 
	C22.097004,354.076538 23.576525,354.076538 25.056046,354.076538 
	C171.872772,354.076538 318.689484,354.077148 465.506226,354.068817 
	C467.000793,354.068726 468.495361,353.951141 470.914520,354.060303 
	C478.508606,354.060303 486.102661,354.060303 493.949097,354.060303 
	C493.949097,351.645752 493.949097,349.837250 493.949127,348.028717 
	C493.949127,314.205048 494.047272,280.380829 493.861084,246.558197 
	C493.826477,240.268372 494.761810,235.312790 501.915833,234.347443 
	C501.915833,227.760941 501.915833,221.607315 501.915833,215.487274 
	C494.926605,213.132629 493.951965,211.766708 493.951355,204.290894 
	C493.947449,156.804459 493.949951,109.318024 493.945801,61.831585 
	C493.945648,60.166183 494.094330,58.469219 493.833191,56.841591 
	C493.176117,52.746071 491.210815,49.223068 486.748138,49.029457 
	C479.803314,48.728165 472.827026,49.152344 465.212616,49.657978 
M176.004532,199.491104 
	C178.574478,197.398575 180.904739,194.872406 183.759171,193.294540 
	C192.458267,188.485855 202.668655,190.325073 210.272400,197.876022 
	C220.745636,208.276505 231.111557,218.785049 241.842224,229.567627 
	C252.475830,218.867935 262.695496,208.621780 272.872040,198.332993 
	C280.712097,190.406509 290.132507,185.922287 301.300171,185.716156 
	C306.040588,185.628647 310.797089,186.413239 315.733215,186.816742 
	C316.148529,184.464447 316.532196,182.020294 317.015839,179.596054 
	C320.167358,163.799408 326.644867,150.034286 341.807495,142.457565 
	C346.738251,139.993652 347.663696,136.006424 349.345917,131.611938 
	C280.555084,131.611938 212.341934,131.611938 143.974899,131.611938 
	C143.974899,164.766663 143.974899,197.638779 143.974899,231.685303 
	C154.956161,220.647522 165.229553,210.321259 176.004532,199.491104 
z"/>
<path fill="#F8F2F0" opacity="1.000000" stroke="none" 
	d="
M469.989929,353.888428 
	C468.495361,353.951141 467.000793,354.068726 465.506226,354.068817 
	C318.689484,354.077148 171.872772,354.076538 25.056046,354.076538 
	C23.576525,354.076538 22.097004,354.076538 20.049116,354.076538 
	C20.049116,352.221710 20.049114,350.618317 20.049114,349.014923 
	C20.049133,253.025787 20.047773,157.036652 20.051271,61.047508 
	C20.051620,51.450378 22.638172,48.819893 32.043674,48.819569 
	C100.202629,48.817207 168.361588,48.821251 236.520538,48.812950 
	C243.543869,48.812096 245.276291,47.582470 247.538574,41.112061 
	C253.813782,41.112061 260.128357,41.112061 266.407501,41.112061 
	C268.738129,47.593887 270.445679,48.809921 277.415710,48.812328 
	C312.411743,48.824409 347.407776,48.818192 382.403809,48.818398 
	C384.190094,48.818409 385.976379,48.818398 388.325897,48.818398 
	C387.325378,51.146152 386.606720,52.954082 385.783295,54.712959 
	C376.909119,73.668663 367.856201,92.543587 359.264954,111.626457 
	C357.483093,115.584358 355.297180,116.408157 351.392761,116.404266 
	C259.236603,116.312431 167.080353,116.332779 74.924110,116.333374 
	C64.686890,116.333443 62.969734,118.031197 62.969593,128.155090 
	C62.968750,188.648239 62.967587,249.141403 62.971031,309.634552 
	C62.971516,318.165741 65.072227,320.327057 73.454384,320.327515 
	C196.440460,320.333801 319.426544,320.333710 442.412628,320.326843 
	C450.798859,320.326355 452.956207,318.122009 452.956818,309.633911 
	C452.961121,249.140762 452.959564,188.647598 452.958710,128.154449 
	C452.958588,118.184189 451.077728,116.336945 440.938171,116.333138 
	C438.951538,116.332390 436.964874,116.333031 433.978088,116.333031 
	C444.582306,93.696655 454.897461,71.677315 465.637512,49.848251 
	C467.376770,53.476418 469.832367,56.911961 469.839417,60.352531 
	C470.040466,158.197525 469.995117,256.043030 469.989929,353.888428 
M116.499786,96.589989 
	C151.459991,96.589989 186.420212,96.591888 221.380417,96.584145 
	C223.042755,96.583778 224.721710,96.631561 226.364166,96.426498 
	C230.828751,95.869064 233.521545,92.944199 233.463211,88.891380 
	C233.404785,84.832382 230.577942,81.980865 226.140778,81.594460 
	C224.818115,81.479279 223.479050,81.540665 222.147507,81.540611 
	C172.870224,81.538605 123.592926,81.538094 74.315636,81.542664 
	C72.818558,81.542801 71.306618,81.475296 69.827232,81.652832 
	C65.590233,82.161316 63.126312,84.628265 63.047379,88.876312 
	C62.968281,93.133621 65.376228,95.677963 69.570320,96.343094 
	C71.201035,96.601692 72.885994,96.578300 74.546371,96.580353 
	C88.197487,96.597275 101.848640,96.589935 116.499786,96.589989 
z"/>
<path fill="#B6C4CF" opacity="1.000000" stroke="none" 
	d="
M467.973938,400.836517 
	C466.311249,400.889954 464.648590,400.990051 462.985901,400.990143 
	C319.515198,400.997345 176.044479,400.997040 32.573761,400.996246 
	C22.765640,400.996185 20.067661,398.338684 20.054897,388.661041 
	C20.046576,382.351105 20.053329,376.041168 20.053329,369.102722 
	C169.911484,369.102722 319.475189,369.102722 469.505005,369.633301 
	C469.983368,371.970978 470.119324,373.787140 469.986694,375.583527 
	C469.364990,384.004883 471.719879,392.666473 467.973938,400.836517 
z"/>
<path fill="#AFE2F7" opacity="1.000000" stroke="none" 
	d="
M175.753723,199.743057 
	C165.229553,210.321259 154.956161,220.647522 143.974899,231.685303 
	C143.974899,197.638779 143.974899,164.766663 143.974899,131.611938 
	C212.341934,131.611938 280.555084,131.611938 349.345917,131.611938 
	C347.663696,136.006424 346.738251,139.993652 341.807495,142.457565 
	C326.644867,150.034286 320.167358,163.799408 317.015839,179.596054 
	C316.532196,182.020294 316.148529,184.464447 315.733215,186.816742 
	C310.797089,186.413239 306.040588,185.628647 301.300171,185.716156 
	C290.132507,185.922287 280.712097,190.406509 272.872040,198.332993 
	C262.695496,208.621780 252.475830,218.867935 241.842224,229.567627 
	C231.111557,218.785049 220.745636,208.276505 210.272400,197.876022 
	C202.668655,190.325073 192.458267,188.485855 183.759171,193.294540 
	C180.904739,194.872406 178.574478,197.398575 175.753723,199.743057 
z"/>
<path fill="#7FDBAE" opacity="1.000000" stroke="none" 
	d="
M364.002350,305.050751 
	C362.679535,305.140442 361.356750,305.308258 360.033905,305.308563 
	C304.095825,305.321655 248.157730,305.321014 192.219650,305.312134 
	C190.943802,305.311920 189.667984,305.197632 187.598297,305.098541 
	C189.000198,303.530762 189.883545,302.440369 190.870667,301.453857 
	C221.487396,270.855927 252.161392,240.315155 282.708191,209.647644 
	C290.875824,201.447754 300.223541,198.928467 311.719330,202.016571 
	C308.209930,210.405762 301.800323,215.180374 294.928772,219.738113 
	C292.553589,221.313522 290.230194,224.162582 289.635315,226.821808 
	C289.212738,228.710983 291.153320,232.080994 293.020325,233.380463 
	C308.919067,244.446335 326.350769,250.473328 346.478851,248.636993 
	C354.622803,267.094818 360.479492,285.717010 364.002350,305.050751 
z"/>
<path fill="#B6C4CF" opacity="1.000000" stroke="none" 
	d="
M377.974976,497.833557 
	C376.312378,497.888031 374.649811,497.990021 372.987244,497.990173 
	C290.669159,497.997955 208.351059,497.997406 126.032967,497.996368 
	C118.936127,497.996277 118.935715,497.992004 118.931496,490.796661 
	C118.930122,488.463745 118.925919,486.130829 118.932625,483.797943 
	C118.968498,471.322449 125.230545,464.978119 137.595184,464.972961 
	C173.088608,464.958160 208.582047,464.960358 244.075470,464.969513 
	C286.733795,464.980499 329.392151,465.005524 372.561707,465.456085 
	C376.647400,472.241394 378.835938,478.874451 378.068878,486.351685 
	C377.679993,490.142303 377.984131,494.003998 377.974976,497.833557 
z"/>
<path fill="#DCD9EB" opacity="1.000000" stroke="none" 
	d="
M470.452209,353.974365 
	C469.995117,256.043030 470.040466,158.197525 469.839417,60.352531 
	C469.832367,56.911961 467.376770,53.476418 465.963257,49.653786 
	C472.827026,49.152344 479.803314,48.728165 486.748138,49.029457 
	C491.210815,49.223068 493.176117,52.746071 493.833191,56.841591 
	C494.094330,58.469219 493.945648,60.166183 493.945801,61.831585 
	C493.949951,109.318024 493.947449,156.804459 493.951355,204.290894 
	C493.951965,211.766708 494.926605,213.132629 501.915833,215.487274 
	C501.915833,221.607315 501.915833,227.760941 501.915833,234.347443 
	C494.761810,235.312790 493.826477,240.268372 493.861084,246.558197 
	C494.047272,280.380829 493.949127,314.205048 493.949127,348.028717 
	C493.949097,349.837250 493.949097,351.645752 493.949097,354.060303 
	C486.102661,354.060303 478.508606,354.060303 470.452209,353.974365 
z"/>
<path fill="#7EDAAD" opacity="1.000000" stroke="none" 
	d="
M153.025864,305.072754 
	C150.205658,305.072754 147.385452,305.072754 144.042587,305.072754 
	C143.945541,303.746948 143.753708,302.329315 143.751556,300.911407 
	C143.729370,286.255585 143.612015,271.597504 143.866684,256.946075 
	C143.907150,254.618103 145.085800,251.758713 146.711258,250.096481 
	C159.984146,236.523346 173.479599,223.167618 186.926208,209.764679 
	C192.379501,204.329056 195.475967,204.303040 200.840927,209.600784 
	C204.158585,212.876846 207.435959,216.193680 210.805023,220.168274 
	C207.426956,235.731644 201.018814,249.288818 192.666992,262.031525 
	C181.820358,278.580627 168.090500,292.430847 153.025864,305.072754 
z"/>
<path fill="#EA5367" opacity="1.000000" stroke="none" 
	d="
M403.993927,117.959663 
	C395.563721,114.152412 387.133514,110.345161 378.215363,106.317543 
	C393.595642,73.385475 408.750275,40.936626 424.121490,8.023951 
	C433.778870,8.023951 443.913055,8.023951 454.361206,8.403006 
	C454.194702,10.015101 453.784912,11.281331 453.223541,12.476329 
	C439.893433,40.851696 426.528046,69.210503 413.217560,97.595039 
	C410.053925,104.341454 407.063843,111.169281 403.993927,117.959663 
z"/>
<path fill="#FDC064" opacity="1.000000" stroke="none" 
	d="
M328.294159,232.371201 
	C322.771820,230.883179 317.249481,229.395142 311.948914,227.966888 
	C312.006836,226.672760 311.903473,226.257233 312.048248,226.134644 
	C324.075439,215.949173 328.883820,202.361069 331.126617,187.265457 
	C332.089294,180.786163 334.245361,174.397095 336.592773,168.247009 
	C337.784332,165.125259 340.314056,162.334961 342.746735,159.902817 
	C348.166443,154.484268 349.768738,154.356201 356.603424,157.536758 
	C365.630707,161.737610 374.645660,165.964859 383.865601,170.895721 
	C383.452911,202.323929 359.095520,228.860382 328.294159,232.371201 
z"/>
<path fill="#AFE2F7" opacity="1.000000" stroke="none" 
	d="
M421.152802,286.048401 
	C405.758240,270.215759 390.363708,254.383087 374.957611,238.538559 
	C378.197968,235.917023 382.420532,232.977798 386.082520,229.455719 
	C402.016693,214.130341 410.223877,195.613449 408.789307,173.204971 
	C408.679565,171.490906 409.160370,169.583603 409.878784,167.998169 
	C413.437927,160.144028 417.169128,152.367859 421.269836,144.593613 
	C421.806885,145.607376 422.007050,146.591721 422.007385,147.576126 
	C422.023102,192.312515 422.029297,237.048904 421.985016,281.785248 
	C421.983612,283.206573 421.442352,284.627350 421.152802,286.048401 
z"/>
<path fill="#8696A5" opacity="1.000000" stroke="none" 
	d="
M190.004852,432.001556 
	C193.796066,427.386505 197.420258,422.616150 201.479477,418.250305 
	C202.710358,416.926453 205.141922,416.100830 207.026993,416.094666 
	C244.451508,415.971832 281.876556,415.989441 319.301361,416.051361 
	C320.844666,416.053925 322.985321,416.244476 323.837402,417.225189 
	C332.964294,427.729858 341.887360,438.411621 351.631897,449.951416 
	C341.989563,449.951416 333.445557,449.951416 324.390930,449.550415 
	C320.803589,445.477264 317.196167,442.120819 314.778534,438.056641 
	C311.417786,432.407135 306.722778,431.858978 300.874573,431.891357 
	C263.918945,432.095917 226.961624,431.998962 190.004852,432.001556 
z"/>
<path fill="#74CCF6" opacity="1.000000" stroke="none" 
	d="
M421.266846,286.348022 
	C421.442352,284.627350 421.983612,283.206573 421.985016,281.785248 
	C422.029297,237.048904 422.023102,192.312515 422.007385,147.576126 
	C422.007050,146.591721 421.806885,145.607376 421.453003,144.282700 
	C421.852966,142.426285 422.453644,140.888443 423.154388,139.397629 
	C427.248657,130.687134 427.256561,130.690857 437.603088,131.672577 
	C437.603088,188.402527 437.603088,245.167709 437.603088,303.735229 
	C431.587372,297.398621 426.484131,292.023163 421.266846,286.348022 
z"/>
<path fill="#9EABB9" opacity="1.000000" stroke="none" 
	d="
M189.712540,432.163055 
	C226.961624,431.998962 263.918945,432.095917 300.874573,431.891357 
	C306.722778,431.858978 311.417786,432.407135 314.778534,438.056641 
	C317.196167,442.120819 320.803589,445.477264 323.925232,449.479980 
	C283.683929,449.861725 243.397720,449.914948 203.111511,449.962463 
	C193.988068,449.973206 184.864578,449.964020 174.616974,449.964020 
	C179.942017,443.618744 184.681122,437.971649 189.712540,432.163055 
z"/>
<path fill="#26BA9D" opacity="1.000000" stroke="none" 
	d="
M364.463196,305.146881 
	C360.479492,285.717010 354.622803,267.094818 346.879028,248.676239 
	C356.215576,244.094635 362.402069,248.074738 368.949280,255.097488 
	C383.482574,270.686401 398.959045,285.395782 414.043091,300.471680 
	C415.303070,301.730988 416.503815,303.049591 418.590546,305.243011 
	C399.995453,305.243011 382.459747,305.243011 364.463196,305.146881 
z"/>
<path fill="#EB5468" opacity="1.000000" stroke="none" 
	d="
M114.979271,242.070602 
	C102.873947,242.070602 90.768616,242.070602 78.318069,242.070602 
	C78.318069,226.348587 78.318069,210.657425 78.318069,194.387985 
	C90.208817,194.387985 102.111000,194.387985 114.486053,194.931305 
	C114.965706,211.006622 114.972488,226.538605 114.979271,242.070602 
z"/>
<path fill="#7EDBAE" opacity="1.000000" stroke="none" 
	d="
M114.938744,179.051239 
	C102.835968,179.051239 90.733185,179.051239 78.301239,179.051239 
	C78.301239,163.387863 78.301239,147.687744 78.301239,131.398148 
	C90.140877,131.398148 102.039139,131.398148 114.416496,131.938156 
	C114.909973,148.002518 114.924362,163.526886 114.938744,179.051239 
z"/>
<path fill="#FEC165" opacity="1.000000" stroke="none" 
	d="
M114.973999,305.074646 
	C102.852150,305.074646 90.730301,305.074646 78.290207,305.074646 
	C78.290207,289.390045 78.290207,273.669983 78.290207,257.384949 
	C90.188133,257.384949 102.107948,257.384949 114.496735,257.933594 
	C114.968475,274.013031 114.971237,289.543854 114.973999,305.074646 
z"/>
<path fill="#E3384E" opacity="1.000000" stroke="none" 
	d="
M404.238647,118.210701 
	C407.063843,111.169281 410.053925,104.341454 413.217560,97.595039 
	C426.528046,69.210503 439.893433,40.851696 453.223541,12.476329 
	C453.784912,11.281331 454.194702,10.015101 454.824310,8.466560 
	C459.088379,8.151058 463.203247,8.151058 468.007935,8.151058 
	C449.998474,46.659760 432.206665,84.703125 414.275909,123.043594 
	C410.752350,121.394943 407.617889,119.928337 404.238647,118.210701 
z"/>
<path fill="#26B69A" opacity="1.000000" stroke="none" 
	d="
M153.479401,305.171326 
	C168.090500,292.430847 181.820358,278.580627 192.666992,262.031525 
	C201.018814,249.288818 207.426956,235.731644 210.954041,220.472656 
	C217.398911,226.857697 223.768356,233.614426 230.356522,240.603180 
	C229.750778,241.253250 228.674896,242.481369 227.522797,243.633270 
	C209.734772,261.418549 191.665344,278.934540 174.291626,297.115448 
	C168.382523,303.299072 162.451859,306.845428 153.479401,305.171326 
z"/>
<path fill="#9FABB9" opacity="1.000000" stroke="none" 
	d="
M378.440430,497.904846 
	C377.984131,494.003998 377.679993,490.142303 378.068878,486.351685 
	C378.835938,478.874451 376.647400,472.241394 373.022217,465.538513 
	C379.287262,465.124207 385.611664,464.823242 391.916779,465.052643 
	C400.073090,465.349426 406.633514,471.931976 407.121857,480.095215 
	C407.379822,484.406799 407.091522,488.749268 407.289581,493.066772 
	C407.455688,496.688354 406.097321,498.150818 402.364319,498.055511 
	C394.549255,497.855957 386.725891,497.983124 378.440430,497.904846 
z"/>
<path fill="#F9B140" opacity="1.000000" stroke="none" 
	d="
M328.638214,232.622345 
	C359.095520,228.860382 383.452911,202.323929 384.101227,171.143829 
	C394.723755,174.557419 395.128296,175.562790 393.433838,186.456436 
	C389.035736,214.732391 360.107300,238.800201 328.638214,232.622345 
z"/>
<path fill="#9EAAB6" opacity="1.000000" stroke="none" 
	d="
M468.439209,400.908417 
	C471.719879,392.666473 469.364990,384.004883 469.986694,375.583527 
	C470.119324,373.787140 469.983368,371.970978 469.965027,369.712158 
	C477.750610,369.260437 485.542297,369.260437 493.824463,369.260437 
	C493.824463,377.359375 494.115051,385.303772 493.715973,393.213409 
	C493.475037,397.988953 489.803314,400.854706 484.891510,400.969025 
	C479.565277,401.093018 474.233704,400.986389 468.439209,400.908417 
z"/>
<path fill="#365D7B" opacity="1.000000" stroke="none" 
	d="
M386.974152,154.850342 
	C379.412964,151.424362 371.871979,147.952682 364.278381,144.600174 
	C361.989807,143.589813 361.283173,142.332687 362.432037,139.964828 
	C365.118866,134.427399 367.750793,128.860077 370.245117,123.233955 
	C371.398071,120.633339 372.896362,120.291077 375.338593,121.464844 
	C382.383789,124.850899 389.492798,128.104202 396.759766,132.028992 
	C393.619904,140.048996 390.297028,147.449661 386.974152,154.850342 
z"/>
<path fill="#F0AB3F" opacity="1.000000" stroke="none" 
	d="
M115.353577,305.206360 
	C114.971237,289.543854 114.968475,274.013031 114.944458,258.056213 
	C119.355186,257.630157 123.787170,257.630157 128.490540,257.630157 
	C128.490540,273.450867 128.490540,289.043121 128.490540,305.338104 
	C124.254570,305.338104 119.993866,305.338104 115.353577,305.206360 
z"/>
<path fill="#D9364C" opacity="1.000000" stroke="none" 
	d="
M115.350632,242.220764 
	C114.972488,226.538605 114.965706,211.006622 114.932495,195.051483 
	C119.340080,194.628357 123.774101,194.628357 128.492584,194.628357 
	C128.492584,210.439209 128.492584,226.030853 128.492584,242.370911 
	C124.233810,242.370911 119.977905,242.370911 115.350632,242.220764 
z"/>
<path fill="#27B296" opacity="1.000000" stroke="none" 
	d="
M115.313057,179.204987 
	C114.924362,163.526886 114.909973,148.002518 114.858597,132.054749 
	C128.782883,129.985062 128.782883,129.985062 128.782883,143.692215 
	C128.782883,155.344788 128.782883,166.997360 128.782883,179.358749 
	C124.213936,179.358749 119.950653,179.358749 115.313057,179.204987 
z"/>
<path fill="#2A4C64" opacity="1.000000" stroke="none" 
	d="
M387.266479,155.062637 
	C390.297028,147.449661 393.619904,140.048996 396.994507,132.282318 
	C408.369568,135.932388 408.368164,135.931702 403.347748,146.336090 
	C402.335022,148.434921 401.279205,150.515549 400.343658,152.648575 
	C397.113312,160.013885 397.129395,160.022995 389.770691,156.425858 
	C389.024231,156.060974 388.295654,155.659470 387.266479,155.062637 
z"/>
<path fill="#080807" opacity="1.000000" stroke="none" 
	d="
M115.999786,96.589973 
	C101.848640,96.589935 88.197487,96.597275 74.546371,96.580353 
	C72.885994,96.578300 71.201035,96.601692 69.570320,96.343094 
	C65.376228,95.677963 62.968281,93.133621 63.047379,88.876312 
	C63.126312,84.628265 65.590233,82.161316 69.827232,81.652832 
	C71.306618,81.475296 72.818558,81.542801 74.315636,81.542664 
	C123.592926,81.538094 172.870224,81.538605 222.147507,81.540611 
	C223.479050,81.540665 224.818115,81.479279 226.140778,81.594460 
	C230.577942,81.980865 233.404785,84.832382 233.463211,88.891380 
	C233.521545,92.944199 230.828751,95.869064 226.364166,96.426498 
	C224.721710,96.631561 223.042755,96.583778 221.380417,96.584145 
	C186.420212,96.591888 151.459991,96.589989 115.999786,96.589973 
z"/>
</svg>